<svg xmlns="http://www.w3.org/2000/svg" xmlns:xlink="http://www.w3.org/1999/xlink" width="1080" zoomAndPan="magnify" viewBox="0 0 810 809.999993" height="1080" preserveAspectRatio="xMidYMid meet" version="1.0"><defs><g/><clipPath id="dace069f24"><path d="M 80.203125 284 L 705.703125 284 L 705.703125 810 L 80.203125 810 Z M 80.203125 284 " clip-rule="nonzero"/></clipPath><clipPath id="68fb3ce4c9"><path d="M 172 801 L 623 801 L 623 810 L 172 810 Z M 172 801 " clip-rule="nonzero"/></clipPath><clipPath id="556aa7255b"><path d="M 706.097656 597.636719 C 706.097656 770.335938 566.085938 910.289062 393.429688 910.289062 C 220.722656 910.289062 80.710938 770.335938 80.710938 597.636719 C 80.710938 424.941406 220.722656 284.9375 393.429688 284.9375 C 566.085938 284.9375 706.097656 424.941406 706.097656 597.636719 " clip-rule="nonzero"/></clipPath></defs><rect x="-81" width="972" fill="#ffffff" y="-80.999999" height="971.999992" fill-opacity="1"/><rect x="-81" width="972" fill="#545454" y="-80.999999" height="971.999992" fill-opacity="1"/><g clip-path="url(#dace069f24)"><path fill="#2dc9e3" d="M 706.097656 597.636719 C 706.097656 770.335938 566.085938 910.289062 393.429688 910.289062 C 220.722656 910.289062 80.710938 770.335938 80.710938 597.636719 C 80.710938 424.941406 220.722656 284.9375 393.429688 284.9375 C 566.085938 284.9375 706.097656 424.941406 706.097656 597.636719 " fill-opacity="1" fill-rule="nonzero"/></g><g clip-path="url(#68fb3ce4c9)"><g clip-path="url(#556aa7255b)"><path fill="#2cbdd5" d="M 407.925781 832.023438 C 278.054688 832.023438 172.765625 825.128906 172.765625 816.714844 C 172.765625 808.25 278.054688 801.40625 407.925781 801.40625 C 503.480469 801.40625 585.703125 805.109375 622.507812 810.429688 C 617.945312 815.347656 613.230469 820.113281 608.363281 824.722656 C 567 829.082031 492.683594 832.023438 407.925781 832.023438 " fill-opacity="1" fill-rule="nonzero"/></g></g><path fill="#58595b" d="M 331.128906 574.675781 L 549.054688 574.675781 L 495.066406 247.882812 L 277.191406 247.882812 L 331.128906 574.675781 " fill-opacity="1" fill-rule="nonzero"/><path fill="#ffffff" d="M 562.691406 688.878906 L 357.082031 688.878906 L 358.90625 699.929688 L 564.515625 699.929688 L 562.691406 688.878906 " fill-opacity="1" fill-rule="nonzero"/><path fill="#e3e3e3" d="M 587.476562 807.742188 L 549.054688 574.675781 L 535.519531 574.675781 L 573.992188 807.742188 L 587.476562 807.742188 " fill-opacity="1" fill-rule="nonzero"/><path fill="#e3e3e3" d="M 384.304688 807.742188 L 345.828125 574.675781 L 332.34375 574.675781 L 370.820312 807.742188 L 384.304688 807.742188 " fill-opacity="1" fill-rule="nonzero"/><path fill="#d1d3d4" d="M 342.738281 562.054688 L 533.238281 562.054688 L 483.457031 260.453125 L 292.957031 260.453125 L 342.738281 562.054688 " fill-opacity="1" fill-rule="nonzero"/><path fill="#ffce6c" d="M 436.71875 574.675781 L 218.84375 574.675781 L 272.78125 247.882812 L 490.65625 247.882812 L 436.71875 574.675781 " fill-opacity="1" fill-rule="nonzero"/><path fill="#ffffff" d="M 205.160156 688.878906 L 410.765625 688.878906 L 408.941406 699.929688 L 203.332031 699.929688 L 205.160156 688.878906 " fill-opacity="1" fill-rule="nonzero"/><path fill="#ffffff" d="M 180.371094 807.742188 L 218.84375 574.675781 L 232.328125 574.675781 L 193.855469 807.742188 L 180.371094 807.742188 " fill-opacity="1" fill-rule="nonzero"/><path fill="#ffffff" d="M 383.542969 807.742188 L 422.019531 574.675781 L 435.503906 574.675781 L 397.027344 807.742188 L 383.542969 807.742188 " fill-opacity="1" fill-rule="nonzero"/><path fill="#f9f9f9" d="M 425.109375 562.054688 L 234.609375 562.054688 L 284.390625 260.453125 L 474.890625 260.453125 L 425.109375 562.054688 " fill-opacity="1" fill-rule="nonzero"/><path fill="#58595b" d="M 333.511719 302.070312 L 409.296875 301.96875 C 410.765625 301.96875 412.183594 300.699219 412.4375 299.179688 C 412.691406 297.609375 411.679688 296.390625 410.207031 296.390625 L 334.421875 296.441406 C 332.953125 296.441406 331.535156 297.710938 331.28125 299.28125 C 331.027344 300.800781 332.039062 302.070312 333.511719 302.070312 " fill-opacity="1" fill-rule="nonzero"/><path fill="#6d6e71" d="M 301.066406 336.941406 L 430.230469 336.792969 L 432.105469 335.117188 L 430.789062 333.445312 L 301.625 333.597656 L 299.699219 335.269531 L 301.066406 336.941406 " fill-opacity="1" fill-rule="nonzero"/><path fill="#6d6e71" d="M 298.433594 352.859375 L 427.59375 352.707031 L 429.472656 351.035156 L 428.152344 349.3125 L 298.988281 349.464844 L 297.113281 351.136719 L 298.433594 352.859375 " fill-opacity="1" fill-rule="nonzero"/><path fill="#6d6e71" d="M 295.796875 368.726562 L 424.960938 368.574219 L 426.835938 366.902344 L 425.515625 365.226562 L 296.351562 365.378906 L 294.476562 367.050781 L 295.796875 368.726562 " fill-opacity="1" fill-rule="nonzero"/><path fill="#6d6e71" d="M 293.160156 384.640625 L 422.324219 384.488281 L 424.25 382.816406 L 422.878906 381.09375 L 293.71875 381.246094 L 291.839844 382.96875 L 293.160156 384.640625 " fill-opacity="1" fill-rule="nonzero"/><path fill="#6d6e71" d="M 290.574219 400.507812 L 419.6875 400.355469 L 421.5625 398.683594 L 420.296875 397.011719 L 291.132812 397.160156 L 289.207031 398.835938 L 290.574219 400.507812 " fill-opacity="1" fill-rule="nonzero"/><path fill="#58595b" d="M 343.546875 313.777344 L 395.355469 313.726562 C 396.824219 313.726562 398.246094 312.460938 398.496094 310.941406 C 398.75 309.367188 397.738281 308.101562 396.265625 308.101562 L 344.460938 308.203125 C 342.988281 308.203125 341.570312 309.417969 341.316406 310.992188 C 341.0625 312.511719 342.078125 313.777344 343.546875 313.777344 " fill-opacity="1" fill-rule="nonzero"/><path fill="#547eb2" d="M 389.980469 448.003906 C 385.773438 438.777344 378.726562 431.527344 369.703125 427.320312 L 341.265625 477.65625 L 393.125 479.125 C 395.253906 468.125 394.136719 457.277344 389.980469 448.003906 " fill-opacity="1" fill-rule="nonzero"/><path fill="#f15a29" d="M 351.761719 423.113281 C 338.527344 422.761719 324.742188 427.726562 313.234375 437.054688 L 341.265625 477.65625 L 364.738281 425.34375 C 360.632812 423.976562 356.269531 423.265625 351.761719 423.113281 " fill-opacity="1" fill-rule="nonzero"/><path fill="#ffce5b" d="M 341.265625 477.65625 L 307.554688 442.222656 C 298.230469 451.753906 291.839844 463.714844 289.410156 476.1875 C 283.679688 506.144531 302.386719 531.386719 330.824219 532.199219 C 357.742188 532.957031 384.660156 511.515625 392.160156 483.332031 L 341.265625 477.65625 " fill-opacity="1" fill-rule="nonzero"/><path fill="#f7c19c" d="M 538.207031 368.625 L 561.21875 361.882812 L 577.542969 367.253906 L 577.542969 387.074219 L 538.207031 387.074219 L 538.207031 368.625 " fill-opacity="1" fill-rule="nonzero"/><path fill="#414042" d="M 531.816406 785.644531 L 552.90625 785.644531 C 552.90625 785.644531 554.832031 790.609375 555.339844 794.613281 C 555.847656 798.46875 555.085938 802.878906 554.324219 804.703125 C 546.722656 804.703125 490.148438 804.703125 490.148438 804.703125 C 490.148438 804.703125 488.070312 796.390625 494.8125 796.035156 C 518.484375 794.867188 521.222656 788.582031 531.816406 785.644531 " fill-opacity="1" fill-rule="nonzero"/><path fill="#231f20" d="M 488.78125 807.4375 L 556.554688 807.4375 L 556.554688 801.558594 C 556.554688 801.558594 546.113281 801.558594 538.8125 801.558594 C 531.464844 801.558594 527.003906 803.179688 523.402344 803.179688 C 519.753906 803.179688 488.78125 803.179688 488.78125 803.179688 L 488.78125 807.4375 " fill-opacity="1" fill-rule="nonzero"/><path fill="#414042" d="M 587.074219 785.644531 L 607.199219 785.644531 C 607.199219 785.644531 610.289062 792.789062 610.949219 796.691406 C 611.253906 798.621094 611.609375 802.117188 611.457031 804.703125 C 603.445312 804.703125 574.601562 804.703125 574.601562 804.703125 C 574.601562 804.703125 573.84375 798.570312 577.898438 796.644531 C 584.945312 793.195312 585.296875 789.953125 587.074219 785.644531 " fill-opacity="1" fill-rule="nonzero"/><path fill="#231f20" d="M 573.488281 807.4375 L 612.621094 807.4375 L 612.621094 803.179688 L 573.488281 803.179688 L 573.488281 807.4375 " fill-opacity="1" fill-rule="nonzero"/><path fill="#375875" d="M 563.449219 530.878906 C 563.449219 530.878906 563.09375 534.933594 562.4375 542.03125 C 561.777344 549.128906 560.964844 558.859375 560.105469 570.925781 C 559.34375 582.886719 558.53125 596.828125 558.128906 611.78125 C 557.671875 626.734375 557.722656 642.496094 558.230469 658.464844 C 558.332031 662.621094 558.480469 666.726562 558.582031 670.832031 C 558.632812 674.9375 558.683594 679.042969 558.734375 683.097656 C 558.734375 691.3125 558.632812 699.320312 558.480469 707.074219 C 558.128906 722.636719 557.417969 737.082031 556.65625 749.398438 C 555.136719 774.035156 553.667969 784.222656 554.019531 788.683594 C 542.667969 791.015625 535.316406 786.503906 526.496094 787.367188 C 527.761719 780.675781 529.03125 773.222656 528.167969 749.046875 C 527.660156 736.929688 527.003906 722.890625 525.886719 707.9375 C 525.328125 700.433594 524.621094 692.730469 523.859375 684.875 C 522.996094 677.015625 522.136719 669.058594 521.273438 661.050781 C 519.5 644.574219 518.234375 627.796875 517.523438 612.234375 C 516.761719 596.625 516.457031 582.074219 516.355469 569.65625 C 516.253906 557.289062 516.355469 546.695312 516.457031 539.597656 C 516.609375 532.449219 516.660156 528.394531 516.660156 528.394531 L 563.449219 530.878906 " fill-opacity="1" fill-rule="nonzero"/><path fill="#3f6082" d="M 610.085938 748.386719 C 610.035156 735.96875 609.78125 721.46875 609.023438 705.859375 C 608.667969 698.050781 608.160156 689.992188 607.550781 681.832031 C 606.894531 673.925781 606.285156 665.914062 605.625 657.855469 C 603.191406 621.207031 602.9375 584.40625 602.484375 547.65625 C 602.433594 543.753906 602.382812 539.851562 602.382812 535.898438 L 602.382812 514.863281 L 516.304688 514.863281 L 516.304688 559.265625 C 516.304688 565.957031 521.78125 571.429688 528.472656 571.429688 L 558.988281 571.480469 C 561.21875 596.015625 564.007812 628.660156 568.671875 661.859375 C 569.28125 666.015625 569.9375 670.171875 570.546875 674.328125 C 571.308594 678.285156 572.015625 682.238281 572.675781 686.191406 C 574.042969 693.996094 575.3125 701.601562 576.425781 709.050781 C 578.65625 723.902344 580.28125 737.84375 581.546875 749.90625 C 582.765625 761.921875 583.980469 771.90625 584.539062 778.953125 C 585.09375 785.996094 584.792969 786.960938 584.792969 789.242188 C 598.175781 787.417969 603.394531 791.675781 609.175781 789.242188 C 609.074219 787.722656 609.125 785.695312 609.328125 778.496094 C 609.429688 771.296875 610.136719 760.804688 610.085938 748.386719 " fill-opacity="1" fill-rule="nonzero"/><path fill="#edb996" d="M 534.910156 404.207031 C 529.4375 422.304688 523.300781 440.195312 516.558594 457.835938 C 512.859375 467.519531 509.007812 477.199219 504.546875 486.628906 C 501.707031 492.507812 498.816406 500.617188 490.960938 500.566406 C 482.75 500.566406 479.046875 492.304688 481.734375 485.410156 C 484.726562 477.554688 487.816406 469.902344 490.402344 461.890625 C 496.636719 442.222656 501.910156 422.253906 506.574219 402.179688 C 508.347656 394.425781 511.136719 386.71875 520.515625 386.113281 C 530.195312 385.453125 537.699219 394.980469 534.910156 404.207031 " fill-opacity="1" fill-rule="nonzero"/><path fill="#d6e1e5" d="M 526.597656 444.152344 C 520.464844 441.921875 505.152344 437.359375 496.484375 434.773438 C 496.484375 434.773438 505.609375 400.558594 508.601562 390.671875 C 512.402344 378.101562 518.382812 372.984375 527.105469 374.199219 C 536.078125 375.46875 539.726562 388.191406 538.359375 396.25 C 536.378906 408.464844 529.03125 436.34375 526.597656 444.152344 " fill-opacity="1" fill-rule="nonzero"/><path fill="#f7c19c" d="M 542.867188 372.476562 L 569.683594 372.476562 L 568.214844 339.171875 L 541.449219 339.171875 L 542.867188 372.476562 " fill-opacity="1" fill-rule="nonzero"/><path fill="#dba783" d="M 555.695312 362.894531 C 565.425781 353.113281 563.398438 339.171875 563.398438 339.171875 L 541.449219 339.171875 L 542.617188 367.050781 C 542.617188 367.050781 549.8125 368.726562 555.695312 362.894531 " fill-opacity="1" fill-rule="nonzero"/><path fill="#dfeaef" d="M 510.730469 389.050781 C 513.621094 376.582031 520.96875 373.792969 522.945312 373.1875 C 527.863281 371.714844 534.808594 369.28125 541.90625 366.496094 C 545.503906 369.890625 559.394531 369.179688 567.101562 363.757812 C 579.214844 366.191406 592.648438 371.714844 605.675781 374.402344 C 607.703125 374.808594 615.054688 379.925781 615.714844 391.28125 C 616.371094 403.09375 613.9375 422.253906 608.261719 449.320312 C 602.738281 475.984375 602.128906 520.792969 602.128906 520.792969 L 516.609375 520.792969 C 516.609375 520.792969 516.203125 460.472656 511.035156 428.792969 C 508.550781 413.433594 509.210938 395.792969 510.730469 389.050781 " fill-opacity="1" fill-rule="nonzero"/><path fill="#726658" d="M 516.15625 522.921875 L 602.6875 522.921875 L 602.6875 514.203125 L 516.15625 514.203125 L 516.15625 522.921875 " fill-opacity="1" fill-rule="nonzero"/><path fill="#3f6082" d="M 562.992188 523.175781 L 566.796875 523.175781 L 566.796875 513.949219 L 562.992188 513.949219 L 562.992188 523.175781 " fill-opacity="1" fill-rule="nonzero"/><path fill="#3f6082" d="M 588.289062 523.175781 L 592.140625 523.175781 L 592.140625 513.949219 L 588.289062 513.949219 L 588.289062 523.175781 " fill-opacity="1" fill-rule="nonzero"/><path fill="#3f6082" d="M 521.832031 523.175781 L 525.632812 523.175781 L 525.632812 513.949219 L 521.832031 513.949219 L 521.832031 523.175781 " fill-opacity="1" fill-rule="nonzero"/><path fill="#bcbec0" d="M 539.574219 522.007812 L 548.800781 522.007812 L 548.800781 515.117188 L 539.574219 515.117188 Z M 550.167969 524.339844 L 538.15625 524.339844 L 537.292969 523.175781 L 537.292969 513.949219 L 538.15625 512.785156 L 550.167969 512.785156 L 551.082031 513.949219 L 551.082031 523.175781 L 550.167969 524.339844 " fill-opacity="1" fill-rule="nonzero"/><path fill="#375875" d="M 542.363281 379.269531 L 550.574219 379.269531 C 551.640625 378.355469 552.855469 372.527344 553.414062 369.484375 L 551.839844 367.660156 L 541.042969 367.660156 L 539.523438 369.484375 C 540.082031 372.527344 541.246094 378.355469 542.363281 379.269531 " fill-opacity="1" fill-rule="nonzero"/><path fill="#375875" d="M 542.414062 379.117188 L 550.523438 379.117188 L 557.417969 491.496094 L 543.527344 506.902344 L 529.585938 491.496094 L 542.414062 379.117188 " fill-opacity="1" fill-rule="nonzero"/><path fill="#e4f3f9" d="M 542.667969 362.289062 C 542.667969 362.289062 542.464844 367.203125 546.46875 367.660156 C 544.390625 370.703125 541.652344 375.769531 537.902344 381.09375 C 536.277344 374.757812 537.191406 369.332031 537.191406 369.332031 L 542.667969 362.289062 " fill-opacity="1" fill-rule="nonzero"/><path fill="#e4f3f9" d="M 569.128906 358.992188 C 569.128906 358.992188 566.644531 367.660156 546.46875 367.660156 C 548.140625 370.398438 551.839844 376.9375 555.441406 382.207031 C 568.621094 378.152344 572.929688 366.648438 572.929688 366.648438 L 569.128906 358.992188 " fill-opacity="1" fill-rule="nonzero"/><path fill="#663917" d="M 527.003906 294.820312 C 537.648438 290.054688 550.472656 287.167969 555.796875 287.824219 C 571.8125 289.800781 575.515625 292.183594 576.679688 302.070312 C 583.777344 305.210938 582.613281 317.578125 581.699219 321.738281 C 578.152344 337.398438 570.851562 345.003906 568.773438 353.722656 C 568.773438 353.722656 568.316406 342.671875 562.941406 342.671875 C 559.242188 342.621094 537.242188 342.621094 526.34375 342.621094 C 523.554688 342.621094 522.945312 340.238281 522.390625 337.5 C 520.007812 325.640625 519.90625 314.996094 518.789062 313.726562 C 515.34375 309.722656 515.496094 299.992188 527.003906 294.820312 " fill-opacity="1" fill-rule="nonzero"/><path fill="#f7c19c" d="M 521.933594 321.128906 C 522.035156 324.371094 521.628906 329.492188 521.832031 333.191406 C 522.390625 342.519531 523.148438 344.394531 524.570312 350.628906 C 527.660156 364.011719 528.726562 364.972656 532.070312 365.328125 C 542.007812 366.496094 543.78125 365.175781 556.707031 356.914062 C 561.269531 353.976562 562.890625 347.589844 563.449219 343.027344 C 565.273438 344.699219 568.824219 344.191406 569.835938 340.644531 C 571.105469 336.285156 572.421875 335.523438 573.691406 331.773438 C 575.109375 327.363281 571.8125 325.792969 570.597656 325.640625 C 567.65625 325.234375 566.1875 327.515625 564.515625 333.699219 L 561.320312 333.597656 C 561.066406 327.363281 557.417969 323.359375 556.25 321.535156 C 551.839844 314.691406 554.375 311.242188 553.261719 310.535156 C 549.863281 308.40625 543.578125 310.992188 531.210938 311.140625 C 525.835938 311.242188 524.722656 311.09375 522.136719 310.382812 C 521.578125 310.179688 521.730469 312.765625 521.933594 321.128906 " fill-opacity="1" fill-rule="nonzero"/><path fill="#f7c19c" d="M 619.617188 448.207031 C 619.871094 436.546875 619.007812 424.890625 618.601562 413.230469 C 618.347656 405.273438 616.929688 397.058594 607.804688 394.78125 C 597.109375 392.144531 589.554688 401.519531 590.570312 411.40625 C 591.835938 423.773438 593.308594 436.140625 594.574219 448.511719 C 594.980469 452.414062 595.945312 466.605469 595.539062 466.910156 L 590.46875 467.773438 C 582.5625 468.53125 574.652344 469.191406 566.746094 469.75 C 553.820312 470.660156 541.449219 471.574219 528.371094 471.167969 C 524.875 471.066406 520.464844 472.484375 519.957031 476.84375 C 519.398438 481.355469 523.25 484.652344 526.902344 484.753906 C 541.855469 485.058594 552.550781 485.308594 565.324219 486.222656 C 578.554688 487.1875 592.242188 489.367188 605.472656 489.011719 C 620.933594 488.554688 619.058594 474.664062 619.617188 448.207031 " fill-opacity="1" fill-rule="nonzero"/><path fill="#f7c19c" d="M 544.644531 471.828125 C 534.148438 471.523438 529.6875 470.914062 516.054688 470.609375 C 511.59375 470.507812 492.378906 477.148438 487.917969 480.191406 C 483.507812 483.179688 492.328125 484.5 494.660156 484.90625 C 499.78125 485.714844 533.898438 484.90625 543.070312 484.90625 C 546.417969 484.90625 548.800781 481.964844 548.800781 479.125 C 548.800781 472.738281 544.644531 471.828125 544.644531 471.828125 " fill-opacity="1" fill-rule="nonzero"/><path fill="#e4f3f9" d="M 590.164062 442.679688 C 600.40625 444.402344 614.445312 443.542969 621.238281 441.921875 C 621.238281 441.921875 620.328125 421.542969 618.652344 402.433594 C 616.726562 380.535156 609.628906 375.316406 604.714844 374.148438 C 595.234375 371.917969 591.179688 384.589844 589.910156 394.375 C 587.730469 410.542969 589.554688 429.550781 590.164062 442.679688 " fill-opacity="1" fill-rule="nonzero"/><path fill="#414042" d="M 492.683594 492.355469 L 448.785156 492.355469 C 445.183594 492.355469 442.296875 489.464844 442.296875 485.867188 L 442.296875 484.804688 L 492.683594 484.804688 L 492.683594 492.355469 " fill-opacity="1" fill-rule="nonzero"/><path fill="#58595b" d="M 456.335938 411.253906 L 415.734375 411.253906 L 414.363281 413.28125 L 442.296875 483.839844 L 443.664062 484.804688 L 484.269531 484.804688 L 485.636719 482.777344 L 457.707031 412.164062 L 456.335938 411.253906 " fill-opacity="1" fill-rule="nonzero"/><path fill="#39393a" d="M 453.855469 411.253906 L 413.300781 411.253906 L 411.878906 413.28125 L 439.863281 483.839844 L 441.230469 484.804688 L 481.835938 484.804688 L 483.203125 482.777344 L 455.273438 412.164062 L 453.855469 411.253906 " fill-opacity="1" fill-rule="nonzero"/><path fill="#58595b" d="M 491.871094 492.355469 L 548.851562 492.355469 C 552.449219 492.355469 555.339844 489.464844 555.339844 485.867188 L 555.339844 484.804688 L 485.382812 484.804688 L 485.382812 485.867188 C 485.382812 489.464844 488.324219 492.355469 491.871094 492.355469 " fill-opacity="1" fill-rule="nonzero"/><path fill="#dba783" d="M 485.28125 505.382812 C 478.085938 504.269531 476.613281 496.613281 477.121094 492.558594 L 503.632812 492.558594 C 503.632812 492.558594 502.46875 508.121094 485.28125 505.382812 " fill-opacity="1" fill-rule="nonzero"/><path fill="#f7c19c" d="M 514.328125 490.582031 C 513.113281 489.566406 511.945312 490.328125 510.019531 491.394531 L 507.484375 492.457031 C 507.484375 492.457031 508.652344 491.191406 509.261719 489.972656 C 509.664062 489.113281 509.917969 487.589844 508.449219 486.527344 C 507.535156 485.816406 506.574219 485.664062 505.050781 486.324219 L 504.089844 485.308594 C 502.367188 484.144531 499.679688 485.359375 497.804688 486.78125 L 496.636719 485.816406 C 495.523438 485.109375 493.34375 485.359375 488.578125 488.707031 C 485.078125 491.191406 483.304688 492.355469 483.304688 492.355469 L 477.78125 492.355469 C 477.78125 492.355469 477.070312 492.101562 475.09375 488.808594 C 472.253906 484.09375 468.199219 485.816406 468.859375 488.554688 C 470.175781 494.179688 471.597656 495.144531 472.457031 495.652344 C 474.332031 496.714844 477.527344 498.335938 481.074219 499.351562 C 484.117188 500.210938 486.601562 501.480469 491.570312 501.734375 C 498.765625 502.089844 500.390625 501.734375 503.632812 500.515625 C 506.777344 499.300781 511.996094 496.257812 514.328125 494.078125 L 514.328125 490.582031 " fill-opacity="1" fill-rule="nonzero"/><g fill="#ffffff" fill-opacity="1"><g transform="translate(237.667964, 124.432339)"><g><path d="M 28.265625 -51.25 C 32.804688 -51.25 36.75 -50.492188 40.09375 -48.984375 C 43.4375 -47.472656 46.007812 -45.320312 47.8125 -42.53125 C 49.613281 -39.75 50.515625 -36.457031 50.515625 -32.65625 C 50.515625 -28.894531 49.613281 -25.609375 47.8125 -22.796875 C 46.007812 -19.992188 43.4375 -17.847656 40.09375 -16.359375 C 36.75 -14.867188 32.804688 -14.125 28.265625 -14.125 L 17.9375 -14.125 L 17.9375 0 L 6.078125 0 L 6.078125 -51.25 Z M 27.609375 -23.796875 C 31.171875 -23.796875 33.878906 -24.5625 35.734375 -26.09375 C 37.585938 -27.632812 38.515625 -29.820312 38.515625 -32.65625 C 38.515625 -35.53125 37.585938 -37.738281 35.734375 -39.28125 C 33.878906 -40.820312 31.171875 -41.59375 27.609375 -41.59375 L 17.9375 -41.59375 L 17.9375 -23.796875 Z M 27.609375 -23.796875 "/></g></g></g><g fill="#ffffff" fill-opacity="1"><g transform="translate(291.264099, 124.432339)"><g><path d="M 30.890625 0.875 C 25.578125 0.875 20.785156 -0.269531 16.515625 -2.5625 C 12.242188 -4.851562 8.898438 -8.007812 6.484375 -12.03125 C 4.066406 -16.0625 2.859375 -20.59375 2.859375 -25.625 C 2.859375 -30.65625 4.066406 -35.179688 6.484375 -39.203125 C 8.898438 -43.234375 12.242188 -46.394531 16.515625 -48.6875 C 20.785156 -50.976562 25.578125 -52.125 30.890625 -52.125 C 36.210938 -52.125 41 -50.976562 45.25 -48.6875 C 49.5 -46.394531 52.84375 -43.234375 55.28125 -39.203125 C 57.71875 -35.179688 58.9375 -30.65625 58.9375 -25.625 C 58.9375 -20.59375 57.71875 -16.0625 55.28125 -12.03125 C 52.84375 -8.007812 49.5 -4.851562 45.25 -2.5625 C 41 -0.269531 36.210938 0.875 30.890625 0.875 Z M 30.890625 -9.21875 C 33.921875 -9.21875 36.65625 -9.914062 39.09375 -11.3125 C 41.539062 -12.707031 43.457031 -14.648438 44.84375 -17.140625 C 46.238281 -19.628906 46.9375 -22.457031 46.9375 -25.625 C 46.9375 -28.800781 46.238281 -31.632812 44.84375 -34.125 C 43.457031 -36.613281 41.539062 -38.550781 39.09375 -39.9375 C 36.65625 -41.332031 33.921875 -42.03125 30.890625 -42.03125 C 27.867188 -42.03125 25.132812 -41.332031 22.6875 -39.9375 C 20.25 -38.550781 18.332031 -36.613281 16.9375 -34.125 C 15.550781 -31.632812 14.859375 -28.800781 14.859375 -25.625 C 14.859375 -22.457031 15.550781 -19.628906 16.9375 -17.140625 C 18.332031 -14.648438 20.25 -12.707031 22.6875 -11.3125 C 25.132812 -9.914062 27.867188 -9.21875 30.890625 -9.21875 Z M 30.890625 -9.21875 "/></g></g></g><g fill="#ffffff" fill-opacity="1"><g transform="translate(353.060727, 124.432339)"><g><path d="M 22.921875 0.875 C 18.867188 0.875 14.945312 0.328125 11.15625 -0.765625 C 7.375 -1.867188 4.335938 -3.296875 2.046875 -5.046875 L 6.078125 -13.984375 C 8.273438 -12.367188 10.882812 -11.070312 13.90625 -10.09375 C 16.9375 -9.125 19.960938 -8.640625 22.984375 -8.640625 C 26.359375 -8.640625 28.847656 -9.140625 30.453125 -10.140625 C 32.066406 -11.140625 32.875 -12.46875 32.875 -14.125 C 32.875 -15.351562 32.394531 -16.367188 31.4375 -17.171875 C 30.488281 -17.972656 29.269531 -18.617188 27.78125 -19.109375 C 26.289062 -19.597656 24.28125 -20.132812 21.75 -20.71875 C 17.84375 -21.644531 14.644531 -22.570312 12.15625 -23.5 C 9.664062 -24.425781 7.53125 -25.914062 5.75 -27.96875 C 3.96875 -30.019531 3.078125 -32.753906 3.078125 -36.171875 C 3.078125 -39.148438 3.878906 -41.847656 5.484375 -44.265625 C 7.097656 -46.679688 9.523438 -48.59375 12.765625 -50 C 16.015625 -51.414062 19.984375 -52.125 24.671875 -52.125 C 27.941406 -52.125 31.140625 -51.734375 34.265625 -50.953125 C 37.390625 -50.171875 40.125 -49.050781 42.46875 -47.59375 L 38.8125 -38.59375 C 34.070312 -41.269531 29.332031 -42.609375 24.59375 -42.609375 C 21.28125 -42.609375 18.828125 -42.070312 17.234375 -41 C 15.648438 -39.925781 14.859375 -38.507812 14.859375 -36.75 C 14.859375 -35 15.773438 -33.695312 17.609375 -32.84375 C 19.441406 -31.988281 22.238281 -31.144531 26 -30.3125 C 29.894531 -29.382812 33.085938 -28.457031 35.578125 -27.53125 C 38.066406 -26.601562 40.203125 -25.140625 41.984375 -23.140625 C 43.765625 -21.140625 44.65625 -18.429688 44.65625 -15.015625 C 44.65625 -12.078125 43.835938 -9.398438 42.203125 -6.984375 C 40.578125 -4.578125 38.128906 -2.664062 34.859375 -1.25 C 31.585938 0.164062 27.609375 0.875 22.921875 0.875 Z M 22.921875 0.875 "/></g></g></g><g fill="#ffffff" fill-opacity="1"><g transform="translate(399.774295, 124.432339)"><g><path d="M 16.6875 -41.59375 L 0.296875 -41.59375 L 0.296875 -51.25 L 44.953125 -51.25 L 44.953125 -41.59375 L 28.5625 -41.59375 L 28.5625 0 L 16.6875 0 Z M 16.6875 -41.59375 "/></g></g></g><g fill="#ffffff" fill-opacity="1"><g transform="translate(445.023499, 124.432339)"><g><path d="M 45.765625 -9.515625 L 45.765625 0 L 6.078125 0 L 6.078125 -51.25 L 44.8125 -51.25 L 44.8125 -41.734375 L 17.859375 -41.734375 L 17.859375 -30.609375 L 41.65625 -30.609375 L 41.65625 -21.375 L 17.859375 -21.375 L 17.859375 -9.515625 Z M 45.765625 -9.515625 "/></g></g></g><g fill="#ffffff" fill-opacity="1"><g transform="translate(494.153303, 124.432339)"><g><path d="M 38.734375 0 L 28.84375 -14.28125 L 17.9375 -14.28125 L 17.9375 0 L 6.078125 0 L 6.078125 -51.25 L 28.265625 -51.25 C 32.804688 -51.25 36.75 -50.492188 40.09375 -48.984375 C 43.4375 -47.472656 46.007812 -45.320312 47.8125 -42.53125 C 49.613281 -39.75 50.515625 -36.457031 50.515625 -32.65625 C 50.515625 -28.84375 49.597656 -25.554688 47.765625 -22.796875 C 45.941406 -20.046875 43.347656 -17.9375 39.984375 -16.46875 L 51.46875 0 Z M 38.515625 -32.65625 C 38.515625 -35.53125 37.585938 -37.738281 35.734375 -39.28125 C 33.878906 -40.820312 31.171875 -41.59375 27.609375 -41.59375 L 17.9375 -41.59375 L 17.9375 -23.71875 L 27.609375 -23.71875 C 31.171875 -23.71875 33.878906 -24.5 35.734375 -26.0625 C 37.585938 -27.625 38.515625 -29.820312 38.515625 -32.65625 Z M 38.515625 -32.65625 "/></g></g></g><g fill="#ffffff" fill-opacity="1"><g transform="translate(91.265624, 226.432333)"><g><path d="M 28.265625 -51.25 C 32.804688 -51.25 36.75 -50.492188 40.09375 -48.984375 C 43.4375 -47.472656 46.007812 -45.320312 47.8125 -42.53125 C 49.613281 -39.75 50.515625 -36.457031 50.515625 -32.65625 C 50.515625 -28.894531 49.613281 -25.609375 47.8125 -22.796875 C 46.007812 -19.992188 43.4375 -17.847656 40.09375 -16.359375 C 36.75 -14.867188 32.804688 -14.125 28.265625 -14.125 L 17.9375 -14.125 L 17.9375 0 L 6.078125 0 L 6.078125 -51.25 Z M 27.609375 -23.796875 C 31.171875 -23.796875 33.878906 -24.5625 35.734375 -26.09375 C 37.585938 -27.632812 38.515625 -29.820312 38.515625 -32.65625 C 38.515625 -35.53125 37.585938 -37.738281 35.734375 -39.28125 C 33.878906 -40.820312 31.171875 -41.59375 27.609375 -41.59375 L 17.9375 -41.59375 L 17.9375 -23.796875 Z M 27.609375 -23.796875 "/></g></g></g><g fill="#ffffff" fill-opacity="1"><g transform="translate(144.861759, 226.432333)"><g><path d="M 38.734375 0 L 28.84375 -14.28125 L 17.9375 -14.28125 L 17.9375 0 L 6.078125 0 L 6.078125 -51.25 L 28.265625 -51.25 C 32.804688 -51.25 36.75 -50.492188 40.09375 -48.984375 C 43.4375 -47.472656 46.007812 -45.320312 47.8125 -42.53125 C 49.613281 -39.75 50.515625 -36.457031 50.515625 -32.65625 C 50.515625 -28.84375 49.597656 -25.554688 47.765625 -22.796875 C 45.941406 -20.046875 43.347656 -17.9375 39.984375 -16.46875 L 51.46875 0 Z M 38.515625 -32.65625 C 38.515625 -35.53125 37.585938 -37.738281 35.734375 -39.28125 C 33.878906 -40.820312 31.171875 -41.59375 27.609375 -41.59375 L 17.9375 -41.59375 L 17.9375 -23.71875 L 27.609375 -23.71875 C 31.171875 -23.71875 33.878906 -24.5 35.734375 -26.0625 C 37.585938 -27.625 38.515625 -29.820312 38.515625 -32.65625 Z M 38.515625 -32.65625 "/></g></g></g><g fill="#ffffff" fill-opacity="1"><g transform="translate(198.677553, 226.432333)"><g><path d="M 45.765625 -9.515625 L 45.765625 0 L 6.078125 0 L 6.078125 -51.25 L 44.8125 -51.25 L 44.8125 -41.734375 L 17.859375 -41.734375 L 17.859375 -30.609375 L 41.65625 -30.609375 L 41.65625 -21.375 L 17.859375 -21.375 L 17.859375 -9.515625 Z M 45.765625 -9.515625 "/></g></g></g><g fill="#ffffff" fill-opacity="1"><g transform="translate(247.807345, 226.432333)"><g><path d="M 22.921875 0.875 C 18.867188 0.875 14.945312 0.328125 11.15625 -0.765625 C 7.375 -1.867188 4.335938 -3.296875 2.046875 -5.046875 L 6.078125 -13.984375 C 8.273438 -12.367188 10.882812 -11.070312 13.90625 -10.09375 C 16.9375 -9.125 19.960938 -8.640625 22.984375 -8.640625 C 26.359375 -8.640625 28.847656 -9.140625 30.453125 -10.140625 C 32.066406 -11.140625 32.875 -12.46875 32.875 -14.125 C 32.875 -15.351562 32.394531 -16.367188 31.4375 -17.171875 C 30.488281 -17.972656 29.269531 -18.617188 27.78125 -19.109375 C 26.289062 -19.597656 24.28125 -20.132812 21.75 -20.71875 C 17.84375 -21.644531 14.644531 -22.570312 12.15625 -23.5 C 9.664062 -24.425781 7.53125 -25.914062 5.75 -27.96875 C 3.96875 -30.019531 3.078125 -32.753906 3.078125 -36.171875 C 3.078125 -39.148438 3.878906 -41.847656 5.484375 -44.265625 C 7.097656 -46.679688 9.523438 -48.59375 12.765625 -50 C 16.015625 -51.414062 19.984375 -52.125 24.671875 -52.125 C 27.941406 -52.125 31.140625 -51.734375 34.265625 -50.953125 C 37.390625 -50.171875 40.125 -49.050781 42.46875 -47.59375 L 38.8125 -38.59375 C 34.070312 -41.269531 29.332031 -42.609375 24.59375 -42.609375 C 21.28125 -42.609375 18.828125 -42.070312 17.234375 -41 C 15.648438 -39.925781 14.859375 -38.507812 14.859375 -36.75 C 14.859375 -35 15.773438 -33.695312 17.609375 -32.84375 C 19.441406 -31.988281 22.238281 -31.144531 26 -30.3125 C 29.894531 -29.382812 33.085938 -28.457031 35.578125 -27.53125 C 38.066406 -26.601562 40.203125 -25.140625 41.984375 -23.140625 C 43.765625 -21.140625 44.65625 -18.429688 44.65625 -15.015625 C 44.65625 -12.078125 43.835938 -9.398438 42.203125 -6.984375 C 40.578125 -4.578125 38.128906 -2.664062 34.859375 -1.25 C 31.585938 0.164062 27.609375 0.875 22.921875 0.875 Z M 22.921875 0.875 "/></g></g></g><g fill="#ffffff" fill-opacity="1"><g transform="translate(294.520924, 226.432333)"><g><path d="M 45.765625 -9.515625 L 45.765625 0 L 6.078125 0 L 6.078125 -51.25 L 44.8125 -51.25 L 44.8125 -41.734375 L 17.859375 -41.734375 L 17.859375 -30.609375 L 41.65625 -30.609375 L 41.65625 -21.375 L 17.859375 -21.375 L 17.859375 -9.515625 Z M 45.765625 -9.515625 "/></g></g></g><g fill="#ffffff" fill-opacity="1"><g transform="translate(343.650728, 226.432333)"><g><path d="M 53.078125 -51.25 L 53.078125 0 L 43.34375 0 L 17.796875 -31.125 L 17.796875 0 L 6.078125 0 L 6.078125 -51.25 L 15.890625 -51.25 L 41.375 -20.140625 L 41.375 -51.25 Z M 53.078125 -51.25 "/></g></g></g><g fill="#ffffff" fill-opacity="1"><g transform="translate(402.811484, 226.432333)"><g><path d="M 16.6875 -41.59375 L 0.296875 -41.59375 L 0.296875 -51.25 L 44.953125 -51.25 L 44.953125 -41.59375 L 28.5625 -41.59375 L 28.5625 0 L 16.6875 0 Z M 16.6875 -41.59375 "/></g></g></g><g fill="#ffffff" fill-opacity="1"><g transform="translate(448.060665, 226.432333)"><g><path d="M 39.828125 -10.984375 L 16.03125 -10.984375 L 11.5 0 L -0.65625 0 L 22.1875 -51.25 L 33.90625 -51.25 L 56.8125 0 L 44.375 0 Z M 36.09375 -19.984375 L 27.96875 -39.609375 L 19.84375 -19.984375 Z M 36.09375 -19.984375 "/></g></g></g><g fill="#ffffff" fill-opacity="1"><g transform="translate(504.146234, 226.432333)"><g><path d="M 16.6875 -41.59375 L 0.296875 -41.59375 L 0.296875 -51.25 L 44.953125 -51.25 L 44.953125 -41.59375 L 28.5625 -41.59375 L 28.5625 0 L 16.6875 0 Z M 16.6875 -41.59375 "/></g></g></g><g fill="#ffffff" fill-opacity="1"><g transform="translate(549.395438, 226.432333)"><g><path d="M 6.078125 -51.25 L 17.9375 -51.25 L 17.9375 0 L 6.078125 0 Z M 6.078125 -51.25 "/></g></g></g><g fill="#ffffff" fill-opacity="1"><g transform="translate(573.411184, 226.432333)"><g><path d="M 30.890625 0.875 C 25.578125 0.875 20.785156 -0.269531 16.515625 -2.5625 C 12.242188 -4.851562 8.898438 -8.007812 6.484375 -12.03125 C 4.066406 -16.0625 2.859375 -20.59375 2.859375 -25.625 C 2.859375 -30.65625 4.066406 -35.179688 6.484375 -39.203125 C 8.898438 -43.234375 12.242188 -46.394531 16.515625 -48.6875 C 20.785156 -50.976562 25.578125 -52.125 30.890625 -52.125 C 36.210938 -52.125 41 -50.976562 45.25 -48.6875 C 49.5 -46.394531 52.84375 -43.234375 55.28125 -39.203125 C 57.71875 -35.179688 58.9375 -30.65625 58.9375 -25.625 C 58.9375 -20.59375 57.71875 -16.0625 55.28125 -12.03125 C 52.84375 -8.007812 49.5 -4.851562 45.25 -2.5625 C 41 -0.269531 36.210938 0.875 30.890625 0.875 Z M 30.890625 -9.21875 C 33.921875 -9.21875 36.65625 -9.914062 39.09375 -11.3125 C 41.539062 -12.707031 43.457031 -14.648438 44.84375 -17.140625 C 46.238281 -19.628906 46.9375 -22.457031 46.9375 -25.625 C 46.9375 -28.800781 46.238281 -31.632812 44.84375 -34.125 C 43.457031 -36.613281 41.539062 -38.550781 39.09375 -39.9375 C 36.65625 -41.332031 33.921875 -42.03125 30.890625 -42.03125 C 27.867188 -42.03125 25.132812 -41.332031 22.6875 -39.9375 C 20.25 -38.550781 18.332031 -36.613281 16.9375 -34.125 C 15.550781 -31.632812 14.859375 -28.800781 14.859375 -25.625 C 14.859375 -22.457031 15.550781 -19.628906 16.9375 -17.140625 C 18.332031 -14.648438 20.25 -12.707031 22.6875 -11.3125 C 25.132812 -9.914062 27.867188 -9.21875 30.890625 -9.21875 Z M 30.890625 -9.21875 "/></g></g></g><g fill="#ffffff" fill-opacity="1"><g transform="translate(635.207812, 226.432333)"><g><path d="M 53.078125 -51.25 L 53.078125 0 L 43.34375 0 L 17.796875 -31.125 L 17.796875 0 L 6.078125 0 L 6.078125 -51.25 L 15.890625 -51.25 L 41.375 -20.140625 L 41.375 -51.25 Z M 53.078125 -51.25 "/></g></g></g></svg>