<svg xmlns="http://www.w3.org/2000/svg" xmlns:xlink="http://www.w3.org/1999/xlink" width="1080" zoomAndPan="magnify" viewBox="0 0 810 809.999993" height="1080" preserveAspectRatio="xMidYMid meet" version="1.0"><defs><g/><clipPath id="d3da59f719"><path d="M 640 773.375 L 691.476562 773.375 L 691.476562 809.382812 L 640 809.382812 Z M 640 773.375 " clip-rule="nonzero"/></clipPath></defs><rect x="-81" width="972" fill="#ffffff" y="-80.999999" height="971.999992" fill-opacity="1"/><rect x="-81" width="972" fill="#545454" y="-80.999999" height="971.999992" fill-opacity="1"/><path fill="#955147" d="M 808.066406 393.660156 L 760.152344 424.71875 C 758.660156 425.683594 756.671875 425.257812 755.707031 423.769531 L 712.285156 356.730469 C 711.320312 355.242188 711.746094 353.25 713.234375 352.289062 L 761.152344 321.230469 C 762.640625 320.265625 764.628906 320.6875 765.589844 322.175781 L 809.019531 389.21875 C 809.984375 390.707031 809.558594 392.695312 808.066406 393.660156 " fill-opacity="1" fill-rule="nonzero"/><path fill="#fdecde" d="M 801.683594 392.210938 L 761.441406 418.292969 C 759.953125 419.257812 757.964844 418.832031 757.003906 417.34375 L 718.675781 358.179688 C 717.710938 356.6875 718.132812 354.699219 719.625 353.734375 L 759.863281 327.652344 C 761.355469 326.6875 763.34375 327.113281 764.308594 328.601562 L 802.628906 387.765625 C 803.597656 389.253906 803.171875 391.246094 801.683594 392.210938 " fill-opacity="1" fill-rule="nonzero"/><path fill="#b39899" d="M 752.875 328.121094 C 755.425781 332.0625 756.558594 335.351562 742.511719 344.964844 C 729.648438 353.769531 725.464844 351.480469 722.914062 347.542969 C 720.355469 343.605469 724.996094 336.0625 733.273438 330.699219 C 741.550781 325.339844 750.324219 324.183594 752.875 328.121094 " fill-opacity="1" fill-rule="nonzero"/><path fill="#2d253e" d="M 614.085938 802.273438 C 612.132812 805.917969 564.960938 810.378906 563.894531 804.925781 C 561.980469 795.164062 581.265625 790.417969 586.832031 787.722656 C 588.347656 786.980469 591.636719 785.261719 592.8125 783.449219 C 595.972656 778.585938 597.816406 771.589844 597.816406 771.589844 L 614.085938 776.679688 C 614.085938 776.679688 614.230469 778.300781 614.394531 780.722656 C 614.863281 787.246094 615.515625 799.601562 614.085938 802.273438 " fill-opacity="1" fill-rule="nonzero"/><path fill="#f0a77f" d="M 614.394531 780.722656 C 611.234375 782.074219 607.582031 783.335938 604.148438 783.832031 C 598.871094 784.59375 595.238281 784.171875 592.8125 783.449219 C 595.976562 778.585938 597.820312 771.589844 597.820312 771.589844 L 614.085938 776.679688 C 614.085938 776.679688 614.230469 778.300781 614.394531 780.722656 " fill-opacity="1" fill-rule="nonzero"/><g clip-path="url(#d3da59f719)"><path fill="#2d253e" d="M 690.441406 804.183594 C 688.492188 807.824219 641.324219 812.289062 640.25 806.835938 C 638.335938 797.066406 658.222656 792.214844 663.789062 789.527344 C 665.308594 788.785156 667.992188 787.167969 669.167969 785.359375 C 672.328125 780.492188 674.179688 773.492188 674.179688 773.492188 L 690.441406 778.585938 C 690.441406 778.585938 690.585938 780.207031 690.75 782.628906 C 691.21875 789.152344 691.871094 801.511719 690.441406 804.183594 " fill-opacity="1" fill-rule="nonzero"/></g><path fill="#f0a77f" d="M 690.75 782.628906 C 687.589844 783.984375 683.941406 785.242188 680.503906 785.742188 C 675.222656 786.503906 671.597656 786.082031 669.171875 785.359375 C 672.332031 780.492188 674.179688 773.492188 674.179688 773.492188 L 689.996094 775.886719 C 689.996094 775.886719 690.585938 780.207031 690.75 782.628906 " fill-opacity="1" fill-rule="nonzero"/><path fill="#ca5043" d="M 689.144531 778.433594 L 669.367188 778.433594 C 667.28125 778.433594 665.519531 776.886719 665.242188 774.820312 L 642.605469 607.039062 C 642.28125 604.84375 639.15625 604.785156 638.914062 606.980469 C 636.839844 626.109375 634.363281 644.503906 632.074219 670.730469 C 630.207031 692.222656 621.261719 758.234375 619.300781 774.765625 C 619.046875 776.859375 617.273438 778.433594 615.167969 778.433594 L 596.9375 778.433594 C 594.664062 778.433594 592.820312 776.628906 592.777344 774.355469 C 592.488281 757.339844 591.496094 691.480469 592.8125 662.679688 C 593.644531 644.347656 595.285156 585.328125 598.484375 553.148438 C 599.316406 544.742188 601.039062 541.410156 601.417969 537.539062 C 601.617188 535.484375 603.292969 533.894531 605.351562 533.792969 L 648.136719 531.699219 L 676.589844 530.3125 C 678.828125 530.203125 680.746094 531.878906 680.933594 534.113281 C 681.328125 538.8125 682.039062 547.355469 682.886719 558.136719 C 682.945312 558.820312 682.976562 559.527344 683.054688 560.234375 C 686.4375 592.238281 688.992188 641.808594 689.386719 671.121094 C 689.679688 694.703125 692.511719 757.070312 693.296875 774.089844 C 693.40625 776.460938 691.515625 778.433594 689.144531 778.433594 " fill-opacity="1" fill-rule="nonzero"/><path fill="#f0a77f" d="M 725.988281 415.351562 C 725.988281 414.671875 728.703125 402.46875 728.703125 402.46875 C 728.703125 402.46875 728.15625 395.902344 728.15625 390.9375 C 728.15625 385.972656 730.621094 380.835938 734.722656 378.03125 C 739.414062 374.824219 745.554688 374.898438 744.65625 377.796875 C 743.75 380.695312 737.511719 385.296875 737.511719 385.296875 C 737.511719 385.296875 741.808594 390.9375 741.808594 397.046875 C 741.808594 400.441406 747.707031 408.160156 746.589844 412.753906 C 745.996094 415.1875 742.109375 419.796875 740.296875 423.1875 C 738.488281 426.574219 736.292969 431.320312 735.476562 431.320312 C 734.671875 431.320312 725.988281 415.351562 725.988281 415.351562 " fill-opacity="1" fill-rule="nonzero"/><path fill="#f0a77f" d="M 536.828125 425.703125 C 536.828125 425.703125 530.804688 417.417969 530.652344 416.515625 C 530.503906 415.609375 530.882812 409.28125 529.984375 402.050781 C 529.082031 394.816406 511.980469 393.914062 508.210938 393.914062 C 504.449219 393.914062 479.886719 395.339844 479.285156 397.296875 C 478.679688 399.257812 478.527344 401.214844 481.542969 401.515625 C 484.558594 401.816406 499.613281 404.226562 501.417969 404.53125 C 503.230469 404.832031 501.925781 411.382812 504.621094 416.074219 C 507.175781 420.515625 513.417969 425.339844 516.5 425.703125 C 519.082031 426.007812 526.589844 441.371094 526.589844 441.371094 L 538.183594 433.6875 L 536.828125 425.703125 " fill-opacity="1" fill-rule="nonzero"/><path fill="#2d253e" d="M 586.988281 311.960938 C 586.878906 312.296875 594.332031 346.648438 594.332031 346.648438 L 604.609375 318.285156 C 604.609375 318.285156 603.773438 308.230469 601.820312 308.34375 C 599.867188 308.457031 586.988281 311.960938 586.988281 311.960938 " fill-opacity="1" fill-rule="nonzero"/><path fill="#2d253e" d="M 643.660156 308.796875 C 643.660156 308.796875 644.785156 320.273438 644.253906 327.96875 C 643.9375 332.632812 641.695312 344.917969 639.589844 351.328125 C 636.464844 360.824219 635.144531 358.328125 633.1875 358.476562 C 631.226562 358.628906 630.929688 353.214844 630.929688 353.214844 L 630.015625 310.867188 L 643.660156 308.796875 " fill-opacity="1" fill-rule="nonzero"/><path fill="#f0a77f" d="M 645.832031 385.367188 L 625.066406 390.9375 L 621.734375 388.386719 L 617.074219 374.9375 L 612.703125 362.316406 C 612.703125 362.316406 620.832031 338.8125 622.046875 338.363281 C 623.253906 337.910156 634.246094 343.859375 634.246094 343.859375 L 637.96875 357.183594 L 645.832031 385.367188 " fill-opacity="1" fill-rule="nonzero"/><path fill="#e69060" d="M 637.066406 353.964844 C 636.84375 356.027344 635.019531 361.617188 634.246094 362.921875 C 631.550781 367.457031 628.820312 370.761719 623.707031 373.164062 C 621.578125 374.160156 619.1875 374.703125 617.074219 374.9375 L 612.699219 362.316406 C 612.699219 362.316406 620.835938 338.8125 622.046875 338.363281 C 623.253906 337.910156 634.246094 343.859375 634.246094 343.859375 L 637.066406 353.964844 " fill-opacity="1" fill-rule="nonzero"/><path fill="#f0a77f" d="M 643.65625 337.214844 C 641.707031 341.390625 636.785156 344.0625 636.785156 344.0625 C 636.785156 344.0625 636.515625 345.636719 635.082031 351.242188 C 633.640625 356.863281 620.945312 368.9375 613.710938 369.734375 C 606.15625 370.566406 597.890625 357.0625 596.320312 353.414062 C 594.746094 349.742188 591.601562 340.9375 591.601562 333.21875 C 591.601562 331.101562 591.566406 327.484375 591.566406 325.027344 C 591.566406 323.742188 591.566406 322.785156 591.601562 322.515625 L 591.601562 322.460938 C 592.777344 311.773438 593.941406 312.453125 600.042969 309.777344 C 604.425781 307.855469 603.222656 303.167969 608.449219 300.820312 C 613.667969 298.46875 623.863281 302.644531 631.292969 308.917969 C 638.738281 315.191406 637.039062 327.867188 637.039062 327.867188 C 637.039062 327.867188 638.78125 323.65625 643.058594 324.863281 C 645.410156 325.53125 645.613281 333.039062 643.65625 337.214844 " fill-opacity="1" fill-rule="nonzero"/><path fill="#2d253e" d="M 596.960938 333.800781 L 598.1875 333.675781 C 598.6875 333.625 599.054688 333.179688 599 332.679688 L 598.710938 329.730469 C 598.65625 329.230469 598.210938 328.867188 597.710938 328.914062 L 596.484375 329.039062 C 595.984375 329.085938 595.621094 329.535156 595.667969 330.035156 L 595.964844 332.980469 C 596.011719 333.484375 596.457031 333.847656 596.960938 333.800781 " fill-opacity="1" fill-rule="nonzero"/><path fill="#2d253e" d="M 615.632812 331.3125 L 616.859375 331.191406 C 617.363281 331.140625 617.726562 330.691406 617.675781 330.191406 L 617.382812 327.246094 C 617.332031 326.746094 616.886719 326.378906 616.382812 326.429688 L 615.160156 326.550781 C 614.660156 326.601562 614.292969 327.046875 614.34375 327.550781 L 614.640625 330.496094 C 614.691406 330.996094 615.136719 331.363281 615.632812 331.3125 " fill-opacity="1" fill-rule="nonzero"/><path fill="#2d253e" d="M 598.035156 322.984375 C 597.707031 323.601562 594.890625 324.160156 593.371094 324.667969 C 592.988281 324.773438 592.089844 324.917969 591.566406 325.027344 C 591.566406 323.746094 591.566406 322.785156 591.601562 322.515625 L 591.601562 322.460938 C 591.941406 322.386719 592.753906 322.207031 592.882812 322.152344 C 595.648438 321.484375 596.839844 321.320312 597.855469 321.84375 C 598.125 321.992188 598.339844 322.371094 598.035156 322.984375 " fill-opacity="1" fill-rule="nonzero"/><path fill="#2d253e" d="M 611.375 319.894531 C 612.226562 319.128906 613.523438 318.882812 616.339844 319.09375 C 619.152344 319.300781 621.082031 319.769531 620.804688 320.730469 C 620.628906 321.347656 618.015625 321.613281 616.425781 321.496094 C 614.832031 321.378906 611.953125 321.558594 611.5 321.03125 C 611.046875 320.503906 611.148438 320.097656 611.375 319.894531 " fill-opacity="1" fill-rule="nonzero"/><path fill="#e69060" d="M 606.152344 345.855469 C 606.035156 345.855469 605.914062 345.832031 605.796875 345.789062 C 603.6875 344.929688 600.25 343.191406 600.980469 341.203125 C 601.519531 339.734375 604.582031 333.746094 604.710938 333.492188 C 604.949219 333.03125 605.519531 332.847656 605.972656 333.085938 C 606.4375 333.320312 606.621094 333.886719 606.386719 334.347656 C 605.515625 336.050781 603.152344 340.722656 602.738281 341.851562 C 602.902344 342.195312 604.691406 343.3125 606.507812 344.046875 C 606.984375 344.242188 607.21875 344.789062 607.019531 345.269531 C 606.871094 345.636719 606.523438 345.855469 606.152344 345.855469 " fill-opacity="1" fill-rule="nonzero"/><path fill="#d65345" d="M 618.660156 349.757812 C 618.640625 351.242188 616.839844 355.542969 612.046875 356.863281 C 606.839844 358.289062 602.828125 354.746094 602.917969 352.632812 C 602.917969 352.613281 602.917969 352.613281 602.917969 352.59375 C 603.027344 351.039062 618.410156 348.382812 618.640625 349.503906 C 618.660156 349.578125 618.660156 349.667969 618.660156 349.757812 " fill-opacity="1" fill-rule="nonzero"/><path fill="#ffffff" d="M 618.660156 349.757812 C 616.796875 351.257812 614.125 352.703125 610.796875 353.210938 C 607.957031 353.644531 605.039062 353.335938 602.917969 352.632812 C 602.917969 352.613281 602.917969 352.613281 602.917969 352.59375 C 603.027344 351.039062 618.410156 348.382812 618.640625 349.503906 C 618.660156 349.578125 618.660156 349.667969 618.660156 349.757812 " fill-opacity="1" fill-rule="nonzero"/><path fill="#2d253e" d="M 637.035156 327.867188 C 636.285156 329.46875 635.332031 334.5625 634.429688 334.449219 C 633.527344 334.335938 633.371094 323.199219 632.230469 319.023438 C 630.011719 310.945312 625.054688 309.023438 625.054688 309.023438 C 625.054688 309.023438 613.324219 307.367188 603.984375 308.796875 C 596.390625 309.960938 585.558594 317.535156 578.664062 307.933594 C 571.777344 298.328125 577.835938 297.535156 583.503906 297.824219 C 589.660156 298.136719 602.828125 287.066406 617.066406 287.289062 C 631.316406 287.515625 638.390625 292.429688 642.261719 302.960938 C 646.585938 314.710938 639.734375 322.105469 637.035156 327.867188 " fill-opacity="1" fill-rule="nonzero"/><path fill="#fdecde" d="M 668.824219 531.277344 C 668.824219 531.277344 651.191406 537.378906 638.113281 538.070312 C 616.878906 539.199219 612.691406 535.574219 612.691406 535.574219 L 613.035156 485.296875 L 613.703125 383.929688 L 618.285156 378.410156 C 618.285156 378.410156 624.625 381.453125 630.964844 380.101562 C 637.289062 378.734375 642.242188 372.484375 642.242188 372.484375 L 659.875 385.375 L 665.9375 484.261719 L 668.824219 531.277344 " fill-opacity="1" fill-rule="nonzero"/><path fill="#f2d9c4" d="M 668.824219 531.277344 C 668.824219 531.277344 651.191406 537.378906 638.113281 538.070312 C 616.878906 539.199219 612.691406 535.574219 612.691406 535.574219 L 613.035156 485.296875 L 613.703125 485.632812 C 613.703125 486.574219 621.886719 498.125 636.886719 497.78125 C 650.019531 497.480469 660.75 478.242188 660.75 478.242188 C 660.875 478.117188 661.085938 478.207031 661.101562 478.382812 L 668.824219 531.277344 " fill-opacity="1" fill-rule="nonzero"/><path fill="#2d253e" d="M 598.953125 541.605469 C 599.273438 542.378906 610.277344 548.074219 634.789062 546.546875 C 659.300781 545.019531 675.367188 539.003906 675.367188 539.003906 L 674.085938 528.390625 C 674.085938 528.390625 655.121094 536.988281 638.414062 537.636719 C 609.996094 538.738281 601.957031 534.824219 601.957031 534.824219 L 598.007812 541.464844 L 598.953125 541.605469 " fill-opacity="1" fill-rule="nonzero"/><path fill="#ca5043" d="M 616.878906 563.820312 C 614.851562 563.820312 592.183594 549.707031 591.058594 547.457031 C 589.933594 545.183594 591.566406 505.507812 591.566406 500.894531 C 591.585938 487.886719 592.539062 463.769531 592.539062 463.769531 C 592.539062 463.769531 577.28125 494.082031 570.722656 495.804688 C 568.195312 496.46875 553.15625 486.835938 545.859375 478.183594 C 537.695312 468.523438 525.289062 449.824219 520.511719 443.515625 C 519.757812 442.515625 519.667969 441.183594 520.285156 440.09375 C 523.28125 434.789062 531.953125 419.523438 532.449219 419.492188 C 533.046875 419.472656 559.878906 455.585938 563.78125 454.03125 C 567.699219 452.492188 584.867188 409.25 589.761719 402.472656 C 592.691406 398.417969 602.351562 390.574219 609.636719 384.945312 L 610.53125 384.25 C 613.855469 381.699219 616.554688 379.6875 617.703125 378.84375 L 618.285156 378.414062 C 618.285156 378.414062 618.265625 390.761719 618.304688 406.957031 L 618.304688 408.648438 C 618.320312 423.382812 618.359375 440.949219 618.472656 455.34375 C 618.527344 461.292969 618.585938 466.695312 618.660156 471.125 C 619.109375 498.640625 618.902344 563.820312 616.878906 563.820312 " fill-opacity="1" fill-rule="nonzero"/><path fill="#ca5043" d="M 744.136719 432.777344 C 744.894531 433.941406 744.957031 435.40625 744.296875 436.625 C 739.273438 445.890625 717.140625 485.003906 707.515625 481.253906 C 695.480469 476.5625 684.101562 455.378906 684.101562 455.378906 C 684.101562 455.378906 690.121094 542.933594 688.753906 544.527344 C 687.398438 546.105469 661.605469 562.019531 657.308594 562.246094 C 653.332031 562.449219 654.027344 480.210938 652.335938 450.445312 L 652.320312 450.425781 C 652.207031 448.097656 652.050781 446.109375 651.882812 444.496094 C 650.894531 434.546875 648.867188 419.195312 646.933594 405.214844 C 646.835938 404.480469 646.726562 403.75 646.632812 403.035156 C 644.480469 387.496094 642.484375 374.132812 642.261719 372.632812 L 642.242188 372.480469 C 642.242188 372.480469 646.425781 374.019531 652.226562 376.441406 C 662.730469 380.8125 678.527344 388.078125 684.195312 394.328125 C 693.011719 404.050781 707.003906 444.738281 709.503906 444.269531 C 711.980469 443.820312 727.515625 408.5625 727.515625 407.867188 C 727.515625 407.300781 740.121094 426.605469 744.136719 432.777344 " fill-opacity="1" fill-rule="nonzero"/><path fill="#fdecde" d="M 617.070312 374.9375 C 617.070312 374.9375 624.425781 376.085938 624.878906 376.539062 C 625.335938 376.988281 629.261719 383.261719 629.261719 383.261719 L 619.808594 380.324219 L 618.273438 378.410156 L 617.070312 374.9375 " fill-opacity="1" fill-rule="nonzero"/><path fill="#fdecde" d="M 628.457031 382.355469 C 628.457031 382.355469 628.566406 376.085938 629.265625 375.519531 C 630.347656 374.640625 640.949219 367.878906 640.949219 367.878906 L 642.238281 372.484375 L 636.378906 382.355469 L 628.457031 382.355469 " fill-opacity="1" fill-rule="nonzero"/><path fill="#b9362a" d="M 591.566406 462.644531 C 591.09375 462.644531 590.691406 462.292969 590.636719 461.8125 C 590.613281 461.621094 588.351562 442.359375 588.597656 428.839844 C 588.832031 416.226562 590.621094 403.371094 590.636719 403.242188 C 590.710938 402.726562 591.195312 402.371094 591.699219 402.445312 C 592.210938 402.515625 592.566406 402.992188 592.492188 403.503906 C 592.480469 403.632812 590.699219 416.378906 590.476562 428.875 C 590.230469 442.265625 592.480469 461.402344 592.5 461.59375 C 592.558594 462.105469 592.191406 462.574219 591.675781 462.636719 C 591.644531 462.640625 591.601562 462.644531 591.566406 462.644531 " fill-opacity="1" fill-rule="nonzero"/><path fill="#b9362a" d="M 683.597656 452.476562 C 683.101562 452.476562 682.683594 452.085938 682.660156 451.585938 L 679.867188 395.058594 C 679.847656 394.539062 680.242188 394.097656 680.761719 394.074219 C 681.261719 394.050781 681.71875 394.449219 681.746094 394.964844 L 684.53125 451.492188 C 684.558594 452.011719 684.164062 452.453125 683.644531 452.476562 C 683.625 452.476562 683.609375 452.476562 683.597656 452.476562 " fill-opacity="1" fill-rule="nonzero"/><path fill="#b9362a" d="M 618.300781 408.648438 L 618.285156 408.683594 L 604.390625 407.164062 L 609.632812 384.945312 L 610.53125 384.25 L 617.699219 378.84375 L 618.285156 378.414062 C 618.285156 378.414062 618.269531 391.625 618.300781 408.648438 " fill-opacity="1" fill-rule="nonzero"/><path fill="#b9362a" d="M 618.449219 451.539062 L 603.824219 416.542969 L 610.820312 407.867188 L 618.300781 408.648438 L 618.300781 411.621094 C 618.324219 426.351562 618.332031 437.144531 618.449219 451.539062 " fill-opacity="1" fill-rule="nonzero"/><path fill="#b9362a" d="M 660.929688 402.828125 L 646.933594 405.214844 C 644.660156 388.753906 642.507812 374.210938 642.257812 372.632812 L 642.242188 372.484375 C 642.242188 372.484375 646.421875 374.019531 652.222656 376.441406 L 660.929688 402.828125 " fill-opacity="1" fill-rule="nonzero"/><path fill="#b9362a" d="M 662.925781 411.96875 L 652.339844 450.441406 L 652.316406 450.421875 C 652.207031 448.097656 652.058594 446.109375 651.890625 444.492188 C 650.894531 434.546875 648.867188 419.195312 646.9375 405.210938 C 646.839844 404.480469 646.730469 403.746094 646.636719 403.035156 L 653.066406 403.371094 L 662.925781 411.96875 " fill-opacity="1" fill-rule="nonzero"/><path fill="#f2d9c4" d="M 631.03125 386.339844 C 631.03125 387.601562 630.011719 388.625 628.742188 388.625 C 627.476562 388.625 626.457031 387.601562 626.457031 386.339844 C 626.457031 385.074219 627.476562 384.050781 628.742188 384.050781 C 630.011719 384.050781 631.03125 385.074219 631.03125 386.339844 " fill-opacity="1" fill-rule="nonzero"/><path fill="#f2d9c4" d="M 632.839844 408.683594 C 632.839844 409.949219 631.8125 410.972656 630.550781 410.972656 C 629.285156 410.972656 628.261719 409.949219 628.261719 408.683594 C 628.261719 407.421875 629.285156 406.398438 630.550781 406.398438 C 631.8125 406.398438 632.839844 407.421875 632.839844 408.683594 " fill-opacity="1" fill-rule="nonzero"/><path fill="#f2d9c4" d="M 634.363281 433.605469 C 634.363281 434.871094 633.339844 435.894531 632.078125 435.894531 C 630.8125 435.894531 629.789062 434.871094 629.789062 433.605469 C 629.789062 432.34375 630.8125 431.320312 632.078125 431.320312 C 633.339844 431.320312 634.363281 432.34375 634.363281 433.605469 " fill-opacity="1" fill-rule="nonzero"/><path fill="#f2d9c4" d="M 635.601562 457.671875 C 635.601562 458.933594 634.578125 459.957031 633.320312 459.957031 C 632.054688 459.957031 631.03125 458.933594 631.03125 457.671875 C 631.03125 456.40625 632.054688 455.382812 633.320312 455.382812 C 634.578125 455.382812 635.601562 456.40625 635.601562 457.671875 " fill-opacity="1" fill-rule="nonzero"/><path fill="#f2d9c4" d="M 636.652344 485.234375 C 636.652344 486.5 635.625 487.523438 634.363281 487.523438 C 633.101562 487.523438 632.074219 486.5 632.074219 485.234375 C 632.074219 483.972656 633.101562 482.949219 634.363281 482.949219 C 635.625 482.949219 636.652344 483.972656 636.652344 485.234375 " fill-opacity="1" fill-rule="nonzero"/><path fill="#b9362a" d="M 640.160156 603.5625 C 639.828125 603.5625 639.507812 603.390625 639.332031 603.078125 L 623.058594 573.671875 C 622.808594 573.21875 622.964844 572.648438 623.421875 572.398438 C 623.878906 572.148438 624.445312 572.308594 624.699219 572.761719 L 640.976562 602.171875 C 641.226562 602.621094 641.0625 603.195312 640.613281 603.445312 C 640.464844 603.523438 640.308594 603.5625 640.160156 603.5625 " fill-opacity="1" fill-rule="nonzero"/><path fill="#f0a77f" d="M 206.757812 471.558594 L 213.125 484.109375 C 213.125 484.109375 198.824219 490.441406 198.160156 490.441406 C 197.496094 490.441406 196.675781 469.914062 196.675781 469.914062 L 206.757812 471.558594 " fill-opacity="1" fill-rule="nonzero"/><path fill="#f0a77f" d="M 81.90625 352.472656 L 77.058594 344.914062 C 77.058594 344.914062 76.6875 339.980469 75.382812 334.382812 C 74.074219 328.792969 55.996094 283.289062 55.996094 283.289062 C 55.996094 283.289062 59.480469 281.296875 60.886719 277.78125 C 61.847656 275.378906 63.371094 257.839844 58.710938 258.308594 C 55.367188 258.640625 53.773438 244.933594 46.894531 241.964844 C 38 238.121094 35.917969 249.667969 35.582031 255.179688 C 35.226562 261.007812 36.253906 266.230469 38.65625 274.902344 C 39.683594 278.597656 43.320312 284.414062 43.320312 284.414062 C 43.320312 284.414062 50.589844 337.066406 53.386719 343.371094 C 56.179688 349.675781 56.742188 350.148438 56.742188 350.148438 L 57.742188 363.476562 L 81.90625 352.472656 " fill-opacity="1" fill-rule="nonzero"/><path fill="#f0a77f" d="M 156.398438 373.9375 L 153.328125 391.109375 L 152.078125 398.078125 L 150.472656 413.914062 L 130.386719 411.230469 L 126.417969 395.660156 L 130.570312 374.496094 L 131.722656 368.570312 L 131.761719 368.363281 L 131.914062 368.40625 L 156.398438 373.9375 " fill-opacity="1" fill-rule="nonzero"/><path fill="#e69060" d="M 156.398438 373.9375 L 153.328125 391.109375 C 148.988281 390.152344 144.558594 388.828125 141.425781 387.046875 C 135.980469 383.988281 132.402344 378.234375 130.570312 374.496094 L 131.722656 368.570312 L 131.914062 368.40625 L 156.398438 373.9375 " fill-opacity="1" fill-rule="nonzero"/><path fill="#fdecde" d="M 114.894531 480.699219 C 119.640625 482.554688 124.761719 483.773438 130.183594 484 C 136.488281 484.28125 141.949219 483.90625 146.636719 483.117188 C 148.589844 471.125 152.71875 439.839844 153.675781 429.328125 C 154.742188 417.277344 153.015625 392.863281 153.015625 392.863281 C 152.660156 392.636719 149.527344 393.203125 140.335938 391.117188 C 131.140625 389.015625 128.664062 384.210938 128.664062 384.210938 C 128.664062 384.210938 123.1875 432.144531 117.257812 466.546875 C 116.394531 471.539062 115.605469 476.265625 114.894531 480.699219 " fill-opacity="1" fill-rule="nonzero"/><path fill="#955147" d="M 108.347656 377.394531 C 104.59375 375.261719 85.980469 353.320312 84.574219 350.824219 C 83.167969 348.308594 70.820312 350.035156 65.8125 352.847656 C 60.804688 355.664062 56.28125 362.78125 58.460938 366.023438 C 60.65625 369.269531 73.46875 396.484375 76.921875 403.675781 C 80.355469 410.878906 86.132812 419.441406 86.449219 421.933594 C 86.621094 423.214844 85.90625 440.0625 85.082031 458.042969 C 88.363281 461.929688 92.585938 466.320312 97.578125 470.375 C 102.585938 474.445312 108.402344 478.164062 114.894531 480.699219 C 115.605469 476.265625 116.394531 471.539062 117.257812 466.546875 C 123.1875 432.144531 128.664062 384.210938 128.664062 384.210938 C 128.664062 384.210938 112.097656 379.558594 108.347656 377.394531 " fill-opacity="1" fill-rule="nonzero"/><path fill="#955147" d="M 180.578125 406.65625 C 178.066406 399.773438 153.015625 392.863281 153.015625 392.863281 C 153.015625 392.863281 154.742188 417.277344 153.675781 429.328125 C 152.71875 439.839844 148.589844 471.125 146.636719 483.117188 C 150.671875 482.460938 154.125 481.503906 157.089844 480.378906 C 162.625 478.3125 166.414062 475.742188 168.816406 473.660156 C 170.597656 463.636719 173.636719 448.734375 175.308594 440.273438 C 177.445312 429.328125 183.074219 413.527344 180.578125 406.65625 " fill-opacity="1" fill-rule="nonzero"/><path fill="#f2d9c4" d="M 145.945312 487.039062 C 146.113281 486.234375 146.355469 484.882812 146.636719 483.117188 C 141.949219 483.90625 136.488281 484.28125 130.183594 484 C 124.761719 483.773438 119.640625 482.554688 114.894531 480.699219 C 110.65625 506.898438 108.835938 523.019531 108.835938 523.019531 L 91.6875 523.019531 L 90.671875 532.082031 L 157.070312 533.492188 L 156.1875 517.070312 L 141.40625 517.070312 C 141.40625 517.070312 144.613281 493.292969 145.945312 487.039062 " fill-opacity="1" fill-rule="nonzero"/><path fill="#854036" d="M 97.578125 470.375 C 92.585938 466.320312 88.363281 461.929688 85.082031 458.042969 C 84.292969 475.273438 83.394531 493.515625 83.019531 500.027344 C 82.230469 513.316406 80.671875 523.019531 80.671875 523.019531 L 108.835938 523.019531 C 108.835938 523.019531 110.65625 506.898438 114.894531 480.699219 C 108.402344 478.164062 102.585938 474.445312 97.578125 470.375 " fill-opacity="1" fill-rule="nonzero"/><path fill="#854036" d="M 157.089844 480.378906 C 154.125 481.503906 150.671875 482.460938 146.636719 483.117188 C 146.355469 484.882812 146.113281 486.234375 145.945312 487.039062 C 144.613281 493.292969 141.40625 517.070312 141.40625 517.070312 L 158.363281 517.070312 L 163.84375 514.875 C 163.84375 514.875 166.507812 488.917969 167.613281 480.941406 C 167.859375 479.140625 168.289062 476.605469 168.816406 473.660156 C 166.414062 475.742188 162.625 478.3125 157.089844 480.378906 " fill-opacity="1" fill-rule="nonzero"/><path fill="#d65345" d="M 142.589844 511.179688 C 142.589844 518.953125 132.789062 525.253906 120.695312 525.253906 C 108.601562 525.253906 98.800781 518.953125 98.800781 511.179688 C 98.800781 503.40625 108.601562 497.101562 120.695312 497.101562 C 132.789062 497.101562 142.589844 503.40625 142.589844 511.179688 " fill-opacity="1" fill-rule="nonzero"/><path fill="#3e3da1" d="M 167.125 759.039062 L 74.257812 759.039062 L 54.554688 553.964844 L 186.828125 553.964844 L 167.125 759.039062 " fill-opacity="1" fill-rule="nonzero"/><path fill="#5858ba" d="M 54.554688 513.347656 L 54.554688 554.050781 L 86.449219 586.511719 L 154.933594 586.511719 L 186.828125 554.050781 L 186.828125 513.347656 L 54.554688 513.347656 " fill-opacity="1" fill-rule="nonzero"/><path fill="#fdecde" d="M 72.71875 543.945312 C 72.71875 549.664062 74.894531 555.128906 78.714844 559.019531 L 90.476562 570.988281 C 93.933594 574.511719 98.472656 576.464844 103.1875 576.464844 L 138.195312 576.464844 C 142.910156 576.464844 147.449219 574.511719 150.90625 570.988281 L 162.667969 559.019531 C 166.488281 555.128906 168.664062 549.664062 168.664062 543.945312 C 168.664062 532.59375 160.289062 523.394531 149.953125 523.394531 L 91.429688 523.394531 C 81.09375 523.394531 72.71875 532.59375 72.71875 543.945312 " fill-opacity="1" fill-rule="nonzero"/><path fill="#d65345" d="M 76.757812 544.601562 C 76.757812 549.695312 78.746094 554.558594 82.246094 558.019531 L 93.015625 568.671875 C 96.1875 571.804688 100.34375 573.546875 104.664062 573.546875 L 136.71875 573.546875 C 141.039062 573.546875 145.195312 571.804688 148.367188 568.671875 L 159.136719 558.019531 C 162.636719 554.558594 164.625 549.695312 164.625 544.601562 C 164.625 534.503906 156.953125 526.3125 147.492188 526.3125 L 93.890625 526.3125 C 84.425781 526.3125 76.757812 534.503906 76.757812 544.601562 " fill-opacity="1" fill-rule="nonzero"/><path fill="#5858ba" d="M 201.8125 553.964844 L 186.828125 553.964844 L 186.828125 513.347656 L 201.8125 513.347656 C 206.054688 513.347656 209.496094 516.789062 209.496094 521.035156 L 209.496094 546.277344 C 209.496094 550.523438 206.054688 553.964844 201.8125 553.964844 " fill-opacity="1" fill-rule="nonzero"/><path fill="#5858ba" d="M 54.554688 513.335938 L 54.554688 553.957031 L 41.78125 553.957031 C 36.320312 553.957031 31.894531 549.09375 31.894531 543.097656 L 31.894531 524.21875 C 31.894531 518.199219 36.320312 513.335938 41.78125 513.335938 L 54.554688 513.335938 " fill-opacity="1" fill-rule="nonzero"/><path fill="#5858ba" d="M 145.695312 759.039062 L 95.6875 759.039062 C 90.585938 759.039062 86.449219 754.902344 86.449219 749.796875 L 86.449219 586.511719 L 154.933594 586.511719 L 154.933594 749.796875 C 154.933594 754.902344 150.796875 759.039062 145.695312 759.039062 " fill-opacity="1" fill-rule="nonzero"/><path fill="#f9be59" d="M 145.25 751.949219 L 96.132812 751.949219 C 92.988281 751.949219 90.4375 749.398438 90.4375 746.25 L 90.4375 599.300781 C 90.4375 596.152344 92.988281 593.601562 96.132812 593.601562 L 145.25 593.601562 C 148.394531 593.601562 150.945312 596.152344 150.945312 599.300781 L 150.945312 746.25 C 150.945312 749.398438 148.394531 751.949219 145.25 751.949219 " fill-opacity="1" fill-rule="nonzero"/><path fill="#5858ba" d="M 180.257812 797.855469 L 61.121094 797.855469 L 61.121094 773.765625 C 61.121094 770.941406 63.410156 768.65625 66.226562 768.65625 L 175.15625 768.65625 C 177.976562 768.65625 180.257812 770.941406 180.257812 773.765625 L 180.257812 797.855469 " fill-opacity="1" fill-rule="nonzero"/><path fill="#3e3da1" d="M 167.125 759.039062 L 74.257812 759.039062 L 67.375 768.65625 L 174.007812 768.65625 L 167.125 759.039062 " fill-opacity="1" fill-rule="nonzero"/><path fill="#3e3da1" d="M 180.257812 797.855469 L 61.121094 797.855469 C 57.34375 800.894531 59.300781 807.472656 63.984375 807.472656 L 177.398438 807.472656 C 182.082031 807.472656 184.039062 800.894531 180.257812 797.855469 " fill-opacity="1" fill-rule="nonzero"/><path fill="#f9be59" d="M 64.484375 553.152344 C 64.484375 554.929688 63.171875 556.371094 61.550781 556.371094 C 59.933594 556.371094 58.621094 554.929688 58.621094 553.152344 C 58.621094 551.371094 59.933594 549.929688 61.550781 549.929688 C 63.171875 549.929688 64.484375 551.371094 64.484375 553.152344 " fill-opacity="1" fill-rule="nonzero"/><path fill="#f9be59" d="M 71.988281 559.589844 C 71.988281 561.371094 70.675781 562.8125 69.058594 562.8125 C 67.4375 562.8125 66.125 561.371094 66.125 559.589844 C 66.125 557.8125 67.4375 556.371094 69.058594 556.371094 C 70.675781 556.371094 71.988281 557.8125 71.988281 559.589844 " fill-opacity="1" fill-rule="nonzero"/><path fill="#f9be59" d="M 77.988281 564.085938 C 78.964844 565.503906 78.710938 567.523438 77.421875 568.597656 C 76.132812 569.671875 74.292969 569.394531 73.316406 567.976562 C 72.335938 566.5625 72.589844 564.542969 73.878906 563.464844 C 75.167969 562.390625 77.007812 562.667969 77.988281 564.085938 " fill-opacity="1" fill-rule="nonzero"/><path fill="#f9be59" d="M 84.242188 570.007812 C 85.21875 571.425781 84.96875 573.445312 83.675781 574.519531 C 82.386719 575.59375 80.546875 575.316406 79.570312 573.898438 C 78.59375 572.480469 78.84375 570.460938 80.132812 569.386719 C 81.425781 568.3125 83.261719 568.589844 84.242188 570.007812 " fill-opacity="1" fill-rule="nonzero"/><path fill="#f9be59" d="M 90.570312 576.984375 C 91.550781 578.402344 91.296875 580.421875 90.007812 581.496094 C 88.71875 582.570312 86.878906 582.292969 85.902344 580.878906 C 84.921875 579.460938 85.175781 577.441406 86.464844 576.367188 C 87.753906 575.289062 89.59375 575.566406 90.570312 576.984375 " fill-opacity="1" fill-rule="nonzero"/><path fill="#f9be59" d="M 176.898438 553.152344 C 176.898438 554.929688 178.210938 556.371094 179.828125 556.371094 C 181.445312 556.371094 182.761719 554.929688 182.761719 553.152344 C 182.761719 551.371094 181.445312 549.929688 179.828125 549.929688 C 178.210938 549.929688 176.898438 551.371094 176.898438 553.152344 " fill-opacity="1" fill-rule="nonzero"/><path fill="#f9be59" d="M 169.394531 559.589844 C 169.394531 561.371094 170.707031 562.8125 172.324219 562.8125 C 173.945312 562.8125 175.253906 561.371094 175.253906 559.589844 C 175.253906 557.8125 173.945312 556.371094 172.324219 556.371094 C 170.707031 556.371094 169.394531 557.8125 169.394531 559.589844 " fill-opacity="1" fill-rule="nonzero"/><path fill="#f9be59" d="M 163.394531 564.085938 C 162.417969 565.503906 162.671875 567.523438 163.960938 568.597656 C 165.25 569.671875 167.089844 569.394531 168.066406 567.976562 C 169.046875 566.5625 168.792969 564.542969 167.503906 563.464844 C 166.210938 562.390625 164.375 562.667969 163.394531 564.085938 " fill-opacity="1" fill-rule="nonzero"/><path fill="#f9be59" d="M 157.140625 570.007812 C 156.164062 571.425781 156.414062 573.445312 157.707031 574.519531 C 158.996094 575.59375 160.835938 575.316406 161.8125 573.898438 C 162.792969 572.480469 162.539062 570.460938 161.25 569.386719 C 159.957031 568.3125 158.121094 568.589844 157.140625 570.007812 " fill-opacity="1" fill-rule="nonzero"/><path fill="#f9be59" d="M 150.808594 576.984375 C 149.832031 578.402344 150.082031 580.421875 151.375 581.496094 C 152.664062 582.570312 154.503906 582.292969 155.480469 580.878906 C 156.460938 579.460938 156.207031 577.441406 154.917969 576.367188 C 153.628906 575.289062 151.789062 575.566406 150.808594 576.984375 " fill-opacity="1" fill-rule="nonzero"/><path fill="#fdecde" d="M 113.613281 685.316406 L 132.976562 685.316406 C 134.4375 685.316406 135.789062 686.105469 135.789062 688.132812 C 135.789062 690.160156 134.4375 690.949219 132.976562 690.949219 L 107.984375 690.949219 L 107.984375 672.59375 C 107.984375 668.371094 110.125 666.226562 114.347656 666.226562 L 130.164062 666.226562 L 130.164062 652.773438 L 110.800781 652.773438 C 109.335938 652.773438 107.984375 651.988281 107.984375 649.957031 C 107.984375 647.929688 109.335938 647.144531 110.800781 647.144531 L 129.488281 647.144531 C 131.34375 647.144531 132.636719 647.425781 134.042969 648.722656 C 135.621094 650.183594 135.789062 651.703125 135.789062 653.730469 L 135.789062 665.273438 C 135.789062 667.296875 135.621094 668.820312 134.042969 670.285156 C 132.636719 671.578125 131.34375 671.859375 129.488281 671.859375 L 113.613281 671.859375 L 113.613281 685.316406 " fill-opacity="1" fill-rule="nonzero"/><path fill="#d65345" d="M 171.488281 318.460938 C 171.488281 318.460938 174.125 334.132812 173.613281 341.039062 C 173.097656 347.949219 168.40625 357.390625 168.40625 357.390625 L 163.09375 330.570312 L 162.207031 323.859375 L 171.488281 318.460938 " fill-opacity="1" fill-rule="nonzero"/><path fill="#f0a77f" d="M 125.769531 328.109375 C 125.769531 328.109375 141.351562 310.78125 150.621094 313.828125 C 159.890625 316.875 169.453125 328.875 170.582031 343.074219 C 171.472656 354.304688 167.628906 365.273438 166.078125 370.769531 C 164.726562 375.558594 156.386719 385.667969 148.28125 385.460938 C 139.300781 385.238281 131.25 373.539062 129.828125 369.511719 C 128.40625 365.484375 125.347656 353.621094 125.3125 346.375 C 125.277344 339.125 125.769531 328.109375 125.769531 328.109375 " fill-opacity="1" fill-rule="nonzero"/><path fill="#2d253e" d="M 142.832031 350.3125 L 141.484375 350.277344 C 140.980469 350.265625 140.582031 349.847656 140.597656 349.347656 L 140.675781 346.199219 C 140.6875 345.699219 141.105469 345.300781 141.609375 345.3125 L 142.957031 345.347656 C 143.460938 345.359375 143.855469 345.777344 143.84375 346.28125 L 143.765625 349.425781 C 143.753906 349.929688 143.335938 350.328125 142.832031 350.3125 " fill-opacity="1" fill-rule="nonzero"/><path fill="#2d253e" d="M 163.023438 352.695312 L 161.679688 352.664062 C 161.175781 352.652344 160.777344 352.230469 160.789062 351.726562 L 160.867188 348.585938 C 160.882812 348.082031 161.300781 347.683594 161.804688 347.699219 L 163.148438 347.730469 C 163.652344 347.742188 164.050781 348.164062 164.039062 348.664062 L 163.960938 351.808594 C 163.945312 352.308594 163.527344 352.707031 163.023438 352.695312 " fill-opacity="1" fill-rule="nonzero"/><path fill="#d65345" d="M 135.53125 339.015625 C 136.386719 338.199219 137.726562 337.90625 140.652344 338.039062 C 143.578125 338.167969 145.597656 338.597656 145.339844 339.605469 C 145.171875 340.246094 142.46875 340.605469 140.8125 340.53125 C 139.160156 340.457031 136.175781 340.722656 135.6875 340.191406 C 135.203125 339.660156 135.300781 339.234375 135.53125 339.015625 " fill-opacity="1" fill-rule="nonzero"/><path fill="#d65345" d="M 169.050781 341.746094 C 168.3125 340.816406 167.027344 340.339844 164.109375 340.078125 C 161.195312 339.808594 159.132812 339.960938 159.253906 340.988281 C 159.332031 341.652344 161.960938 342.371094 163.609375 342.523438 C 165.257812 342.671875 168.179688 343.347656 168.734375 342.882812 C 169.289062 342.421875 169.25 341.992188 169.050781 341.746094 " fill-opacity="1" fill-rule="nonzero"/><path fill="#e69060" d="M 156.78125 360.203125 L 156.800781 360.203125 Z M 153.320312 364.390625 C 152.996094 364.390625 152.679688 364.222656 152.507812 363.921875 C 152.246094 363.472656 152.398438 362.902344 152.847656 362.640625 C 154.382812 361.75 156.167969 360.546875 156.699219 359.980469 C 156.214844 358.792969 153.894531 354.175781 152.261719 351 C 152.023438 350.539062 152.203125 349.972656 152.664062 349.734375 C 153.121094 349.5 153.6875 349.679688 153.925781 350.140625 C 155.625 353.429688 158.488281 359.074219 158.628906 359.878906 C 158.71875 360.378906 158.878906 361.3125 153.789062 364.265625 C 153.640625 364.351562 153.480469 364.390625 153.320312 364.390625 " fill-opacity="1" fill-rule="nonzero"/><path fill="#d65345" d="M 149.542969 375.179688 C 144.203125 375.046875 140.925781 370.308594 141.683594 368.015625 C 141.699219 367.941406 141.71875 367.867188 141.75 367.8125 C 142.203125 366.863281 156.160156 368.71875 157.03125 369.472656 C 157.046875 369.472656 157.0625 369.472656 157.0625 369.488281 C 157.503906 370.195312 155.820312 375.316406 149.542969 375.179688 " fill-opacity="1" fill-rule="nonzero"/><path fill="#ffffff" d="M 157.03125 369.472656 C 155.480469 370.558594 153.082031 371.378906 149.566406 371.160156 C 146.160156 370.945312 143.4375 369.582031 141.683594 368.015625 C 141.699219 367.941406 141.71875 367.867188 141.75 367.8125 C 142.203125 366.863281 156.160156 368.71875 157.03125 369.472656 " fill-opacity="1" fill-rule="nonzero"/><path fill="#d65345" d="M 123.734375 333.222656 C 123.734375 333.222656 136.71875 326.132812 148.191406 326.085938 C 163.195312 326.03125 171.828125 333.054688 171.828125 333.054688 C 171.828125 333.054688 175.773438 329.542969 173.464844 319.304688 C 170.304688 305.300781 133.910156 302.121094 125.941406 315.371094 C 121.074219 323.460938 123.734375 333.222656 123.734375 333.222656 " fill-opacity="1" fill-rule="nonzero"/><path fill="#d65345" d="M 127.46875 338.59375 C 127.296875 345.457031 125.507812 350.984375 123.46875 350.929688 C 121.429688 350.878906 119.914062 345.277344 120.085938 338.410156 C 120.257812 331.546875 122.046875 326.019531 124.089844 326.074219 C 126.128906 326.125 127.640625 331.730469 127.46875 338.59375 " fill-opacity="1" fill-rule="nonzero"/><path fill="#f0a77f" d="M 128.070312 347.460938 C 128.070312 347.460938 126.816406 343.5625 125.375 342.652344 C 124.042969 341.804688 121.851562 342.09375 120.976562 344.914062 C 119.828125 348.609375 121.636719 352.898438 123.011719 355.496094 C 124.898438 359.066406 127.757812 359.957031 127.757812 359.957031 L 128.070312 347.460938 " fill-opacity="1" fill-rule="nonzero"/><path fill="#d65345" d="M 138.15625 324.078125 C 137.675781 324.417969 133.589844 328.421875 131.117188 333.40625 C 128.648438 338.390625 127.121094 342.964844 127.121094 342.964844 L 124.679688 333.832031 L 126.492188 326.132812 L 136.585938 321.144531 L 138.15625 324.078125 " fill-opacity="1" fill-rule="nonzero"/><path fill="#d65345" d="M 130.546875 339.816406 C 129.304688 344.550781 129.433594 348.660156 128.332031 348.628906 C 127.234375 348.601562 126.441406 344.609375 126.5625 339.714844 C 126.683594 334.820312 133.605469 325.957031 134.707031 325.988281 C 135.804688 326.011719 132.367188 332.875 130.546875 339.816406 " fill-opacity="1" fill-rule="nonzero"/><path fill="#d65345" d="M 169.578125 329.027344 C 169.429688 331.5625 160.886719 333.125 150.496094 332.519531 C 140.101562 331.914062 131.796875 329.371094 131.941406 326.835938 C 132.089844 324.304688 140.632812 322.742188 151.027344 323.347656 C 161.421875 323.949219 169.726562 326.496094 169.578125 329.027344 " fill-opacity="1" fill-rule="nonzero"/><path fill="#955147" d="M 180.570312 406.648438 C 180.570312 406.648438 186.964844 416.984375 191.671875 428.707031 C 197.699219 443.710938 202.496094 461.273438 203.945312 465.222656 C 206.527344 472.261719 202.539062 477.1875 196.675781 477.65625 C 190.8125 478.125 183.382812 482.582031 179.828125 479.0625 C 176.269531 475.546875 173.808594 467.253906 171.660156 464.207031 C 169.511719 461.15625 165.730469 457.792969 165.730469 457.792969 L 167.042969 407.746094 L 180.570312 406.648438 " fill-opacity="1" fill-rule="nonzero"/><path fill="#a86056" d="M 69.800781 356.605469 C 64.054688 359.507812 61.4375 365.355469 58.464844 366.023438 C 55.496094 366.691406 54.203125 362.914062 53.96875 361.632812 C 53.734375 360.359375 47.285156 359.851562 49.867188 355.121094 C 52.445312 350.386719 60.886719 345.929688 69.449219 343.347656 C 78.007812 340.769531 81.464844 340.375 83.40625 341.316406 C 86.378906 342.761719 86.101562 345.933594 86.332031 347.808594 C 86.566406 349.683594 85.859375 352.03125 85.082031 352.285156 C 79.921875 353.945312 75.097656 353.929688 69.800781 356.605469 " fill-opacity="1" fill-rule="nonzero"/><path fill="#a86056" d="M 191.167969 469.5625 C 197.035156 466.925781 202.867188 465.546875 205.867188 465.015625 C 208.867188 464.484375 209.980469 468.316406 210.160156 469.605469 C 210.332031 470.894531 215.890625 474.179688 211.332031 477.054688 C 206.351562 480.195312 201.355469 480.046875 192.6875 482.230469 C 184.019531 484.417969 183.097656 490.050781 181.203125 489.019531 C 178.296875 487.4375 177.34375 483.824219 177.195312 481.941406 C 177.046875 480.054688 178.039062 478.070312 178.652344 477.527344 C 182.605469 474.019531 185.75 471.992188 191.167969 469.5625 " fill-opacity="1" fill-rule="nonzero"/><path fill="#f0a77f" d="M 185.238281 481.410156 C 176.953125 484.695312 140.859375 494.898438 140.859375 494.898438 C 140.859375 494.898438 135.464844 488.800781 123.035156 488.566406 C 114.28125 488.402344 100.894531 499.324219 102.710938 502.679688 C 104.742188 506.433594 116.863281 501.78125 123.738281 502.40625 C 130.617188 503.03125 134.929688 508.804688 140.390625 507.492188 C 145.855469 506.175781 175.804688 506.980469 198.765625 502.496094 C 207.835938 500.722656 215.234375 488.980469 213.125 484.109375 C 208.59375 473.628906 193.523438 478.125 185.238281 481.410156 " fill-opacity="1" fill-rule="nonzero"/><path fill="#854036" d="M 90.671875 418.300781 C 90.417969 418.300781 90.171875 418.203125 89.984375 418.003906 C 89.632812 417.625 89.65625 417.027344 90.035156 416.675781 C 90.132812 416.589844 99.808594 407.535156 104.136719 398.722656 C 108.386719 390.050781 106.425781 380.601562 106.40625 380.507812 C 106.296875 380 106.621094 379.503906 107.125 379.390625 C 107.636719 379.285156 108.132812 379.605469 108.238281 380.109375 C 108.328125 380.519531 110.367188 390.28125 105.820312 399.546875 C 101.339844 408.679688 91.71875 417.671875 91.3125 418.050781 C 91.128906 418.222656 90.902344 418.300781 90.671875 418.300781 " fill-opacity="1" fill-rule="nonzero"/><path fill="#854036" d="M 171.441406 460.792969 L 170.570312 460.082031 L 170.683594 459.484375 C 170.707031 459.367188 170.753906 459.257812 170.8125 459.164062 C 171.441406 457.394531 175.40625 444.105469 176.25 435.496094 C 177.902344 418.539062 177.914062 407.851562 177.914062 407.746094 C 177.914062 407.226562 178.332031 406.808594 178.851562 406.808594 C 179.367188 406.808594 179.792969 407.226562 179.792969 407.746094 C 179.792969 407.851562 179.78125 418.625 178.117188 435.675781 C 177.574219 441.230469 174.207031 455.835938 172.542969 459.664062 C 172.542969 459.722656 172.539062 459.785156 172.523438 459.847656 L 172.464844 459.835938 C 172.265625 460.261719 172.09375 460.523438 171.960938 460.578125 L 171.441406 460.792969 " fill-opacity="1" fill-rule="nonzero"/><path fill="#f9be59" d="M 101.171875 541.617188 C 101.171875 542.113281 100.765625 542.746094 100.042969 542.746094 C 99.324219 542.746094 98.921875 542.113281 98.921875 541.617188 L 98.921875 540.496094 C 98.921875 540 99.324219 539.367188 100.042969 539.367188 L 110.035156 539.367188 L 110.035156 545.894531 C 110.035156 546.683594 110.058594 546.773438 109.425781 547.3125 L 106.277344 550.039062 C 105.691406 550.558594 105.648438 550.601562 105.648438 551.390625 L 105.648438 555.757812 C 105.648438 556.476562 105.332031 556.882812 104.523438 556.882812 C 103.710938 556.882812 103.398438 556.476562 103.398438 555.757812 L 103.398438 550.332031 C 103.398438 549.589844 103.421875 549.519531 103.980469 549.027344 L 107.089844 546.347656 C 107.832031 545.695312 107.785156 545.714844 107.785156 544.726562 L 107.785156 541.617188 L 101.171875 541.617188 " fill-opacity="1" fill-rule="nonzero"/><path fill="#f9be59" d="M 119.605469 547 L 123.75 547 C 124.46875 547 125.007812 547.113281 125.546875 547.628906 C 126.175781 548.214844 126.242188 548.753906 126.242188 549.542969 L 126.242188 554.359375 C 126.242188 555.058594 126.175781 555.554688 125.703125 556.117188 C 125.144531 556.792969 124.558594 556.882812 123.75 556.882812 L 118.753906 556.882812 C 118.167969 556.882812 117.828125 556.726562 117.265625 556.476562 L 116.410156 556.09375 C 115.804688 555.824219 115.128906 555.621094 115.128906 554.832031 C 115.128906 554.25 115.625 553.707031 116.210938 553.707031 C 116.480469 553.707031 116.679688 553.777344 116.929688 553.886719 L 117.605469 554.179688 C 117.917969 554.316406 118.4375 554.632812 118.796875 554.632812 L 123.996094 554.632812 L 123.996094 549.25 L 117.355469 549.25 L 117.355469 539.367188 L 125.121094 539.367188 C 125.703125 539.367188 126.242188 539.683594 126.242188 540.496094 C 126.242188 541.304688 125.703125 541.617188 125.121094 541.617188 L 119.605469 541.617188 L 119.605469 547 " fill-opacity="1" fill-rule="nonzero"/><path fill="#f9be59" d="M 140.203125 554.632812 L 140.203125 541.617188 L 133.589844 541.617188 L 133.589844 554.632812 Z M 140.203125 539.367188 C 141.445312 539.367188 142.453125 540.382812 142.453125 541.617188 L 142.453125 554.632812 C 142.453125 555.890625 141.488281 556.882812 140.203125 556.882812 L 133.589844 556.882812 C 132.308594 556.882812 131.339844 555.890625 131.339844 554.632812 L 131.339844 541.617188 C 131.339844 540.382812 132.351562 539.367188 133.589844 539.367188 L 140.203125 539.367188 " fill-opacity="1" fill-rule="nonzero"/><path fill="#f0a77f" d="M 323.03125 355.160156 L 326.097656 372.332031 L 327.351562 379.296875 L 328.953125 395.132812 L 349.039062 392.457031 L 368.238281 378.371094 C 368.238281 378.371094 356.925781 373.386719 354.117188 369.609375 C 352.007812 366.773438 348.859375 347.335938 348.859375 347.335938 L 323.03125 355.160156 " fill-opacity="1" fill-rule="nonzero"/><path fill="#e69060" d="M 323.03125 355.160156 L 326.097656 372.332031 C 330.4375 371.375 334.871094 370.050781 338 368.273438 C 343.449219 365.207031 348.472656 359.175781 350.3125 355.4375 L 349.003906 348.195312 L 347.511719 349.628906 L 323.03125 355.160156 " fill-opacity="1" fill-rule="nonzero"/><path fill="#823e3e" d="M 306.0625 301.558594 C 306.0625 301.558594 303.429688 317.230469 303.941406 324.136719 C 304.453125 331.046875 309.144531 340.488281 309.144531 340.488281 L 314.460938 313.667969 L 315.347656 306.957031 L 306.0625 301.558594 " fill-opacity="1" fill-rule="nonzero"/><path fill="#f0a77f" d="M 351.785156 311.210938 C 351.785156 311.210938 336.199219 293.882812 326.929688 296.925781 C 317.660156 299.976562 308.097656 311.980469 306.96875 326.175781 C 306.074219 337.402344 309.921875 348.375 311.476562 353.871094 C 312.824219 358.65625 321.164062 368.765625 329.269531 368.5625 C 338.25 368.339844 346.300781 356.636719 347.722656 352.613281 C 349.144531 348.589844 352.203125 336.71875 352.238281 329.476562 C 352.273438 322.226562 351.785156 311.210938 351.785156 311.210938 " fill-opacity="1" fill-rule="nonzero"/><path fill="#2d253e" d="M 335.125 333.476562 L 336.449219 333.230469 C 336.945312 333.140625 337.273438 332.664062 337.179688 332.167969 L 336.601562 329.078125 C 336.507812 328.582031 336.03125 328.257812 335.539062 328.347656 L 334.214844 328.597656 C 333.71875 328.6875 333.394531 329.164062 333.484375 329.660156 L 334.0625 332.75 C 334.152344 333.242188 334.628906 333.570312 335.125 333.476562 " fill-opacity="1" fill-rule="nonzero"/><path fill="#2d253e" d="M 314.773438 335.84375 L 316.109375 335.679688 C 316.613281 335.617188 316.964844 335.160156 316.902344 334.664062 L 316.515625 331.539062 C 316.457031 331.042969 316 330.683594 315.5 330.75 L 314.167969 330.914062 C 313.664062 330.976562 313.3125 331.429688 313.371094 331.929688 L 313.757812 335.050781 C 313.820312 335.550781 314.273438 335.90625 314.773438 335.84375 " fill-opacity="1" fill-rule="nonzero"/><path fill="#823e3e" d="M 339.515625 322.113281 C 338.65625 321.296875 337.316406 321.003906 334.390625 321.136719 C 331.464844 321.269531 329.445312 321.703125 329.707031 322.703125 C 329.867188 323.351562 332.578125 323.703125 334.226562 323.628906 C 335.882812 323.554688 338.867188 323.820312 339.355469 323.289062 C 339.839844 322.757812 339.746094 322.335938 339.515625 322.113281 " fill-opacity="1" fill-rule="nonzero"/><path fill="#823e3e" d="M 307.921875 326.105469 C 308.550781 325.097656 309.777344 324.488281 312.644531 323.898438 C 315.515625 323.3125 317.582031 323.234375 317.578125 324.269531 C 317.574219 324.933594 315.039062 325.945312 313.414062 326.277344 C 311.796875 326.609375 308.964844 327.601562 308.363281 327.207031 C 307.765625 326.808594 307.753906 326.375 307.921875 326.105469 " fill-opacity="1" fill-rule="nonzero"/><path fill="#e69060" d="M 326.71875 345.445312 C 326.652344 345.445312 325.03125 345.445312 323.386719 345.066406 C 320.210938 344.332031 319.546875 342.792969 319.546875 341.632812 C 319.546875 341.375 319.546875 340.59375 323.636719 333.214844 C 323.894531 332.761719 324.464844 332.597656 324.914062 332.851562 C 325.367188 333.097656 325.53125 333.671875 325.28125 334.125 C 323.484375 337.359375 321.550781 341.089844 321.414062 341.730469 C 321.421875 342.546875 322.914062 343.03125 323.808594 343.234375 C 325.246094 343.5625 326.703125 343.566406 326.71875 343.566406 C 327.238281 343.566406 327.65625 343.988281 327.65625 344.507812 C 327.65625 345.027344 327.238281 345.445312 326.71875 345.445312 " fill-opacity="1" fill-rule="nonzero"/><path fill="#823e3e" d="M 350.082031 321.695312 C 350.253906 328.5625 352.042969 334.082031 354.085938 334.03125 C 356.125 333.984375 357.640625 328.375 357.46875 321.507812 C 357.292969 314.644531 355.503906 309.117188 353.460938 309.171875 C 351.425781 309.222656 349.910156 314.832031 350.082031 321.695312 " fill-opacity="1" fill-rule="nonzero"/><path fill="#f0a77f" d="M 349.484375 330.558594 C 349.484375 330.558594 350.734375 326.667969 352.175781 325.75 C 353.511719 324.902344 355.703125 325.195312 356.574219 328.011719 C 357.71875 331.710938 355.914062 336 354.539062 338.59375 C 352.652344 342.164062 349.792969 343.054688 349.792969 343.054688 L 349.484375 330.558594 " fill-opacity="1" fill-rule="nonzero"/><path fill="#823e3e" d="M 339.394531 307.175781 C 339.875 307.519531 343.960938 311.523438 346.433594 316.503906 C 348.902344 321.488281 350.429688 326.066406 350.429688 326.066406 L 352.871094 316.929688 L 351.0625 309.230469 L 340.964844 304.246094 L 339.394531 307.175781 " fill-opacity="1" fill-rule="nonzero"/><path fill="#823e3e" d="M 347.003906 322.917969 C 348.246094 327.652344 348.117188 331.757812 349.21875 331.730469 C 350.316406 331.703125 351.113281 327.710938 350.988281 322.816406 C 350.867188 317.921875 343.949219 309.054688 342.84375 309.085938 C 341.746094 309.113281 345.183594 315.972656 347.003906 322.917969 " fill-opacity="1" fill-rule="nonzero"/><path fill="#823e3e" d="M 356.167969 312.765625 C 356.644531 312.765625 359.757812 308.605469 358.234375 304.171875 C 356.707031 299.746094 351.128906 299.542969 351.128906 299.542969 C 351.128906 299.542969 354.039062 293.730469 346.984375 288.832031 C 342.199219 285.507812 336.144531 290.550781 336.144531 290.550781 C 336.144531 290.550781 335.332031 283.746094 326.183594 283.746094 C 317.972656 283.746094 317.542969 292.191406 317.542969 292.191406 C 317.542969 292.191406 315.136719 288.28125 310.625 290.394531 C 305.773438 292.664062 307.460938 297.355469 307.460938 297.355469 C 307.460938 297.355469 301.117188 296.457031 299.132812 303.53125 C 297.335938 309.945312 303.238281 314.125 303.238281 314.125 C 303.238281 314.125 300.152344 315.152344 300.617188 319.640625 C 301.132812 324.558594 305.113281 324.601562 305.113281 324.601562 L 309.609375 310.09375 L 325.519531 311.546875 L 356.167969 312.765625 " fill-opacity="1" fill-rule="nonzero"/><path fill="#823e3e" d="M 319.070312 310.566406 C 319.070312 313.851562 315.917969 316.511719 312.03125 316.511719 C 308.148438 316.511719 304.996094 313.851562 304.996094 310.566406 C 304.996094 307.289062 308.148438 304.625 312.03125 304.625 C 315.917969 304.625 319.070312 307.289062 319.070312 310.566406 " fill-opacity="1" fill-rule="nonzero"/><path fill="#823e3e" d="M 326.71875 309.988281 C 326.71875 312.214844 324.914062 314.023438 322.6875 314.023438 C 320.457031 314.023438 318.65625 312.214844 318.65625 309.988281 C 318.65625 307.757812 320.457031 305.953125 322.6875 305.953125 C 324.914062 305.953125 326.71875 307.757812 326.71875 309.988281 " fill-opacity="1" fill-rule="nonzero"/><path fill="#823e3e" d="M 344.472656 309.890625 C 344.472656 312.800781 340.386719 315.152344 335.34375 315.152344 C 330.308594 315.152344 326.21875 312.800781 326.21875 309.890625 C 326.21875 306.984375 330.308594 304.625 335.34375 304.625 C 340.386719 304.625 344.472656 306.984375 344.472656 309.890625 " fill-opacity="1" fill-rule="nonzero"/><path fill="#ffffff" d="M 334.292969 350.582031 C 332.457031 349.066406 329.035156 351.394531 327.277344 351.503906 C 325.304688 351.625 321.15625 351.464844 320.886719 352.835938 C 320.621094 354.183594 322.109375 357.277344 327.242188 356.5625 C 334.515625 355.542969 335.410156 351.5 334.292969 350.582031 " fill-opacity="1" fill-rule="nonzero"/><path fill="#468fab" d="M 392.332031 408.851562 C 390.53125 425.050781 385.015625 447.007812 381.789062 459.921875 C 380.476562 465.230469 379.535156 469.003906 379.40625 470.226562 C 378.957031 474.429688 380.308594 517.914062 380.308594 517.914062 L 312.632812 517.914062 C 312.632812 517.914062 311.714844 509.449219 310.550781 498.847656 C 308.804688 483.082031 306.554688 462.644531 306.007812 458.496094 C 305.988281 458.324219 305.953125 458.101562 305.917969 457.855469 L 305.917969 457.839844 C 304.582031 448.625 294.566406 394.53125 298.503906 387.496094 C 302.554688 380.269531 326.480469 374.414062 326.480469 374.414062 C 326.480469 374.414062 334.300781 379.816406 341.375 378.769531 C 348.429688 377.71875 355.09375 370.660156 355.09375 370.660156 C 355.09375 370.660156 378.65625 379.519531 382.109375 381.46875 C 385.5625 383.441406 394.882812 385.992188 392.332031 408.851562 " fill-opacity="1" fill-rule="nonzero"/><path fill="#3c839e" d="M 380.308594 517.914062 L 315.953125 517.914062 C 314.394531 512.527344 312.503906 505.789062 310.550781 498.847656 C 308.804688 483.082031 306.554688 462.644531 306.007812 458.496094 C 305.988281 458.324219 305.953125 458.101562 305.917969 457.855469 C 309.953125 463.242188 320.332031 472.707031 338.449219 473.433594 C 361.902344 474.371094 372.820312 465.644531 381.789062 459.921875 C 380.476562 465.230469 379.535156 469.003906 379.40625 470.226562 C 378.957031 474.429688 380.308594 517.914062 380.308594 517.914062 " fill-opacity="1" fill-rule="nonzero"/><path fill="#fdecde" d="M 370.347656 514.949219 C 370.347656 525.824219 360.546875 530.378906 348.449219 530.378906 C 336.359375 530.378906 326.558594 525.800781 326.558594 514.921875 C 326.558594 504.042969 333.003906 492.628906 349.027344 492.628906 C 365.296875 492.628906 370.347656 504.070312 370.347656 514.949219 " fill-opacity="1" fill-rule="nonzero"/><path fill="#3e3da1" d="M 394.878906 759.039062 L 302.011719 759.039062 L 282.3125 553.96875 L 414.582031 553.96875 L 394.878906 759.039062 " fill-opacity="1" fill-rule="nonzero"/><path fill="#5858ba" d="M 282.3125 513.347656 L 282.3125 554.054688 L 314.210938 586.511719 L 382.6875 586.511719 L 414.582031 554.054688 L 414.582031 513.347656 L 282.3125 513.347656 " fill-opacity="1" fill-rule="nonzero"/><path fill="#fdecde" d="M 300.476562 543.945312 C 300.476562 549.664062 302.648438 555.128906 306.46875 559.019531 L 318.234375 570.988281 C 321.691406 574.511719 326.230469 576.464844 330.945312 576.464844 L 365.953125 576.464844 C 370.664062 576.464844 375.207031 574.511719 378.667969 570.988281 L 390.425781 559.019531 C 394.246094 555.128906 396.417969 549.664062 396.417969 543.945312 C 396.417969 532.59375 388.046875 523.394531 377.710938 523.394531 L 319.183594 523.394531 C 308.851562 523.394531 300.476562 532.59375 300.476562 543.945312 " fill-opacity="1" fill-rule="nonzero"/><path fill="#d65345" d="M 304.515625 544.601562 C 304.515625 549.695312 306.503906 554.558594 310.003906 558.019531 L 320.773438 568.671875 C 323.945312 571.804688 328.101562 573.546875 332.417969 573.546875 L 364.476562 573.546875 C 368.796875 573.546875 372.957031 571.804688 376.121094 568.671875 L 386.894531 558.019531 C 390.394531 554.558594 392.382812 549.695312 392.382812 544.601562 C 392.382812 534.503906 384.714844 526.3125 375.25 526.3125 L 321.644531 526.3125 C 312.183594 526.3125 304.515625 534.503906 304.515625 544.601562 " fill-opacity="1" fill-rule="nonzero"/><path fill="#5858ba" d="M 429.570312 553.96875 L 414.582031 553.96875 L 414.582031 513.347656 L 429.570312 513.347656 C 433.808594 513.347656 437.25 516.789062 437.25 521.035156 L 437.25 546.277344 C 437.25 550.523438 433.808594 553.96875 429.570312 553.96875 " fill-opacity="1" fill-rule="nonzero"/><path fill="#5858ba" d="M 282.316406 513.335938 L 282.316406 553.957031 L 269.539062 553.957031 C 264.078125 553.957031 259.652344 549.09375 259.652344 543.097656 L 259.652344 524.21875 C 259.652344 518.199219 264.078125 513.335938 269.539062 513.335938 L 282.316406 513.335938 " fill-opacity="1" fill-rule="nonzero"/><path fill="#5858ba" d="M 373.453125 759.039062 L 323.441406 759.039062 C 318.34375 759.039062 314.210938 754.902344 314.210938 749.796875 L 314.210938 586.511719 L 382.691406 586.511719 L 382.691406 749.796875 C 382.691406 754.902344 378.554688 759.039062 373.453125 759.039062 " fill-opacity="1" fill-rule="nonzero"/><path fill="#f9be59" d="M 373.007812 751.949219 L 323.886719 751.949219 C 320.746094 751.949219 318.199219 749.398438 318.199219 746.25 L 318.199219 599.300781 C 318.199219 596.152344 320.746094 593.601562 323.886719 593.601562 L 373.007812 593.601562 C 376.152344 593.601562 378.703125 596.152344 378.703125 599.300781 L 378.703125 746.25 C 378.703125 749.398438 376.152344 751.949219 373.007812 751.949219 " fill-opacity="1" fill-rule="nonzero"/><path fill="#5858ba" d="M 408.019531 797.855469 L 288.878906 797.855469 L 288.878906 773.765625 C 288.878906 770.941406 291.164062 768.65625 293.980469 768.65625 L 402.910156 768.65625 C 405.730469 768.65625 408.019531 770.941406 408.019531 773.765625 L 408.019531 797.855469 " fill-opacity="1" fill-rule="nonzero"/><path fill="#3e3da1" d="M 394.882812 759.039062 L 302.015625 759.039062 L 295.136719 768.65625 L 401.761719 768.65625 L 394.882812 759.039062 " fill-opacity="1" fill-rule="nonzero"/><path fill="#3e3da1" d="M 408.015625 797.855469 L 288.878906 797.855469 C 285.097656 800.894531 287.054688 807.472656 291.742188 807.472656 L 405.152344 807.472656 C 409.835938 807.472656 411.792969 800.894531 408.015625 797.855469 " fill-opacity="1" fill-rule="nonzero"/><path fill="#f9be59" d="M 292.242188 553.152344 C 292.242188 554.929688 290.929688 556.371094 289.308594 556.371094 C 287.691406 556.371094 286.378906 554.929688 286.378906 553.152344 C 286.378906 551.371094 287.691406 549.929688 289.308594 549.929688 C 290.929688 549.929688 292.242188 551.371094 292.242188 553.152344 " fill-opacity="1" fill-rule="nonzero"/><path fill="#f9be59" d="M 299.746094 559.589844 C 299.746094 561.371094 298.4375 562.8125 296.816406 562.8125 C 295.195312 562.8125 293.882812 561.371094 293.882812 559.589844 C 293.882812 557.8125 295.195312 556.371094 296.816406 556.371094 C 298.4375 556.371094 299.746094 557.8125 299.746094 559.589844 " fill-opacity="1" fill-rule="nonzero"/><path fill="#f9be59" d="M 305.746094 564.085938 C 306.722656 565.503906 306.46875 567.523438 305.179688 568.597656 C 303.886719 569.671875 302.050781 569.394531 301.074219 567.976562 C 300.09375 566.5625 300.347656 564.542969 301.640625 563.464844 C 302.925781 562.390625 304.765625 562.667969 305.746094 564.085938 " fill-opacity="1" fill-rule="nonzero"/><path fill="#f9be59" d="M 311.996094 570.007812 C 312.976562 571.425781 312.726562 573.445312 311.433594 574.519531 C 310.144531 575.59375 308.308594 575.316406 307.328125 573.898438 C 306.351562 572.480469 306.601562 570.460938 307.890625 569.386719 C 309.183594 568.3125 311.019531 568.589844 311.996094 570.007812 " fill-opacity="1" fill-rule="nonzero"/><path fill="#f9be59" d="M 318.332031 576.984375 C 319.308594 578.402344 319.054688 580.421875 317.765625 581.496094 C 316.476562 582.570312 314.636719 582.292969 313.65625 580.878906 C 312.679688 579.460938 312.933594 577.441406 314.222656 576.367188 C 315.511719 575.289062 317.351562 575.566406 318.332031 576.984375 " fill-opacity="1" fill-rule="nonzero"/><path fill="#f9be59" d="M 404.65625 553.152344 C 404.65625 554.929688 405.964844 556.371094 407.582031 556.371094 C 409.203125 556.371094 410.515625 554.929688 410.515625 553.152344 C 410.515625 551.371094 409.203125 549.929688 407.582031 549.929688 C 405.964844 549.929688 404.65625 551.371094 404.65625 553.152344 " fill-opacity="1" fill-rule="nonzero"/><path fill="#f9be59" d="M 397.152344 559.589844 C 397.152344 561.371094 398.464844 562.8125 400.085938 562.8125 C 401.703125 562.8125 403.011719 561.371094 403.011719 559.589844 C 403.011719 557.8125 401.703125 556.371094 400.085938 556.371094 C 398.464844 556.371094 397.152344 557.8125 397.152344 559.589844 " fill-opacity="1" fill-rule="nonzero"/><path fill="#f9be59" d="M 391.152344 564.085938 C 390.175781 565.503906 390.425781 567.523438 391.714844 568.597656 C 393.007812 569.671875 394.84375 569.394531 395.824219 567.976562 C 396.800781 566.5625 396.550781 564.542969 395.261719 563.464844 C 393.96875 562.390625 392.132812 562.667969 391.152344 564.085938 " fill-opacity="1" fill-rule="nonzero"/><path fill="#f9be59" d="M 384.898438 570.007812 C 383.917969 571.425781 384.171875 573.445312 385.464844 574.519531 C 386.753906 575.59375 388.59375 575.316406 389.570312 573.898438 C 390.550781 572.480469 390.296875 570.460938 389.007812 569.386719 C 387.71875 568.3125 385.875 568.589844 384.898438 570.007812 " fill-opacity="1" fill-rule="nonzero"/><path fill="#f9be59" d="M 378.566406 576.984375 C 377.589844 578.402344 377.84375 580.421875 379.128906 581.496094 C 380.421875 582.570312 382.261719 582.292969 383.242188 580.878906 C 384.214844 579.460938 383.964844 577.441406 382.675781 576.367188 C 381.382812 575.289062 379.546875 575.566406 378.566406 576.984375 " fill-opacity="1" fill-rule="nonzero"/><path fill="#2d253e" d="M 337.9375 652.773438 C 336.472656 652.773438 335.121094 651.988281 335.121094 649.957031 C 335.121094 647.929688 336.472656 647.144531 337.9375 647.144531 L 357.300781 647.144531 C 360.507812 647.144531 362.929688 649.566406 362.929688 652.773438 L 362.929688 663.585938 C 362.929688 665.835938 362.480469 667.46875 360.730469 669.042969 C 362.480469 670.621094 362.929688 672.253906 362.929688 674.507812 L 362.929688 685.316406 C 362.929688 688.527344 360.507812 690.949219 357.300781 690.949219 L 337.9375 690.949219 C 336.472656 690.949219 335.121094 690.160156 335.121094 688.132812 C 335.121094 686.105469 336.472656 685.316406 337.9375 685.316406 L 357.300781 685.316406 L 357.300781 675.96875 C 357.300781 672.816406 356.0625 671.859375 354.488281 671.859375 L 343.453125 671.859375 C 341.992188 671.859375 340.640625 671.070312 340.640625 669.042969 C 340.640625 667.019531 341.992188 666.226562 343.453125 666.226562 L 354.488281 666.226562 C 356.0625 666.226562 357.300781 665.273438 357.300781 662.121094 L 357.300781 652.773438 L 337.9375 652.773438 " fill-opacity="1" fill-rule="nonzero"/><path fill="#f0a77f" d="M 299.746094 492.789062 L 302.566406 497.714844 C 302.566406 497.714844 304.675781 498.300781 312.066406 501 C 319.453125 503.695312 324.921875 513.335938 324.921875 513.335938 L 294.046875 513.347656 C 294.046875 513.347656 293.566406 508.894531 292.867188 507.957031 C 292.167969 507.019531 283.921875 498.652344 283.921875 498.652344 C 283.921875 498.652344 286.851562 490.910156 288.378906 490.558594 C 289.90625 490.207031 299.746094 492.789062 299.746094 492.789062 " fill-opacity="1" fill-rule="nonzero"/><path fill="#468fab" d="M 302.132812 384.050781 C 302.132812 384.050781 295.347656 387.042969 290.386719 395.167969 C 285.421875 403.289062 263.519531 441.632812 261.96875 458.183594 C 261.066406 467.796875 282.886719 503.769531 285.660156 506.175781 C 288.429688 508.582031 290.070312 504.125 296 500.296875 C 300.75 497.226562 304.667969 497 304.96875 495.945312 C 305.269531 494.894531 287.078125 469.921875 286.625 458.183594 C 286.378906 451.691406 308.429688 425.097656 308.429688 425.097656 L 317.304688 390.128906 L 302.132812 384.050781 " fill-opacity="1" fill-rule="nonzero"/><path fill="#f0a77f" d="M 387.816406 492.824219 L 384.996094 497.75 C 384.996094 497.75 382.886719 498.335938 375.5 501.035156 C 368.113281 503.730469 363.464844 513.335938 363.464844 513.335938 L 393.949219 513.335938 C 393.949219 513.335938 394.503906 508.703125 395.203125 507.761719 C 395.898438 506.824219 403.644531 498.6875 403.644531 498.6875 C 403.644531 498.6875 400.710938 490.945312 399.183594 490.59375 C 397.664062 490.242188 387.816406 492.824219 387.816406 492.824219 " fill-opacity="1" fill-rule="nonzero"/><path fill="#468fab" d="M 385.367188 383.261719 C 385.367188 383.261719 392.21875 387.078125 397.183594 395.199219 C 402.144531 403.320312 424.046875 441.660156 425.601562 458.210938 C 426.503906 467.828125 404.679688 503.796875 401.910156 506.203125 C 399.136719 508.613281 397.207031 502.929688 390.984375 499.355469 C 386.902344 497.011719 382.898438 497.03125 382.597656 495.976562 C 382.296875 494.921875 400.492188 469.957031 400.941406 458.210938 C 401.1875 451.722656 379.136719 425.132812 379.136719 425.132812 L 370.265625 390.15625 L 385.367188 383.261719 " fill-opacity="1" fill-rule="nonzero"/><path fill="#3c839e" d="M 301.863281 431.089844 C 301.46875 431.089844 301.101562 430.835938 300.972656 430.4375 C 300.824219 429.972656 297.277344 418.917969 297.171875 409.222656 C 297.011719 393.871094 299.710938 388.101562 299.824219 387.867188 C 300.050781 387.398438 300.605469 387.207031 301.074219 387.429688 C 301.539062 387.652344 301.738281 388.210938 301.519531 388.679688 C 301.492188 388.734375 298.894531 394.386719 299.046875 409.199219 C 299.148438 418.605469 302.71875 429.75 302.757812 429.859375 C 302.917969 430.355469 302.644531 430.882812 302.152344 431.039062 C 302.054688 431.074219 301.957031 431.089844 301.863281 431.089844 " fill-opacity="1" fill-rule="nonzero"/><path fill="#3c839e" d="M 385.644531 433.550781 C 385.25 433.550781 384.878906 433.296875 384.75 432.898438 C 384.5625 432.304688 380.140625 418.230469 380.035156 408.535156 C 379.875 393.105469 384.671875 386.070312 384.878906 385.78125 C 385.175781 385.359375 385.757812 385.253906 386.179688 385.550781 C 386.609375 385.84375 386.710938 386.429688 386.414062 386.855469 C 386.371094 386.921875 381.753906 393.753906 381.914062 408.519531 C 382.011719 417.9375 386.496094 432.1875 386.542969 432.332031 C 386.695312 432.824219 386.421875 433.351562 385.933594 433.507812 C 385.835938 433.539062 385.738281 433.550781 385.644531 433.550781 " fill-opacity="1" fill-rule="nonzero"/><path fill="#f9be59" d="M 327.800781 541.617188 C 327.21875 541.617188 326.675781 541.304688 326.675781 540.496094 C 326.675781 539.683594 327.21875 539.367188 327.800781 539.367188 L 335.542969 539.367188 C 336.828125 539.367188 337.792969 540.335938 337.792969 541.617188 L 337.792969 545.941406 C 337.792969 546.839844 337.613281 547.496094 336.914062 548.125 C 337.613281 548.753906 337.792969 549.40625 337.792969 550.308594 L 337.792969 554.632812 C 337.792969 555.914062 336.828125 556.882812 335.542969 556.882812 L 327.800781 556.882812 C 327.21875 556.882812 326.675781 556.566406 326.675781 555.757812 C 326.675781 554.945312 327.21875 554.632812 327.800781 554.632812 L 335.542969 554.632812 L 335.542969 550.894531 C 335.542969 549.632812 335.050781 549.25 334.417969 549.25 L 330.007812 549.25 C 329.421875 549.25 328.882812 548.933594 328.882812 548.125 C 328.882812 547.3125 329.421875 547 330.007812 547 L 334.417969 547 C 335.050781 547 335.542969 546.617188 335.542969 545.359375 L 335.542969 541.617188 L 327.800781 541.617188 " fill-opacity="1" fill-rule="nonzero"/><path fill="#f9be59" d="M 351.753906 545.132812 L 351.753906 541.617188 L 345.136719 541.617188 L 345.136719 545.132812 Z M 351.753906 547.382812 L 344.007812 547.382812 C 343.382812 547.382812 342.886719 546.839844 342.886719 546.257812 L 342.886719 540.496094 C 342.886719 539.910156 343.382812 539.367188 344.007812 539.367188 L 352.878906 539.367188 C 353.507812 539.367188 354 539.910156 354 540.496094 L 354 555.757812 C 354 556.363281 353.550781 556.882812 352.878906 556.882812 L 351.753906 556.882812 C 351.074219 556.882812 350.625 556.363281 350.625 555.757812 C 350.625 555.078125 351.101562 554.632812 351.753906 554.632812 L 351.753906 547.382812 " fill-opacity="1" fill-rule="nonzero"/><path fill="#f9be59" d="M 367.960938 554.632812 L 367.960938 541.617188 L 361.347656 541.617188 L 361.347656 554.632812 Z M 367.960938 539.367188 C 369.199219 539.367188 370.214844 540.382812 370.214844 541.617188 L 370.214844 554.632812 C 370.214844 555.890625 369.246094 556.882812 367.960938 556.882812 L 361.347656 556.882812 C 360.066406 556.882812 359.097656 555.890625 359.097656 554.632812 L 359.097656 541.617188 C 359.097656 540.382812 360.109375 539.367188 361.347656 539.367188 L 367.960938 539.367188 " fill-opacity="1" fill-rule="nonzero"/><path fill="#f0a77f" d="M -94.121094 390.347656 C -94.121094 390.347656 -83.367188 393.105469 -75.917969 403.335938 C -61.269531 423.460938 -55.441406 449.554688 -49.328125 450.828125 C -47.292969 451.253906 -46.511719 449.09375 -42.433594 443.523438 C -34.277344 432.375 -21.796875 413.207031 -21.796875 413.207031 C -21.796875 413.207031 -21.289062 397.160156 -18.488281 392.324219 C -15.6875 387.480469 -11.613281 389.261719 -10.847656 389.261719 C -10.085938 389.261719 -0.0429688 379.761719 2.648438 381.472656 C 9.777344 386.015625 5.585938 397.476562 -1.425781 406.695312 C -6.8125 413.777344 -13.90625 420.085938 -13.90625 420.085938 C -13.90625 420.085938 -20.519531 441.988281 -29.535156 458.042969 C -34.628906 467.109375 -42.160156 474.0625 -45.480469 475.015625 C -60.25 479.25 -88.277344 428.339844 -88.277344 428.339844 L -94.121094 390.347656 " fill-opacity="1" fill-rule="nonzero"/><g fill="#ffffff" fill-opacity="1"><g transform="translate(160.265782, 124.432279)"><g><path d="M 16.6875 -41.59375 L 0.296875 -41.59375 L 0.296875 -51.25 L 44.953125 -51.25 L 44.953125 -41.59375 L 28.5625 -41.59375 L 28.5625 0 L 16.6875 0 Z M 16.6875 -41.59375 "/></g></g></g><g fill="#ffffff" fill-opacity="1"><g transform="translate(205.514975, 124.432279)"><g><path d="M 45.765625 -9.515625 L 45.765625 0 L 6.078125 0 L 6.078125 -51.25 L 44.8125 -51.25 L 44.8125 -41.734375 L 17.859375 -41.734375 L 17.859375 -30.609375 L 41.65625 -30.609375 L 41.65625 -21.375 L 17.859375 -21.375 L 17.859375 -9.515625 Z M 45.765625 -9.515625 "/></g></g></g><g fill="#ffffff" fill-opacity="1"><g transform="translate(254.644767, 124.432279)"><g><path d="M 30.609375 0.875 C 25.378906 0.875 20.65625 -0.257812 16.4375 -2.53125 C 12.21875 -4.800781 8.898438 -7.945312 6.484375 -11.96875 C 4.066406 -16 2.859375 -20.550781 2.859375 -25.625 C 2.859375 -30.695312 4.066406 -35.25 6.484375 -39.28125 C 8.898438 -43.3125 12.21875 -46.457031 16.4375 -48.71875 C 20.65625 -50.988281 25.398438 -52.125 30.671875 -52.125 C 35.117188 -52.125 39.132812 -51.34375 42.71875 -49.78125 C 46.3125 -48.226562 49.328125 -45.984375 51.765625 -43.046875 L 44.15625 -36.03125 C 40.6875 -40.03125 36.390625 -42.03125 31.265625 -42.03125 C 28.085938 -42.03125 25.253906 -41.332031 22.765625 -39.9375 C 20.273438 -38.550781 18.332031 -36.613281 16.9375 -34.125 C 15.550781 -31.632812 14.859375 -28.800781 14.859375 -25.625 C 14.859375 -22.457031 15.550781 -19.628906 16.9375 -17.140625 C 18.332031 -14.648438 20.273438 -12.707031 22.765625 -11.3125 C 25.253906 -9.914062 28.085938 -9.21875 31.265625 -9.21875 C 36.390625 -9.21875 40.6875 -11.242188 44.15625 -15.296875 L 51.765625 -8.28125 C 49.328125 -5.300781 46.300781 -3.03125 42.6875 -1.46875 C 39.070312 0.09375 35.046875 0.875 30.609375 0.875 Z M 30.609375 0.875 "/></g></g></g><g fill="#ffffff" fill-opacity="1"><g transform="translate(308.314121, 124.432279)"><g><path d="M 53.078125 -51.25 L 53.078125 0 L 41.21875 0 L 41.21875 -21.015625 L 17.9375 -21.015625 L 17.9375 0 L 6.078125 0 L 6.078125 -51.25 L 17.9375 -51.25 L 17.9375 -31.046875 L 41.21875 -31.046875 L 41.21875 -51.25 Z M 53.078125 -51.25 "/></g></g></g><g fill="#ffffff" fill-opacity="1"><g transform="translate(367.474877, 124.432279)"><g><path d="M 53.078125 -51.25 L 53.078125 0 L 43.34375 0 L 17.796875 -31.125 L 17.796875 0 L 6.078125 0 L 6.078125 -51.25 L 15.890625 -51.25 L 41.375 -20.140625 L 41.375 -51.25 Z M 53.078125 -51.25 "/></g></g></g><g fill="#ffffff" fill-opacity="1"><g transform="translate(426.635633, 124.432279)"><g><path d="M 6.078125 -51.25 L 17.9375 -51.25 L 17.9375 0 L 6.078125 0 Z M 6.078125 -51.25 "/></g></g></g><g fill="#ffffff" fill-opacity="1"><g transform="translate(450.651402, 124.432279)"><g><path d="M 30.609375 0.875 C 25.378906 0.875 20.65625 -0.257812 16.4375 -2.53125 C 12.21875 -4.800781 8.898438 -7.945312 6.484375 -11.96875 C 4.066406 -16 2.859375 -20.550781 2.859375 -25.625 C 2.859375 -30.695312 4.066406 -35.25 6.484375 -39.28125 C 8.898438 -43.3125 12.21875 -46.457031 16.4375 -48.71875 C 20.65625 -50.988281 25.398438 -52.125 30.671875 -52.125 C 35.117188 -52.125 39.132812 -51.34375 42.71875 -49.78125 C 46.3125 -48.226562 49.328125 -45.984375 51.765625 -43.046875 L 44.15625 -36.03125 C 40.6875 -40.03125 36.390625 -42.03125 31.265625 -42.03125 C 28.085938 -42.03125 25.253906 -41.332031 22.765625 -39.9375 C 20.273438 -38.550781 18.332031 -36.613281 16.9375 -34.125 C 15.550781 -31.632812 14.859375 -28.800781 14.859375 -25.625 C 14.859375 -22.457031 15.550781 -19.628906 16.9375 -17.140625 C 18.332031 -14.648438 20.273438 -12.707031 22.765625 -11.3125 C 25.253906 -9.914062 28.085938 -9.21875 31.265625 -9.21875 C 36.390625 -9.21875 40.6875 -11.242188 44.15625 -15.296875 L 51.765625 -8.28125 C 49.328125 -5.300781 46.300781 -3.03125 42.6875 -1.46875 C 39.070312 0.09375 35.046875 0.875 30.609375 0.875 Z M 30.609375 0.875 "/></g></g></g><g fill="#ffffff" fill-opacity="1"><g transform="translate(504.320757, 124.432279)"><g><path d="M 39.828125 -10.984375 L 16.03125 -10.984375 L 11.5 0 L -0.65625 0 L 22.1875 -51.25 L 33.90625 -51.25 L 56.8125 0 L 44.375 0 Z M 36.09375 -19.984375 L 27.96875 -39.609375 L 19.84375 -19.984375 Z M 36.09375 -19.984375 "/></g></g></g><g fill="#ffffff" fill-opacity="1"><g transform="translate(560.406326, 124.432279)"><g><path d="M 6.078125 -51.25 L 17.9375 -51.25 L 17.9375 -9.671875 L 43.640625 -9.671875 L 43.640625 0 L 6.078125 0 Z M 6.078125 -51.25 "/></g></g></g><g fill="#ffffff" fill-opacity="1"><g transform="translate(604.640759, 124.432279)"><g/></g></g><g fill="#ffffff" fill-opacity="1"><g transform="translate(296.496247, 226.432273)"><g><path d="M 61.5 5.484375 C 59.84375 7.535156 57.828125 9.097656 55.453125 10.171875 C 53.085938 11.242188 50.492188 11.78125 47.671875 11.78125 C 43.859375 11.78125 40.414062 10.960938 37.34375 9.328125 C 34.269531 7.691406 30.753906 4.800781 26.796875 0.65625 C 22.160156 0.0703125 18.023438 -1.410156 14.390625 -3.796875 C 10.753906 -6.191406 7.921875 -9.28125 5.890625 -13.0625 C 3.867188 -16.851562 2.859375 -21.039062 2.859375 -25.625 C 2.859375 -30.65625 4.066406 -35.179688 6.484375 -39.203125 C 8.898438 -43.234375 12.242188 -46.394531 16.515625 -48.6875 C 20.785156 -50.976562 25.578125 -52.125 30.890625 -52.125 C 36.210938 -52.125 41 -50.976562 45.25 -48.6875 C 49.5 -46.394531 52.84375 -43.234375 55.28125 -39.203125 C 57.71875 -35.179688 58.9375 -30.65625 58.9375 -25.625 C 58.9375 -19.664062 57.265625 -14.441406 53.921875 -9.953125 C 50.578125 -5.460938 46.148438 -2.335938 40.640625 -0.578125 C 41.859375 0.679688 43.039062 1.59375 44.1875 2.15625 C 45.332031 2.71875 46.566406 3 47.890625 3 C 51.054688 3 53.835938 1.726562 56.234375 -0.8125 Z M 14.859375 -25.625 C 14.859375 -22.457031 15.550781 -19.628906 16.9375 -17.140625 C 18.332031 -14.648438 20.25 -12.707031 22.6875 -11.3125 C 25.132812 -9.914062 27.867188 -9.21875 30.890625 -9.21875 C 33.921875 -9.21875 36.65625 -9.914062 39.09375 -11.3125 C 41.539062 -12.707031 43.457031 -14.648438 44.84375 -17.140625 C 46.238281 -19.628906 46.9375 -22.457031 46.9375 -25.625 C 46.9375 -28.800781 46.238281 -31.632812 44.84375 -34.125 C 43.457031 -36.613281 41.539062 -38.550781 39.09375 -39.9375 C 36.65625 -41.332031 33.921875 -42.03125 30.890625 -42.03125 C 27.867188 -42.03125 25.132812 -41.332031 22.6875 -39.9375 C 20.25 -38.550781 18.332031 -36.613281 16.9375 -34.125 C 15.550781 -31.632812 14.859375 -28.800781 14.859375 -25.625 Z M 14.859375 -25.625 "/></g></g></g><g fill="#ffffff" fill-opacity="1"><g transform="translate(358.292875, 226.432273)"><g><path d="M 28.84375 0.875 C 21.519531 0.875 15.820312 -1.148438 11.75 -5.203125 C 7.675781 -9.253906 5.640625 -15.035156 5.640625 -22.546875 L 5.640625 -51.25 L 17.5 -51.25 L 17.5 -22.984375 C 17.5 -13.804688 21.304688 -9.21875 28.921875 -9.21875 C 32.628906 -9.21875 35.457031 -10.328125 37.40625 -12.546875 C 39.363281 -14.773438 40.34375 -18.253906 40.34375 -22.984375 L 40.34375 -51.25 L 52.0625 -51.25 L 52.0625 -22.546875 C 52.0625 -15.035156 50.019531 -9.253906 45.9375 -5.203125 C 41.863281 -1.148438 36.164062 0.875 28.84375 0.875 Z M 28.84375 0.875 "/></g></g></g><g fill="#ffffff" fill-opacity="1"><g transform="translate(415.989257, 226.432273)"><g><path d="M 6.078125 -51.25 L 17.9375 -51.25 L 17.9375 0 L 6.078125 0 Z M 6.078125 -51.25 "/></g></g></g><g fill="#ffffff" fill-opacity="1"><g transform="translate(440.005014, 226.432273)"><g><path d="M 47.59375 -9.671875 L 47.59375 0 L 2.78125 0 L 2.78125 -7.6875 L 30.890625 -41.59375 L 3.375 -41.59375 L 3.375 -51.25 L 46.5 -51.25 L 46.5 -43.5625 L 18.453125 -9.671875 Z M 47.59375 -9.671875 "/></g></g></g></svg>