<svg xmlns="http://www.w3.org/2000/svg" xmlns:xlink="http://www.w3.org/1999/xlink" width="1080" zoomAndPan="magnify" viewBox="0 0 810 809.999993" height="1080" preserveAspectRatio="xMidYMid meet" version="1.0"><defs><g/><clipPath id="e4dbf02563"><path d="M 229 335 L 696.363281 335 L 696.363281 810 L 229 810 Z M 229 335 " clip-rule="nonzero"/></clipPath><clipPath id="6d0909260d"><path d="M 113.613281 550 L 452 550 L 452 808 L 113.613281 808 Z M 113.613281 550 " clip-rule="nonzero"/></clipPath></defs><rect x="-81" width="972" fill="#ffffff" y="-80.999999" height="971.999992" fill-opacity="1"/><rect x="-81" width="972" fill="#d9d9d9" y="-80.999999" height="971.999992" fill-opacity="1"/><g fill="#545454" fill-opacity="1"><g transform="translate(177.694492, 124.432279)"><g><path d="M 28.84375 0.875 C 21.519531 0.875 15.820312 -1.148438 11.75 -5.203125 C 7.675781 -9.253906 5.640625 -15.035156 5.640625 -22.546875 L 5.640625 -51.25 L 17.5 -51.25 L 17.5 -22.984375 C 17.5 -13.804688 21.304688 -9.21875 28.921875 -9.21875 C 32.628906 -9.21875 35.457031 -10.328125 37.40625 -12.546875 C 39.363281 -14.773438 40.34375 -18.253906 40.34375 -22.984375 L 40.34375 -51.25 L 52.0625 -51.25 L 52.0625 -22.546875 C 52.0625 -15.035156 50.019531 -9.253906 45.9375 -5.203125 C 41.863281 -1.148438 36.164062 0.875 28.84375 0.875 Z M 28.84375 0.875 "/></g></g></g><g fill="#545454" fill-opacity="1"><g transform="translate(235.390874, 124.432279)"><g><path d="M 53.078125 -51.25 L 53.078125 0 L 43.34375 0 L 17.796875 -31.125 L 17.796875 0 L 6.078125 0 L 6.078125 -51.25 L 15.890625 -51.25 L 41.375 -20.140625 L 41.375 -51.25 Z M 53.078125 -51.25 "/></g></g></g><g fill="#545454" fill-opacity="1"><g transform="translate(294.55163, 124.432279)"><g><path d="M 16.6875 -41.59375 L 0.296875 -41.59375 L 0.296875 -51.25 L 44.953125 -51.25 L 44.953125 -41.59375 L 28.5625 -41.59375 L 28.5625 0 L 16.6875 0 Z M 16.6875 -41.59375 "/></g></g></g><g fill="#545454" fill-opacity="1"><g transform="translate(339.800823, 124.432279)"><g><path d="M 6.078125 -51.25 L 17.9375 -51.25 L 17.9375 0 L 6.078125 0 Z M 6.078125 -51.25 "/></g></g></g><g fill="#545454" fill-opacity="1"><g transform="translate(363.81658, 124.432279)"><g><path d="M 45.765625 -9.515625 L 45.765625 0 L 6.078125 0 L 6.078125 -51.25 L 44.8125 -51.25 L 44.8125 -41.734375 L 17.859375 -41.734375 L 17.859375 -30.609375 L 41.65625 -30.609375 L 41.65625 -21.375 L 17.859375 -21.375 L 17.859375 -9.515625 Z M 45.765625 -9.515625 "/></g></g></g><g fill="#545454" fill-opacity="1"><g transform="translate(412.946372, 124.432279)"><g/></g></g><g fill="#545454" fill-opacity="1"><g transform="translate(433.667273, 124.432279)"><g><path d="M 16.6875 -41.59375 L 0.296875 -41.59375 L 0.296875 -51.25 L 44.953125 -51.25 L 44.953125 -41.59375 L 28.5625 -41.59375 L 28.5625 0 L 16.6875 0 Z M 16.6875 -41.59375 "/></g></g></g><g fill="#545454" fill-opacity="1"><g transform="translate(478.916477, 124.432279)"><g><path d="M 53.078125 -51.25 L 53.078125 0 L 41.21875 0 L 41.21875 -21.015625 L 17.9375 -21.015625 L 17.9375 0 L 6.078125 0 L 6.078125 -51.25 L 17.9375 -51.25 L 17.9375 -31.046875 L 41.21875 -31.046875 L 41.21875 -51.25 Z M 53.078125 -51.25 "/></g></g></g><g fill="#545454" fill-opacity="1"><g transform="translate(538.077233, 124.432279)"><g><path d="M 45.765625 -9.515625 L 45.765625 0 L 6.078125 0 L 6.078125 -51.25 L 44.8125 -51.25 L 44.8125 -41.734375 L 17.859375 -41.734375 L 17.859375 -30.609375 L 41.65625 -30.609375 L 41.65625 -21.375 L 17.859375 -21.375 L 17.859375 -9.515625 Z M 45.765625 -9.515625 "/></g></g></g><g fill="#545454" fill-opacity="1"><g transform="translate(587.217909, 124.432279)"><g/></g></g><g fill="#545454" fill-opacity="1"><g transform="translate(259.268707, 226.432273)"><g><path d="M 24.75 -20.140625 L 17.859375 -12.953125 L 17.859375 0 L 6.078125 0 L 6.078125 -51.25 L 17.859375 -51.25 L 17.859375 -27.3125 L 40.5625 -51.25 L 53.75 -51.25 L 32.515625 -28.40625 L 54.984375 0 L 41.15625 0 Z M 24.75 -20.140625 "/></g></g></g><g fill="#545454" fill-opacity="1"><g transform="translate(313.450585, 226.432273)"><g><path d="M 53.078125 -51.25 L 53.078125 0 L 43.34375 0 L 17.796875 -31.125 L 17.796875 0 L 6.078125 0 L 6.078125 -51.25 L 15.890625 -51.25 L 41.375 -20.140625 L 41.375 -51.25 Z M 53.078125 -51.25 "/></g></g></g><g fill="#545454" fill-opacity="1"><g transform="translate(372.611341, 226.432273)"><g><path d="M 30.890625 0.875 C 25.578125 0.875 20.785156 -0.269531 16.515625 -2.5625 C 12.242188 -4.851562 8.898438 -8.007812 6.484375 -12.03125 C 4.066406 -16.0625 2.859375 -20.59375 2.859375 -25.625 C 2.859375 -30.65625 4.066406 -35.179688 6.484375 -39.203125 C 8.898438 -43.234375 12.242188 -46.394531 16.515625 -48.6875 C 20.785156 -50.976562 25.578125 -52.125 30.890625 -52.125 C 36.210938 -52.125 41 -50.976562 45.25 -48.6875 C 49.5 -46.394531 52.84375 -43.234375 55.28125 -39.203125 C 57.71875 -35.179688 58.9375 -30.65625 58.9375 -25.625 C 58.9375 -20.59375 57.71875 -16.0625 55.28125 -12.03125 C 52.84375 -8.007812 49.5 -4.851562 45.25 -2.5625 C 41 -0.269531 36.210938 0.875 30.890625 0.875 Z M 30.890625 -9.21875 C 33.921875 -9.21875 36.65625 -9.914062 39.09375 -11.3125 C 41.539062 -12.707031 43.457031 -14.648438 44.84375 -17.140625 C 46.238281 -19.628906 46.9375 -22.457031 46.9375 -25.625 C 46.9375 -28.800781 46.238281 -31.632812 44.84375 -34.125 C 43.457031 -36.613281 41.539062 -38.550781 39.09375 -39.9375 C 36.65625 -41.332031 33.921875 -42.03125 30.890625 -42.03125 C 27.867188 -42.03125 25.132812 -41.332031 22.6875 -39.9375 C 20.25 -38.550781 18.332031 -36.613281 16.9375 -34.125 C 15.550781 -31.632812 14.859375 -28.800781 14.859375 -25.625 C 14.859375 -22.457031 15.550781 -19.628906 16.9375 -17.140625 C 18.332031 -14.648438 20.25 -12.707031 22.6875 -11.3125 C 25.132812 -9.914062 27.867188 -9.21875 30.890625 -9.21875 Z M 30.890625 -9.21875 "/></g></g></g><g fill="#545454" fill-opacity="1"><g transform="translate(434.407969, 226.432273)"><g><path d="M 16.6875 -41.59375 L 0.296875 -41.59375 L 0.296875 -51.25 L 44.953125 -51.25 L 44.953125 -41.59375 L 28.5625 -41.59375 L 28.5625 0 L 16.6875 0 Z M 16.6875 -41.59375 "/></g></g></g><g fill="#545454" fill-opacity="1"><g transform="translate(479.657162, 226.432273)"><g><path d="M 22.921875 0.875 C 18.867188 0.875 14.945312 0.328125 11.15625 -0.765625 C 7.375 -1.867188 4.335938 -3.296875 2.046875 -5.046875 L 6.078125 -13.984375 C 8.273438 -12.367188 10.882812 -11.070312 13.90625 -10.09375 C 16.9375 -9.125 19.960938 -8.640625 22.984375 -8.640625 C 26.359375 -8.640625 28.847656 -9.140625 30.453125 -10.140625 C 32.066406 -11.140625 32.875 -12.46875 32.875 -14.125 C 32.875 -15.351562 32.394531 -16.367188 31.4375 -17.171875 C 30.488281 -17.972656 29.269531 -18.617188 27.78125 -19.109375 C 26.289062 -19.597656 24.28125 -20.132812 21.75 -20.71875 C 17.84375 -21.644531 14.644531 -22.570312 12.15625 -23.5 C 9.664062 -24.425781 7.53125 -25.914062 5.75 -27.96875 C 3.96875 -30.019531 3.078125 -32.753906 3.078125 -36.171875 C 3.078125 -39.148438 3.878906 -41.847656 5.484375 -44.265625 C 7.097656 -46.679688 9.523438 -48.59375 12.765625 -50 C 16.015625 -51.414062 19.984375 -52.125 24.671875 -52.125 C 27.941406 -52.125 31.140625 -51.734375 34.265625 -50.953125 C 37.390625 -50.171875 40.125 -49.050781 42.46875 -47.59375 L 38.8125 -38.59375 C 34.070312 -41.269531 29.332031 -42.609375 24.59375 -42.609375 C 21.28125 -42.609375 18.828125 -42.070312 17.234375 -41 C 15.648438 -39.925781 14.859375 -38.507812 14.859375 -36.75 C 14.859375 -35 15.773438 -33.695312 17.609375 -32.84375 C 19.441406 -31.988281 22.238281 -31.144531 26 -30.3125 C 29.894531 -29.382812 33.085938 -28.457031 35.578125 -27.53125 C 38.066406 -26.601562 40.203125 -25.140625 41.984375 -23.140625 C 43.765625 -21.140625 44.65625 -18.429688 44.65625 -15.015625 C 44.65625 -12.078125 43.835938 -9.398438 42.203125 -6.984375 C 40.578125 -4.578125 38.128906 -2.664062 34.859375 -1.25 C 31.585938 0.164062 27.609375 0.875 22.921875 0.875 Z M 22.921875 0.875 "/></g></g></g><path fill="#482a65" d="M 293.414062 506.597656 C 290.746094 504.105469 238.820312 454.878906 226.660156 392.648438 L 199.226562 496.464844 C 196.019531 503.734375 195.714844 512.261719 199.136719 520.125 L 244.023438 623.234375 L 194.148438 731.117188 C 187.316406 745.898438 193.757812 763.417969 208.539062 770.25 C 212.542969 772.101562 216.75 772.976562 220.890625 772.976562 C 232.027344 772.976562 242.6875 766.632812 247.671875 755.859375 L 303.09375 635.96875 C 306.625 628.332031 306.726562 619.546875 303.363281 611.832031 L 283.386719 565.945312 L 341.515625 630.207031 L 344.742188 741.980469 C 345.203125 757.96875 358.308594 770.613281 374.195312 770.613281 C 374.484375 770.613281 374.773438 770.605469 375.0625 770.601562 C 391.335938 770.128906 404.152344 756.554688 403.679688 740.28125 L 400.144531 617.640625 C 399.941406 610.625 397.242188 603.914062 392.539062 598.710938 L 324.144531 523.101562 L 325.566406 517.707031 C 318.742188 515.894531 311.707031 514.148438 304.582031 512.519531 C 300.402344 511.566406 296.542969 509.515625 293.414062 506.597656 Z M 293.414062 506.597656 " fill-opacity="1" fill-rule="nonzero"/><path fill="#482a65" d="M 389.550781 303.617188 C 389.8125 305.335938 389.992188 307.0625 390.085938 308.796875 C 390.179688 310.535156 390.1875 312.269531 390.109375 314.007812 C 390.03125 315.742188 389.871094 317.46875 389.625 319.191406 C 389.378906 320.910156 389.046875 322.617188 388.632812 324.304688 C 388.21875 325.992188 387.722656 327.65625 387.144531 329.292969 C 386.566406 330.933594 385.910156 332.539062 385.175781 334.113281 C 384.441406 335.6875 383.628906 337.222656 382.742188 338.71875 C 381.855469 340.214844 380.898438 341.664062 379.871094 343.0625 C 378.839844 344.464844 377.746094 345.8125 376.585938 347.105469 C 375.425781 348.398438 374.203125 349.632812 372.921875 350.804688 C 371.640625 351.976562 370.300781 353.085938 368.910156 354.128906 C 367.519531 355.167969 366.082031 356.140625 364.59375 357.042969 C 363.109375 357.941406 361.582031 358.769531 360.015625 359.519531 C 358.445312 360.269531 356.847656 360.941406 355.214844 361.535156 C 353.578125 362.128906 351.921875 362.640625 350.238281 363.070312 C 348.554688 363.5 346.851562 363.847656 345.132812 364.109375 C 343.417969 364.375 341.691406 364.550781 339.953125 364.644531 C 338.21875 364.738281 336.484375 364.746094 334.746094 364.671875 C 333.011719 364.59375 331.28125 364.433594 329.5625 364.183594 C 327.839844 363.9375 326.136719 363.609375 324.449219 363.195312 C 322.761719 362.78125 321.097656 362.285156 319.457031 361.707031 C 317.820312 361.128906 316.210938 360.472656 314.636719 359.738281 C 313.0625 359 311.527344 358.191406 310.035156 357.304688 C 308.539062 356.417969 307.089844 355.460938 305.691406 354.429688 C 304.289062 353.402344 302.941406 352.308594 301.648438 351.148438 C 300.355469 349.984375 299.121094 348.765625 297.949219 347.484375 C 296.773438 346.199219 295.667969 344.863281 294.625 343.472656 C 293.582031 342.082031 292.613281 340.644531 291.710938 339.15625 C 290.808594 337.671875 289.984375 336.144531 289.234375 334.574219 C 288.484375 333.007812 287.8125 331.40625 287.21875 329.773438 C 286.625 328.140625 286.113281 326.480469 285.683594 324.796875 C 285.253906 323.113281 284.90625 321.414062 284.640625 319.695312 C 284.378906 317.976562 284.199219 316.25 284.105469 314.515625 C 284.011719 312.78125 284.003906 311.042969 284.082031 309.308594 C 284.160156 307.570312 284.320312 305.84375 284.566406 304.121094 C 284.8125 302.402344 285.144531 300.699219 285.558594 299.011719 C 285.972656 297.324219 286.46875 295.660156 287.046875 294.019531 C 287.625 292.378906 288.28125 290.773438 289.015625 289.199219 C 289.75 287.625 290.5625 286.089844 291.449219 284.59375 C 292.335938 283.101562 293.292969 281.652344 294.320312 280.25 C 295.351562 278.851562 296.445312 277.503906 297.605469 276.210938 C 298.765625 274.917969 299.988281 273.683594 301.269531 272.507812 C 302.550781 271.335938 303.886719 270.226562 305.28125 269.1875 C 306.671875 268.144531 308.109375 267.171875 309.59375 266.273438 C 311.082031 265.371094 312.609375 264.546875 314.175781 263.796875 C 315.742188 263.042969 317.34375 262.371094 318.976562 261.78125 C 320.613281 261.1875 322.269531 260.675781 323.953125 260.242188 C 325.636719 259.8125 327.339844 259.464844 329.058594 259.203125 C 330.773438 258.941406 332.5 258.761719 334.238281 258.667969 C 335.972656 258.574219 337.707031 258.566406 339.445312 258.644531 C 341.179688 258.71875 342.910156 258.882812 344.628906 259.128906 C 346.351562 259.375 348.054688 259.707031 349.742188 260.121094 C 351.429688 260.535156 353.09375 261.03125 354.734375 261.609375 C 356.371094 262.183594 357.980469 262.839844 359.554688 263.578125 C 361.128906 264.3125 362.664062 265.125 364.15625 266.011719 C 365.652344 266.894531 367.101562 267.855469 368.5 268.882812 C 369.902344 269.910156 371.25 271.003906 372.542969 272.167969 C 373.835938 273.328125 375.070312 274.550781 376.242188 275.832031 C 377.417969 277.113281 378.523438 278.449219 379.566406 279.839844 C 380.609375 281.230469 381.578125 282.671875 382.480469 284.15625 C 383.378906 285.644531 384.207031 287.171875 384.957031 288.738281 C 385.707031 290.304688 386.378906 291.90625 386.972656 293.539062 C 387.566406 295.171875 388.078125 296.832031 388.507812 298.515625 C 388.9375 300.199219 389.285156 301.898438 389.550781 303.617188 Z M 389.550781 303.617188 " fill-opacity="1" fill-rule="nonzero"/><g clip-path="url(#e4dbf02563)"><path fill="#482a65" d="M 462.167969 786.960938 C 466.394531 782.90625 487.847656 776.03125 518.984375 771.335938 C 525.796875 776.617188 533.769531 779.503906 542.789062 779.929688 C 574.851562 781.449219 606.386719 781.609375 631.589844 780.386719 C 671.175781 778.457031 671.386719 774.574219 671.550781 771.457031 C 671.789062 767.023438 666.503906 765.402344 656.007812 763.804688 C 646.664062 762.382812 632.675781 761.105469 614.441406 760.015625 C 581.554688 758.039062 548.503906 760.003906 521.089844 763.871094 C 519.960938 762.835938 518.867188 761.710938 517.808594 760.496094 C 487.503906 725.660156 496.445312 628.003906 501.785156 569.660156 C 503.566406 550.238281 504.511719 538.722656 504.492188 531.710938 C 507.3125 529.898438 509.691406 527.335938 511.261719 524.101562 C 515.234375 515.917969 515.335938 506.691406 511.558594 498.117188 C 499.992188 471.871094 448.035156 452.589844 421.007812 444.140625 L 356.082031 366.945312 C 350.128906 368.984375 343.777344 370.144531 337.164062 370.144531 C 334.96875 370.144531 332.746094 370.019531 330.550781 369.769531 C 312.757812 367.765625 297.722656 357.925781 288.472656 344.09375 L 257.136719 337.003906 C 257.164062 337.132812 257.195312 337.242188 257.222656 337.367188 C 255.535156 336.582031 253.707031 336.035156 251.769531 335.769531 C 241.414062 334.359375 231.9375 341.605469 230.535156 351.929688 C 220 429.648438 293.960938 499.6875 297.113281 502.628906 C 299.550781 504.902344 302.546875 506.488281 305.789062 507.230469 C 349.023438 517.105469 392.933594 532.328125 401.5 540.3125 C 404.589844 547.09375 411.378906 551.332031 418.648438 551.332031 C 420.484375 551.332031 422.355469 551.058594 424.207031 550.492188 C 434.164062 547.425781 439.753906 536.867188 436.6875 526.90625 C 432.605469 513.640625 419.308594 501.449219 367.691406 485.070312 C 347.792969 478.753906 328.570312 473.894531 319.527344 471.707031 C 309.671875 461.535156 280.941406 429.492188 270.828125 392.546875 L 275.90625 390.847656 C 285.101562 425.046875 311.339844 455.269531 322.34375 466.808594 C 326.382812 467.796875 331.761719 469.148438 337.960938 470.800781 L 351.386719 419.992188 L 395.71875 472.703125 C 398.097656 475.527344 401.246094 477.59375 404.785156 478.644531 C 436.066406 487.941406 468.269531 503.070312 475.871094 511.75 C 474.101562 519.632812 477.59375 527.953125 484.746094 532.136719 C 481.082031 541.359375 481.175781 554.492188 485.277344 566.632812 C 491.210938 584.1875 483.839844 611.179688 479.113281 623 L 485.683594 625.625 C 487.625 620.765625 489.828125 614.039062 491.550781 606.511719 C 487.324219 664.027344 486.308594 735.074219 512.472656 765.136719 C 512.480469 765.148438 512.492188 765.160156 512.5 765.171875 C 481.746094 770.171875 459.644531 777.519531 455.589844 783.917969 C 454.347656 785.882812 454.230469 788.09375 455.265625 789.984375 C 457.070312 793.273438 462.773438 797.0625 491.085938 797.140625 C 603.945312 797.457031 681.09375 802.371094 692.429688 809.972656 L 696.371094 804.09375 C 678.832031 792.335938 560.238281 790.257812 491.105469 790.066406 C 470.71875 790.007812 464.144531 787.941406 462.167969 786.960938 Z M 614.015625 767.074219 C 637.320312 768.472656 650.09375 769.953125 657.085938 771.128906 C 640.003906 773.542969 598.769531 775.503906 543.125 772.863281 C 538.34375 772.636719 533.984375 771.628906 530.003906 769.820312 C 554.28125 766.792969 583.273438 765.234375 614.015625 767.074219 Z M 494.199219 574.933594 C 493.8125 571.234375 493.097656 567.675781 491.980469 564.367188 C 488.453125 553.929688 488.320312 542.050781 491.410156 534.488281 C 492.367188 534.636719 493.320312 534.738281 494.273438 534.738281 C 495.324219 534.738281 496.363281 534.621094 497.390625 534.449219 C 497.136719 542.847656 495.925781 556.070312 494.742188 569.011719 C 494.5625 570.945312 494.382812 572.921875 494.199219 574.933594 Z M 494.199219 574.933594 " fill-opacity="1" fill-rule="nonzero"/></g><g clip-path="url(#6d0909260d)"><path fill="#482a65" d="M 422.550781 556.429688 C 423.082031 560.316406 423.816406 564.90625 424.75 570.34375 C 424.085938 573.75 423.414062 577.023438 422.828125 579.871094 C 419.242188 597.332031 415.859375 613.820312 418.253906 621.761719 L 425.027344 619.714844 C 423.476562 614.574219 425.601562 602.011719 428.132812 589.296875 C 428.277344 590.082031 428.421875 590.882812 428.570312 591.691406 C 438.96875 648.457031 456.375 743.457031 431.078125 778.828125 C 425.578125 786.515625 418.480469 790.910156 409.378906 792.269531 C 341.71875 802.347656 303.050781 801.058594 271.972656 800.027344 C 265.25 799.800781 258.898438 799.59375 252.605469 799.5 C 236.710938 799.269531 215.214844 794.546875 192.460938 789.546875 C 164.65625 783.441406 135.898438 777.136719 113.726562 778.210938 L 114.070312 785.277344 C 135.316406 784.230469 163.59375 790.453125 190.941406 796.460938 C 214.058594 801.535156 235.890625 806.332031 252.5 806.574219 C 258.730469 806.664062 265.046875 806.875 271.738281 807.097656 C 281.796875 807.433594 292.640625 807.792969 304.992188 807.792969 C 331.144531 807.792969 364.035156 806.175781 410.421875 799.265625 C 421.363281 797.636719 430.25 792.144531 436.832031 782.945312 C 463.875 745.136719 446.816406 652.027344 435.53125 590.417969 C 434.289062 583.644531 433.035156 576.800781 431.9375 570.449219 C 433.484375 562.457031 434.570312 555.804688 434.894531 550.484375 C 432.347656 552.789062 429.292969 554.601562 425.800781 555.675781 C 424.734375 556.003906 423.644531 556.25 422.550781 556.429688 Z M 422.550781 556.429688 " fill-opacity="1" fill-rule="nonzero"/></g></svg>