<svg xmlns="http://www.w3.org/2000/svg" xmlns:xlink="http://www.w3.org/1999/xlink" width="1080" zoomAndPan="magnify" viewBox="0 0 810 809.999993" height="1080" preserveAspectRatio="xMidYMid meet" version="1.0"><defs><g/><clipPath id="6d1d8d8707"><path d="M 383 196.722656 L 498 196.722656 L 498 278 L 383 278 Z M 383 196.722656 " clip-rule="nonzero"/></clipPath><clipPath id="0238563134"><path d="M 0 196.722656 L 384 196.722656 L 384 810 L 0 810 Z M 0 196.722656 " clip-rule="nonzero"/></clipPath><clipPath id="650a78939b"><path d="M 489 749 L 787.386719 749 L 787.386719 810 L 489 810 Z M 489 749 " clip-rule="nonzero"/></clipPath></defs><rect x="-81" width="972" fill="#ffffff" y="-80.999999" height="971.999992" fill-opacity="1"/><rect x="-81" width="972" fill="#545454" y="-80.999999" height="971.999992" fill-opacity="1"/><path fill="#eaecff" d="M 280.054688 878.054688 L 233.386719 878.054688 L 243.132812 857.105469 L 225.863281 821.703125 L 314.621094 766.617188 L 394.808594 812.605469 L 280.054688 878.054688 " fill-opacity="1" fill-rule="nonzero"/><path fill="#eaecff" d="M 62.195312 857.90625 L 15.53125 857.90625 L 25.277344 836.957031 L 8.003906 801.554688 L 383.542969 645.539062 L 484.96875 704.121094 L 331.839844 704.121094 L 62.195312 857.90625 " fill-opacity="1" fill-rule="nonzero"/><path fill="#a0ace2" d="M 497.914062 262.65625 L 497.914062 277.921875 L 612.285156 212.347656 L 598.292969 204.671875 L 497.914062 262.65625 " fill-opacity="1" fill-rule="nonzero"/><g clip-path="url(#6d1d8d8707)"><path fill="#7e87c5" d="M 497.914062 262.789062 L 497.914062 277.921875 L 383.542969 212.492188 L 383.542969 196.726562 L 497.914062 262.789062 " fill-opacity="1" fill-rule="nonzero"/></g><path fill="#eaecff" d="M 497.914062 277.921875 L 497.9375 710.875 L 612.308594 644.8125 L 612.285156 212.347656 L 497.914062 277.921875 " fill-opacity="1" fill-rule="nonzero"/><path fill="#a0ace2" d="M 497.914062 277.921875 L 497.914062 711.605469 L 383.542969 645.539062 L 383.542969 212.492188 L 497.914062 277.921875 " fill-opacity="1" fill-rule="nonzero"/><g clip-path="url(#0238563134)"><path fill="#a0ace2" d="M 383.542969 212.492188 L 383.542969 196.726562 L 0.105469 418.175781 L 0.105469 851.226562 L 15.894531 857.90625 L 15.894531 424.855469 L 383.542969 212.492188 " fill-opacity="1" fill-rule="nonzero"/></g><path fill="#ced4f0" d="M 383.542969 212.492188 L 15.894531 424.855469 L 15.894531 857.90625 L 383.542969 645.539062 L 383.542969 212.492188 " fill-opacity="1" fill-rule="nonzero"/><path fill="#a0ace2" d="M 180.488281 404.566406 L 180.488281 533.554688 L 101.992188 578.902344 L 101.992188 449.914062 L 180.488281 404.566406 " fill-opacity="1" fill-rule="nonzero"/><path fill="#7e87c5" d="M 315.957031 325.117188 L 315.957031 454.105469 L 237.457031 499.453125 L 237.457031 370.464844 L 315.957031 325.117188 " fill-opacity="1" fill-rule="nonzero"/><path fill="#c5cef6" d="M 585.195312 274.707031 L 585.195312 373.609375 L 525.003906 408.378906 L 525.003906 309.480469 L 585.195312 274.707031 " fill-opacity="1" fill-rule="nonzero"/><path fill="#c5cef6" d="M 585.195312 422.707031 L 585.195312 521.609375 L 525.003906 556.382812 L 525.003906 457.476562 L 585.195312 422.707031 " fill-opacity="1" fill-rule="nonzero"/><path fill="#7e87c5" d="M 180.488281 586.117188 L 180.488281 715.101562 L 101.992188 760.449219 L 101.992188 631.460938 L 180.488281 586.117188 " fill-opacity="1" fill-rule="nonzero"/><path fill="#a0ace2" d="M 315.957031 506.664062 L 315.957031 635.652344 L 237.457031 681 L 237.457031 552.011719 L 315.957031 506.664062 " fill-opacity="1" fill-rule="nonzero"/><path fill="#7e87c5" d="M 332.617188 808.125 L 272.210938 776.636719 C 268.195312 774.3125 263.246094 774.296875 259.21875 776.601562 L 169.863281 825.96875 L 169.21875 817.027344 L 150.09375 823.464844 L 150.09375 829.871094 C 150.121094 832.828125 151.210938 835.808594 153.480469 837.105469 L 225.523438 876.859375 C 229.546875 879.160156 234.492188 879.148438 238.503906 876.824219 L 342.796875 815.367188 C 345.707031 813.511719 346.710938 810.757812 346.617188 808.148438 L 346.636719 801.980469 L 332.617188 808.125 " fill-opacity="1" fill-rule="nonzero"/><path fill="#c5cef6" d="M 346.632812 801.714844 C 346.632812 803.914062 345.554688 806.070312 343.394531 807.351562 L 275.617188 847.292969 L 246.800781 864.285156 L 238.6875 869.039062 C 238.449219 869.203125 238.210938 869.320312 237.933594 869.402344 C 235.453125 870.679688 232.652344 871.082031 229.976562 870.601562 C 228.460938 870.363281 227.023438 869.882812 225.664062 869.082031 L 224.222656 868.285156 L 153.410156 829.183594 C 149.011719 826.660156 149.011719 820.347656 153.410156 817.828125 L 173.988281 806.070312 L 224.222656 776.644531 L 229.976562 773.289062 L 248.28125 762.574219 L 259.511719 756.136719 C 263.546875 753.816406 268.503906 753.859375 272.539062 756.175781 L 293.203125 767.8125 L 343.394531 796.074219 C 345.554688 797.355469 346.632812 799.515625 346.632812 801.714844 " fill-opacity="1" fill-rule="nonzero"/><path fill="#7e87c5" d="M 306.667969 538.042969 L 190.015625 606.527344 L 229.976562 870.601562 C 228.460938 870.363281 227.023438 869.882812 225.664062 869.082031 L 224.222656 868.285156 L 184.257812 603.289062 L 300.914062 534.804688 L 306.667969 538.042969 " fill-opacity="1" fill-rule="nonzero"/><path fill="#a0ace2" d="M 306.667969 538.042969 L 346.632812 801.714844 C 346.632812 803.914062 345.554688 806.070312 343.394531 807.351562 L 275.617188 847.292969 L 237.933594 869.402344 C 235.453125 870.679688 232.652344 871.082031 229.976562 870.601562 L 190.015625 606.527344 L 306.667969 538.042969 " fill-opacity="1" fill-rule="nonzero"/><path fill="#7e87c5" d="M 347.457031 569.070312 L 328.527344 574.757812 L 259.609375 514.707031 C 251.894531 507.988281 240.769531 506.902344 231.90625 512 L 169.085938 548.148438 L 143.734375 541.578125 L 143.78125 569.078125 C 143.605469 572.582031 144.914062 576.179688 147.878906 578.746094 L 233.308594 652.679688 C 241.132812 659.457031 252.421875 660.441406 261.308594 655.121094 L 341.644531 607.019531 C 345.664062 604.613281 347.585938 600.355469 347.390625 596.148438 L 347.457031 569.070312 " fill-opacity="1" fill-rule="nonzero"/><path fill="#f2f3ff" d="M 149.742188 531.292969 L 231.90625 484.015625 C 240.769531 478.917969 251.894531 480 259.609375 486.722656 L 343.363281 559.695312 C 349.507812 565.050781 348.636719 574.84375 341.644531 579.03125 L 261.308594 627.136719 C 252.421875 632.453125 241.132812 631.46875 233.308594 624.691406 L 147.878906 550.757812 C 141.632812 545.355469 142.589844 535.40625 149.742188 531.292969 " fill-opacity="1" fill-rule="nonzero"/><path fill="#5278ff" d="M 225.863281 566.941406 L 254.324219 550.699219 L 289.042969 580.949219 L 261.285156 597.597656 L 225.863281 566.941406 " fill-opacity="1" fill-rule="nonzero"/><path fill="#5278ff" d="M 162.851562 543.492188 L 191.3125 527.25 L 226.027344 557.496094 L 198.273438 574.148438 L 162.851562 543.492188 " fill-opacity="1" fill-rule="nonzero"/><path fill="#c5cef6" d="M 216.871094 582.882812 L 245.332031 566.640625 L 280.054688 596.890625 L 252.292969 613.542969 L 216.871094 582.882812 " fill-opacity="1" fill-rule="nonzero"/><path fill="#ff4a59" d="M 231.660156 518.808594 L 260.121094 502.5625 L 294.839844 532.8125 L 267.082031 549.464844 L 231.660156 518.808594 " fill-opacity="1" fill-rule="nonzero"/><path fill="#292d4c" d="M 79.585938 405.214844 L 43.160156 384.789062 L 43.140625 393.433594 L 36.859375 396.996094 L 36.949219 378.285156 C 36.949219 378.101562 36.996094 377.871094 37.132812 377.6875 C 37.546875 377.046875 38.742188 376.582031 40.121094 376.582031 C 40.882812 376.582031 41.570312 376.765625 42.109375 377.03125 L 82.683594 399.753906 C 88.097656 402.886719 91.457031 408.714844 91.457031 414.964844 L 91.457031 417.398438 L 91.773438 417.21875 C 93.203125 416.390625 94.8125 416.503906 96.0625 417.238281 L 102.066406 420.6875 L 98.152344 423.796875 L 98.152344 426.367188 C 98.152344 429.40625 96.53125 432.210938 93.898438 433.730469 L 83.554688 438.039062 C 83.4375 438.105469 84.183594 439.355469 84.066406 439.414062 L 83.449219 444.90625 L 76.863281 441.277344 C 75.550781 440.582031 74.589844 439.21875 74.589844 437.519531 L 74.589844 432.050781 C 74.589844 429.011719 76.210938 426.203125 78.84375 424.6875 L 85.183594 421.019531 L 85.183594 414.964844 C 85.183594 410.945312 83.023438 407.199219 79.585938 405.214844 " fill-opacity="1" fill-rule="nonzero"/><path fill="#343b65" d="M 80.699219 435.460938 L 80.699219 440.929688 C 80.699219 444.203125 84.242188 446.246094 87.078125 444.613281 L 100.007812 437.140625 C 102.640625 435.625 104.257812 432.8125 104.257812 429.773438 L 104.257812 424.308594 C 104.257812 421.035156 100.714844 418.988281 97.886719 420.628906 L 84.953125 428.097656 C 82.320312 429.617188 80.699219 432.421875 80.699219 435.460938 " fill-opacity="1" fill-rule="nonzero"/><path fill="#292d4c" d="M 351.632812 248.203125 L 315.210938 227.773438 L 315.191406 236.992188 L 308.910156 240.554688 L 309.003906 221.273438 C 309.003906 221.089844 309.046875 220.859375 309.1875 220.675781 C 309.597656 220.035156 310.796875 219.570312 312.171875 219.570312 C 312.933594 219.570312 313.625 219.75 314.164062 220.015625 L 354.734375 242.742188 C 360.148438 245.875 363.511719 251.699219 363.511719 257.953125 L 363.511719 260.386719 L 363.824219 260.203125 C 365.257812 259.378906 366.867188 259.492188 368.109375 260.226562 L 374.117188 263.675781 L 370.199219 266.785156 L 370.199219 269.355469 C 370.199219 272.390625 368.578125 275.199219 365.949219 276.71875 L 355.609375 281.023438 C 355.492188 281.09375 356.234375 282.34375 356.113281 282.398438 L 355.5 287.894531 L 348.917969 284.265625 C 347.601562 283.570312 346.640625 282.207031 346.640625 280.507812 L 346.640625 275.039062 C 346.640625 272 348.261719 269.191406 350.890625 267.671875 L 357.238281 264.007812 L 357.238281 257.953125 C 357.238281 253.933594 355.078125 250.1875 351.632812 248.203125 " fill-opacity="1" fill-rule="nonzero"/><path fill="#343b65" d="M 352.75 278.449219 L 352.75 283.914062 C 352.75 287.191406 356.296875 289.234375 359.125 287.601562 L 372.058594 280.128906 C 374.691406 278.609375 376.3125 275.800781 376.3125 272.761719 L 376.3125 267.296875 C 376.3125 264.023438 372.769531 261.976562 369.933594 263.613281 L 357.003906 271.082031 C 354.371094 272.605469 352.75 275.410156 352.75 278.449219 " fill-opacity="1" fill-rule="nonzero"/><path fill="#292d4c" d="M 215.609375 326.710938 L 179.183594 306.28125 L 179.164062 314.925781 L 172.882812 318.488281 L 172.972656 299.78125 C 172.972656 299.597656 173.023438 299.363281 173.160156 299.183594 C 173.574219 298.539062 174.769531 298.078125 176.148438 298.078125 C 176.910156 298.078125 177.59375 298.257812 178.136719 298.523438 L 218.710938 321.25 C 224.121094 324.378906 227.484375 330.207031 227.484375 336.457031 L 227.484375 338.890625 L 227.800781 338.710938 C 229.230469 337.882812 230.84375 337.996094 232.085938 338.734375 L 238.09375 342.183594 L 234.175781 345.289062 L 234.175781 347.859375 C 234.175781 350.898438 232.554688 353.703125 229.921875 355.226562 L 219.582031 359.53125 C 219.460938 359.601562 220.210938 360.851562 220.089844 360.90625 L 219.472656 366.398438 L 212.890625 362.773438 C 211.574219 362.078125 210.617188 360.714844 210.617188 359.011719 L 210.617188 353.546875 C 210.617188 350.507812 212.234375 347.699219 214.867188 346.179688 L 221.207031 342.515625 L 221.207031 336.457031 C 221.207031 332.4375 219.050781 328.691406 215.609375 326.710938 " fill-opacity="1" fill-rule="nonzero"/><path fill="#343b65" d="M 216.726562 356.953125 L 216.726562 362.421875 C 216.726562 365.695312 220.265625 367.738281 223.101562 366.105469 L 236.035156 358.632812 C 238.664062 357.117188 240.285156 354.304688 240.285156 351.269531 L 240.285156 345.800781 C 240.285156 342.53125 236.742188 340.484375 233.910156 342.121094 L 220.976562 349.589844 C 218.347656 351.109375 216.726562 353.914062 216.726562 356.953125 " fill-opacity="1" fill-rule="nonzero"/><path fill="#292d4c" d="M 472.203125 790.457031 C 474.132812 784.214844 479.011719 780.183594 483.101562 781.449219 C 487.195312 782.710938 487.71875 788.46875 487.019531 795.042969 C 486.890625 796.265625 486.183594 797.308594 485.636719 798.296875 C 484.472656 800.386719 483.925781 802.753906 483.953125 805.144531 C 483.96875 806.980469 483.691406 808.953125 483.078125 810.941406 C 481.757812 815.199219 477.511719 818.015625 474.394531 819.5625 C 466.679688 823.402344 473.714844 830.589844 467.367188 817.078125 C 465.632812 813.386719 464.765625 807.8125 467.214844 803.382812 C 468.214844 801.574219 471.839844 791.632812 472.203125 790.457031 " fill-opacity="1" fill-rule="nonzero"/><path fill="#292d4c" d="M 510.691406 781.523438 C 511.636719 782.199219 512.980469 783.792969 513.960938 784.820312 C 516.234375 787.207031 519.402344 788.609375 522.632812 789.742188 C 527.097656 791.304688 530.707031 791.648438 533.277344 790.984375 C 535.765625 790.339844 536.820312 787.394531 535.355469 785.28125 C 533.9375 783.242188 531.304688 780.515625 527.78125 777.429688 C 525.765625 775.667969 523.890625 774.054688 522.394531 772.777344 C 520.261719 770.964844 518.90625 768.394531 518.652344 765.609375 C 518.511719 764.078125 518.320312 762.710938 518.082031 762.621094 C 512.632812 760.554688 504.871094 761.691406 503.480469 764.328125 C 503.480469 764.328125 501.9375 772.429688 501.9375 774.429688 C 501.9375 775.703125 502.324219 777.828125 504.671875 778.726562 C 506.136719 779.285156 508.492188 779.945312 510.691406 781.523438 " fill-opacity="1" fill-rule="nonzero"/><path fill="#fcbac0" d="M 589.804688 553.699219 C 589.605469 553.320312 589.273438 553.058594 588.894531 552.941406 C 590.183594 551.164062 590.757812 549.550781 590.28125 548.28125 C 588.546875 543.625 573.242188 551.816406 573.242188 551.816406 C 573.242188 551.816406 575.484375 548.71875 576.300781 547.738281 C 577.214844 546.632812 577.21875 545.125 576.652344 544.414062 C 575.558594 543.042969 573.53125 544.265625 572.964844 545.117188 L 566.550781 551.34375 C 565.679688 552.1875 564.949219 553.167969 564.398438 554.246094 L 563.308594 556.355469 C 562.105469 558.699219 560.277344 560.660156 558.03125 562.027344 C 558.03125 562.027344 556.242188 563.164062 553.507812 564.871094 L 559.511719 573.480469 C 563.957031 569.242188 566.839844 567.691406 566.839844 567.691406 C 569.675781 566.417969 572.976562 565.355469 575.789062 563.65625 L 589.222656 555.921875 C 589.976562 555.527344 590.265625 554.585938 589.871094 553.832031 L 589.804688 553.699219 " fill-opacity="1" fill-rule="nonzero"/><path fill="#c5cef6" d="M 465.207031 575.898438 L 465.207031 595.261719 C 465.207031 598.1875 470.019531 788.152344 470.019531 788.152344 C 470.125 793.929688 488.019531 793.417969 488.1875 788.246094 L 497.703125 648.726562 L 501.382812 766.964844 C 501.460938 772.886719 521.277344 772.355469 521.164062 766.519531 L 523.945312 609.945312 C 523.996094 607.203125 523.847656 602.835938 523.28125 600.15625 L 465.207031 575.898438 " fill-opacity="1" fill-rule="nonzero"/><path fill="#9fa5d3" d="M 497.703125 648.726562 L 503.175781 645.382812 C 504.65625 644.472656 506.542969 645.59375 506.460938 647.332031 L 501.179688 752.605469 L 497.703125 648.726562 " fill-opacity="1" fill-rule="nonzero"/><path fill="#292d4c" d="M 558.359375 561.492188 C 558.359375 561.492188 537.351562 570.136719 533.480469 571.828125 C 532.742188 572.152344 531.910156 571.703125 531.769531 570.910156 C 530.378906 562.996094 526.773438 529.425781 524.730469 524.769531 C 523.6875 522.398438 507.015625 531.007812 507.015625 531.007812 C 506.066406 532.101562 505.59375 533.484375 505.714844 534.945312 C 505.824219 536.378906 504.738281 538.191406 505.695312 538.972656 C 509.460938 557.890625 518.027344 594.425781 526.464844 596.019531 C 532.53125 597.167969 555.117188 580.878906 562.851562 571.058594 C 559.507812 568.375 557.210938 565.007812 558.359375 561.492188 " fill-opacity="1" fill-rule="nonzero"/><path fill="#343b65" d="M 524.84375 526.828125 L 523.945312 609.945312 C 519.953125 615.089844 497.867188 623.300781 479.359375 620.503906 C 476.054688 620.007812 472.855469 619.234375 469.914062 618.113281 C 468.023438 617.394531 466.222656 616.53125 464.550781 615.503906 L 463.078125 568.246094 L 451.945312 545.027344 C 451.945312 533.058594 461.722656 525.855469 471.828125 519.714844 C 472.820312 519.105469 473.832031 518.519531 474.898438 517.914062 L 490.332031 508.976562 C 491.085938 508.589844 496.910156 511.753906 497.664062 511.457031 C 499.648438 510.613281 501.722656 510.101562 503.785156 509.898438 C 513.304688 508.902344 524.84375 513.902344 524.84375 526.828125 " fill-opacity="1" fill-rule="nonzero"/><path fill="#ff4a59" d="M 505.652344 592.902344 L 509.089844 586.203125 C 508.304688 578.378906 499.738281 535.507812 495.882812 527.570312 C 495.648438 527.089844 495.710938 526.535156 496.035156 526.109375 L 497.816406 523.785156 L 495.554688 520.039062 C 493.550781 520.898438 492.03125 521.195312 491.394531 521.304688 L 489.894531 526.660156 L 492.734375 527.46875 C 493.195312 527.601562 493.550781 527.957031 493.679688 528.417969 C 496.285156 538.019531 499.640625 583.035156 499.867188 591.605469 C 502.960938 592.300781 502.558594 592.207031 505.652344 592.902344 " fill-opacity="1" fill-rule="nonzero"/><path fill="#292d4c" d="M 479.277344 618.417969 C 475.96875 617.921875 472.855469 617.078125 469.914062 615.957031 L 466.132812 606.15625 L 475.867188 546.867188 L 477.394531 589.371094 L 479.277344 618.417969 " fill-opacity="1" fill-rule="nonzero"/><path fill="#292d4c" d="M 514.074219 615.203125 C 513.488281 615.421875 512.859375 615.605469 512.234375 615.808594 C 506.484375 617.535156 499.558594 618.714844 492.609375 619.023438 C 492.003906 619.042969 491.378906 619.0625 490.773438 619.078125 C 488.347656 619.132812 485.921875 619.078125 483.566406 618.894531 C 482.066406 618.769531 480.632812 618.621094 479.277344 618.417969 C 473.371094 617.554688 468.894531 615.933594 467.507812 613.605469 L 468.367188 618.472656 C 468.425781 619.894531 472.902344 621.546875 479.492188 622.503906 C 482.800781 622.976562 486.675781 623.289062 490.773438 623.308594 C 491.378906 623.308594 491.988281 623.289062 492.609375 623.289062 C 499.027344 623.179688 505.917969 622.296875 512.234375 620.277344 C 512.859375 620.074219 513.46875 619.851562 514.074219 619.632812 C 517.675781 618.324219 520.941406 616.625 523.863281 614.402344 L 523.945312 609.945312 C 521.8125 611.929688 518.429688 613.730469 514.074219 615.203125 " fill-opacity="1" fill-rule="nonzero"/><path fill="#fcbac0" d="M 477.113281 665.203125 L 475.273438 656.667969 C 475.023438 655.515625 474.589844 654.40625 473.984375 653.390625 L 472.796875 651.398438 C 471.484375 649.1875 470.800781 646.664062 470.832031 644.097656 L 471.351562 595.886719 C 471.28125 594.007812 471.328125 592.148438 471.503906 590.277344 C 472.285156 581.828125 468.152344 565.078125 468.546875 558.117188 C 468.644531 556.371094 467.289062 554.890625 465.542969 554.828125 L 458.722656 545.90625 C 456.96875 545.84375 455.503906 547.246094 455.496094 549.003906 L 454.867188 591.941406 C 454.84375 593.433594 454.921875 594.921875 455.09375 596.402344 L 461 648.496094 C 460.589844 651.503906 460.355469 654.753906 460.308594 657.964844 L 459.773438 673.089844 C 459.710938 673.921875 460.335938 674.648438 461.167969 674.710938 C 461.726562 674.753906 462.113281 674.613281 462.40625 674.359375 C 463.210938 676.34375 464.25 677.65625 465.546875 677.917969 C 470.300781 678.882812 471.425781 661.972656 471.425781 661.972656 C 471.425781 661.972656 472.828125 665.433594 473.21875 666.609375 C 473.660156 667.9375 474.882812 668.460938 475.757812 668.339844 C 477.769531 668.070312 477.527344 666.113281 477.113281 665.203125 " fill-opacity="1" fill-rule="nonzero"/><path fill="#292d4c" d="M 458.503906 641.339844 L 459.039062 645.753906 C 459.386719 649.710938 473.203125 649.246094 473.054688 644.765625 L 473.019531 640.9375 C 468.699219 642.410156 462.621094 642.554688 458.503906 641.339844 " fill-opacity="1" fill-rule="nonzero"/><path fill="#343b65" d="M 472.542969 594.058594 C 472.542969 593.339844 472.5625 592.644531 472.597656 591.925781 C 473.019531 585.328125 475.246094 550.101562 475.722656 543.652344 L 451.945312 545.027344 L 452.917969 590.914062 C 452.863281 592.476562 452.917969 594.078125 453.0625 595.675781 L 455.804688 618.566406 L 458.503906 641.339844 C 462.621094 642.554688 468.699219 642.410156 473.019531 640.9375 L 472.800781 618.566406 L 472.542969 594.058594 " fill-opacity="1" fill-rule="nonzero"/><path fill="#292d4c" d="M 485.347656 489.699219 C 489.691406 494.875 491.789062 494.792969 488.390625 497.191406 C 483.566406 500.601562 478.5625 503.242188 473.820312 499.375 C 468.585938 495.101562 467.042969 485.238281 467.046875 482.269531 C 467.046875 482.269531 481.007812 484.523438 485.347656 489.699219 " fill-opacity="1" fill-rule="nonzero"/><path fill="#fcbac0" d="M 497.664062 489.542969 L 497.664062 517.261719 C 497.664062 518.558594 496.46875 519.804688 494.277344 520.601562 C 490.488281 522 485.15625 521.652344 482.3125 519.804688 C 481.167969 519.058594 480.617188 518.160156 480.617188 517.261719 L 480.570312 489.542969 L 497.664062 489.542969 " fill-opacity="1" fill-rule="nonzero"/><path fill="#ed8b8b" d="M 497.664062 492.820312 L 497.664062 511.457031 C 497.664062 514.097656 493.769531 516.78125 490.488281 515.105469 C 485.632812 512.632812 480.570312 508.257812 480.570312 503.84375 L 480.570312 492.820312 L 497.664062 492.820312 " fill-opacity="1" fill-rule="nonzero"/><path fill="#fcbac0" d="M 488.871094 464.195312 C 478.355469 465.050781 470.457031 473.441406 471.488281 486.128906 C 471.757812 489.421875 474.816406 493.199219 475.691406 497.179688 C 477.035156 503.332031 482.105469 507.589844 488.003906 510.351562 C 496.757812 514.441406 506.003906 513.011719 508.652344 499.039062 C 509.566406 494.203125 512.824219 462.246094 488.871094 464.195312 " fill-opacity="1" fill-rule="nonzero"/><path fill="#292d4c" d="M 490.617188 529.222656 L 491.394531 521.304688 C 491.394531 521.304688 486.625 520.09375 484.34375 518.378906 C 482.058594 516.664062 480.570312 513.011719 480.570312 513.011719 L 476.800781 516.808594 C 478.410156 525.035156 490.617188 529.222656 490.617188 529.222656 " fill-opacity="1" fill-rule="nonzero"/><path fill="#292d4c" d="M 497.664062 527.402344 L 495.554688 520.039062 L 496.371094 519.105469 C 497.066406 518.3125 497.464844 517.308594 497.507812 516.253906 L 497.664062 512.257812 C 497.664062 512.257812 498.476562 512.132812 498.898438 512.035156 L 499.25 512.539062 C 500.707031 514.601562 501.445312 517.140625 501.128906 519.648438 C 500.527344 524.40625 497.664062 527.402344 497.664062 527.402344 " fill-opacity="1" fill-rule="nonzero"/><path fill="#292d4c" d="M 466.84375 477.113281 C 466.476562 487.230469 470.28125 491.882812 473.097656 493.96875 C 472.828125 493.0625 472.78125 491.328125 473.378906 488.023438 C 473.601562 486.777344 475.734375 487.09375 477.058594 488.792969 C 477.597656 489.488281 478.722656 490.015625 479.914062 490.402344 C 480.953125 488.996094 481.484375 487.28125 481.421875 485.535156 L 481.222656 480.40625 L 474.363281 477.160156 C 471.960938 476.019531 469.214844 476.039062 466.84375 477.113281 " fill-opacity="1" fill-rule="nonzero"/><path fill="#292d4c" d="M 494.414062 460.003906 C 478.742188 457.027344 467.929688 464.140625 466.976562 475.015625 C 466.910156 475.742188 466.871094 476.4375 466.84375 477.113281 C 469.214844 476.039062 471.960938 476.019531 474.363281 477.160156 L 481.222656 480.40625 L 481.132812 476.726562 C 483.542969 478.980469 488.179688 479.101562 490.167969 478.179688 C 494.449219 476.199219 500.054688 475.839844 503.988281 476.125 C 506.539062 476.308594 507.164062 477.359375 507.960938 479.054688 C 508.558594 480.328125 508.730469 482.269531 508.730469 482.269531 C 508.730469 482.269531 510.964844 477.804688 509.890625 472.320312 C 508.863281 467.113281 505.300781 462.070312 494.414062 460.003906 " fill-opacity="1" fill-rule="nonzero"/><path fill="#fcbac0" d="M 479.75 489.257812 C 481.917969 492.3125 482.066406 495.933594 480.082031 497.34375 C 478.097656 498.75 474.730469 497.414062 472.566406 494.355469 C 470.398438 491.296875 470.253906 487.679688 472.238281 486.273438 C 474.222656 484.859375 477.589844 486.203125 479.75 489.257812 " fill-opacity="1" fill-rule="nonzero"/><g clip-path="url(#650a78939b)"><path fill="#eaecff" d="M 570.714844 957.992188 L 496.621094 957.992188 L 506.363281 937.039062 L 489.09375 901.640625 L 668.132812 794.167969 C 663.710938 790.324219 660.933594 786.082031 660.355469 781.816406 C 659.328125 774.234375 665.152344 767.976562 670.214844 764.058594 C 681.90625 755.015625 701.039062 749.617188 721.378906 749.617188 C 734.703125 749.617188 747.347656 751.914062 757.949219 756.265625 C 770.757812 761.515625 779.03125 769.328125 780.09375 777.15625 C 781.117188 784.742188 775.296875 791 770.234375 794.914062 C 762.011719 801.269531 750.09375 805.773438 736.691406 807.921875 L 787.382812 838.179688 L 570.714844 957.992188 " fill-opacity="1" fill-rule="nonzero"/></g><path fill="#f8afac" d="M 694.605469 768.035156 C 693.488281 769.246094 691.292969 771.347656 692.710938 772.824219 C 696.425781 776.722656 702.972656 775.664062 713.683594 767.882812 C 714.988281 766.9375 716.921875 767.238281 719.019531 766.121094 C 720.816406 765.175781 722.3125 763.695312 722.957031 761.769531 C 723.582031 759.984375 723.164062 758.90625 723.164062 758.90625 C 723.148438 758.335938 722.75 757.449219 722.3125 756.3125 C 722.199219 756.046875 722.105469 755.78125 722.027344 755.480469 C 721.175781 752.679688 721.121094 748.796875 721.121094 748.796875 C 721.121094 748.796875 720.988281 680.605469 715.179688 656.273438 L 720.269531 603.976562 L 689.308594 598.808594 L 693.355469 657.066406 C 693.355469 657.066406 710.164062 746.109375 710.464844 750.59375 C 710.808594 755.839844 702.972656 761.769531 698.144531 765.304688 C 696.425781 766.574219 695.082031 767.519531 694.605469 768.035156 " fill-opacity="1" fill-rule="nonzero"/><path fill="#fec7c4" d="M 744.160156 606.695312 L 736.507812 660.644531 L 737.007812 669.421875 C 745.65625 696.699219 742.722656 740.757812 742.5 759.738281 C 742.410156 767.273438 746.660156 771.78125 746.667969 782.53125 C 746.671875 787.988281 744.269531 793.941406 737.402344 793.8125 C 730.523438 793.675781 731.5 775.851562 733.3125 765.40625 C 733.550781 764.03125 733.53125 762.644531 733.242188 761.277344 L 717.480469 679.222656 L 714.464844 673.335938 C 713.730469 671.371094 713.355469 669.285156 713.355469 667.191406 L 713.355469 605.054688 L 744.160156 606.695312 " fill-opacity="1" fill-rule="nonzero"/><path fill="#343b65" d="M 732.191406 774.664062 C 732.191406 774.664062 731.640625 783.019531 739.167969 783.019531 C 744.839844 783.019531 746.195312 778.800781 745.628906 773.792969 C 747.566406 779.0625 746.386719 786.304688 745.886719 787.984375 C 744.707031 791.964844 742.019531 794.164062 737.074219 794.007812 C 734.933594 793.9375 733.539062 793.355469 732.683594 790.59375 C 731.433594 786.558594 731.332031 780.71875 732.191406 774.664062 " fill-opacity="1" fill-rule="nonzero"/><path fill="#343b65" d="M 692.710938 772.824219 C 696.425781 776.722656 702.972656 775.664062 713.683594 767.882812 C 714.988281 766.9375 716.921875 767.238281 719.019531 766.121094 C 720.816406 765.175781 722.3125 763.695312 722.957031 761.769531 C 723.582031 759.984375 723.164062 758.90625 723.164062 758.90625 C 723.148438 758.335938 722.75 757.449219 722.3125 756.3125 C 722.199219 756.046875 722.105469 755.78125 722.027344 755.480469 C 721.15625 760.460938 703.5 769.566406 700.304688 769.644531 C 697.21875 769.699219 696.558594 767.332031 698.203125 765.289062 C 696.425781 766.574219 695.082031 767.519531 694.605469 768.035156 C 693.488281 769.246094 691.292969 771.347656 692.710938 772.824219 " fill-opacity="1" fill-rule="nonzero"/><path fill="#343b65" d="M 700.785156 474.308594 C 701.429688 458.527344 708.378906 445.996094 716.308594 446.316406 C 717.777344 446.382812 719.171875 446.878906 720.476562 447.75 C 723.359375 441.683594 727.441406 437.914062 731.828125 438.09375 C 739.757812 438.417969 745.664062 451.472656 745.015625 467.253906 C 745.003906 467.582031 744.972656 467.898438 744.953125 468.222656 L 743.519531 503.855469 C 743.257812 510.21875 736.375 514.066406 730.824219 510.945312 L 707.683594 497.949219 C 702.964844 495.300781 700.132812 490.230469 700.355469 484.824219 L 700.746094 475.273438 C 700.753906 474.949219 700.773438 474.636719 700.785156 474.308594 " fill-opacity="1" fill-rule="nonzero"/><path fill="#343b65" d="M 686.664062 580.027344 C 687.363281 604 688.332031 642.515625 688.332031 642.515625 C 689.308594 653.894531 736.507812 660.644531 742.308594 647.582031 L 744.84375 616.875 C 746.71875 606.191406 748.363281 584.421875 741.683594 570.390625 C 741.683594 570.390625 741.265625 569.648438 740.621094 568.515625 C 739.050781 565.691406 738.027344 562.625 737.558594 559.484375 L 733.089844 559.085938 L 731.953125 558.972656 L 731.179688 558.914062 L 730.042969 558.820312 L 693.097656 555.542969 C 692.757812 556.792969 692.265625 557.988281 691.660156 559.160156 C 688.179688 565.539062 686.453125 572.738281 686.664062 580.027344 " fill-opacity="1" fill-rule="nonzero"/><path fill="#fcbac0" d="M 652.132812 556.339844 C 662.089844 557.140625 686.910156 558.84375 694.703125 551.632812 C 698.140625 548.457031 704.261719 503.941406 704.261719 503.941406 C 704.558594 502.585938 703.675781 501.253906 702.316406 500.996094 L 692.03125 499.050781 C 690.675781 498.796875 689.378906 499.699219 689.148438 501.058594 C 688.214844 506.621094 684.410156 532.09375 683.46875 538.523438 C 683.25 540.011719 682.121094 541.1875 680.636719 541.460938 C 673.464844 542.777344 662.105469 545.839844 650.121094 548.042969 C 644.746094 549.027344 634.074219 534.980469 632.285156 540.148438 C 632.285156 540.148438 622.171875 545.582031 627.859375 552.226562 C 628.835938 553.363281 635.675781 556.902344 638.261719 556.734375 C 643.449219 556.394531 650.792969 556.230469 652.132812 556.339844 " fill-opacity="1" fill-rule="nonzero"/><path fill="#eaecff" d="M 694.578125 549.441406 C 694.644531 550.226562 694.558594 551.976562 694.558594 552.066406 C 694.230469 554.558594 688.648438 559.382812 690.394531 561.683594 C 698.378906 572.21875 719.609375 571.863281 731.308594 570.394531 C 737.320312 569.648438 741.496094 568.511719 741.496094 568.511719 C 739.636719 565.191406 738.546875 561.539062 738.238281 557.816406 C 738.195312 557.226562 738.152344 556.660156 738.152344 556.070312 L 738.15625 555.5625 C 738.175781 553.921875 738.351562 552.261719 738.65625 550.644531 C 738.785156 549.988281 739.636719 546.988281 739.96875 546.15625 L 750.152344 514.246094 C 750.152344 503.332031 744.648438 498.632812 735.484375 493.050781 C 734.546875 492.460938 733.5625 491.875 732.535156 491.28125 L 718.34375 483.082031 C 717.648438 482.730469 712.308594 485.660156 711.609375 485.375 C 709.953125 484.675781 708.246094 484.21875 706.519531 483.996094 C 697.621094 482.835938 688.742188 488.066406 688.742188 500.164062 L 689.464844 506.261719 C 689.878906 509.652344 689.679688 513.152344 688.480469 516.347656 C 687.890625 517.964844 687.5625 519.691406 687.5625 521.511719 C 687.5625 525.972656 689.53125 529.953125 692.613281 532.6875 C 692.613281 532.6875 694.558594 549.199219 694.578125 549.441406 " fill-opacity="1" fill-rule="nonzero"/><path fill="#fcbac0" d="M 727.117188 497.308594 C 722.039062 499.179688 714.824219 498.679688 711.003906 496.195312 C 707.179688 493.707031 708.203125 490.175781 713.28125 488.304688 C 718.359375 486.433594 725.578125 486.9375 729.398438 489.421875 C 733.21875 491.90625 732.199219 495.441406 727.117188 497.308594 " fill-opacity="1" fill-rule="nonzero"/><path fill="#343b65" d="M 694.558594 552.066406 C 694.558594 551.976562 694.578125 551.890625 694.578125 551.804688 C 694.644531 551.015625 694.644531 550.226562 694.578125 549.441406 C 699.363281 556.097656 717.617188 558.847656 730.285156 557.210938 C 730.320312 557.949219 730.375 558.660156 730.421875 559.382812 C 728.078125 559.671875 725.703125 559.828125 723.308594 559.828125 C 712.878906 559.828125 699.007812 558.148438 694.558594 552.066406 " fill-opacity="1" fill-rule="nonzero"/><path fill="#a0ace2" d="M 738.164062 556.242188 C 738.253906 560.492188 739.382812 564.71875 741.496094 568.511719 C 741.496094 568.511719 737.320312 569.648438 731.308594 570.394531 C 731.082031 566.9375 730.683594 563.246094 730.421875 559.382812 C 733.089844 559.050781 735.714844 558.539062 738.238281 557.816406 C 738.203125 557.289062 738.167969 556.769531 738.164062 556.242188 " fill-opacity="1" fill-rule="nonzero"/><path fill="#a0ace2" d="M 730.285156 557.210938 C 730.195312 555.382812 727.40625 530.191406 729.921875 518.984375 L 738.148438 550.644531 C 737.808594 552.398438 737.636719 554.175781 737.648438 555.949219 C 737.648438 555.949219 732.976562 556.867188 730.285156 557.210938 " fill-opacity="1" fill-rule="nonzero"/><path fill="#292d4c" d="M 738.15625 555.5625 L 738.15625 555.949219 C 738.167969 556.769531 738.203125 557.289062 738.238281 557.816406 C 735.714844 558.539062 733.089844 559.050781 730.421875 559.382812 C 730.375 558.660156 730.320312 557.949219 730.285156 557.210938 C 732.976562 556.867188 735.617188 556.328125 738.15625 555.5625 " fill-opacity="1" fill-rule="nonzero"/><path fill="#fcbac0" d="M 732.074219 626.414062 L 733.535156 619.03125 C 733.730469 618.03125 734.085938 617.070312 734.597656 616.183594 L 735.585938 614.449219 C 736.6875 612.527344 737.234375 610.339844 737.171875 608.125 L 735.992188 566.59375 C 736.023438 564.972656 732.601562 532.816406 732.15625 526.824219 C 732.046875 525.320312 733.191406 524.023438 734.695312 523.945312 L 746.113281 523.335938 C 747.625 523.253906 748.90625 524.4375 748.945312 525.953125 L 750.136719 562.945312 C 750.175781 564.226562 750.136719 565.511719 750.011719 566.789062 L 745.707031 611.769531 C 746.289062 615.53125 746.554688 619.738281 746.464844 623.640625 L 746.953125 632.949219 C 747.019531 633.660156 746.492188 634.296875 745.78125 634.363281 C 745.363281 634.402344 745.09375 634.3125 744.859375 634.167969 C 744.199219 635.839844 743.332031 636.949219 742.238281 637.195312 C 738.160156 638.097656 736.929688 623.539062 736.929688 623.539062 C 736.929688 623.539062 735.773438 626.542969 735.453125 627.566406 C 735.09375 628.714844 734.050781 629.1875 733.292969 629.097656 C 731.554688 628.894531 731.734375 627.203125 732.074219 626.414062 " fill-opacity="1" fill-rule="nonzero"/><path fill="#eaecff" d="M 750.175781 512.878906 L 750.800781 534.949219 C 751.222656 540.613281 732.667969 542.449219 732.148438 537.714844 L 727.40625 503.25 L 750.175781 512.878906 " fill-opacity="1" fill-rule="nonzero"/><path fill="#fcbac0" d="M 712.359375 465.261719 L 712.359375 490.707031 C 712.359375 491.894531 713.453125 493.039062 715.46875 493.769531 C 718.945312 495.054688 723.839844 494.734375 726.445312 493.039062 C 727.5 492.351562 728.003906 491.53125 728.003906 490.707031 L 728.046875 465.261719 L 712.359375 465.261719 " fill-opacity="1" fill-rule="nonzero"/><path fill="#ed8b8b" d="M 712.351562 466.90625 L 712.351562 484.507812 C 712.351562 487.59375 715.554688 489.726562 718.34375 488.417969 C 721.433594 486.933594 724.066406 484.773438 726.246094 482.261719 C 727.425781 480.90625 728.046875 479.152344 728.046875 477.359375 L 728.046875 466.90625 L 712.351562 466.90625 " fill-opacity="1" fill-rule="nonzero"/><path fill="#fcbac0" d="M 702.234375 474.058594 C 705.179688 486.769531 713.714844 487.746094 721.589844 483.664062 C 730.371094 479.121094 735.535156 468.503906 735.847656 460.835938 C 736.324219 449.160156 728.769531 441.757812 719.089844 441.363281 C 697.046875 440.460938 701.214844 469.65625 702.234375 474.058594 " fill-opacity="1" fill-rule="nonzero"/><path fill="#343b65" d="M 736.707031 439.777344 C 726.667969 431.238281 710.871094 432.664062 704.691406 439.4375 C 703.226562 441.046875 702.667969 443.277344 703.066406 445.417969 C 703.066406 445.417969 700.074219 451.140625 701.460938 459.4375 C 701.460938 459.4375 701.945312 455.121094 703.246094 451.492188 C 704.226562 452.316406 705.644531 452.792969 707.328125 453.09375 C 715.101562 454.476562 729.160156 451.578125 727.761719 466.550781 C 727.761719 466.550781 729.253906 465.886719 730.59375 464.171875 C 731.804688 462.613281 735.410156 461.746094 735.761719 462.851562 C 736.707031 465.773438 729.867188 478.199219 729.867188 478.199219 C 746.429688 470.96875 745.191406 447 736.707031 439.777344 " fill-opacity="1" fill-rule="nonzero"/><path fill="#fcbac0" d="M 729.757812 465.070312 C 727.714844 467.753906 727.46875 471.003906 729.210938 472.332031 C 730.953125 473.660156 734.023438 472.5625 736.070312 469.878906 C 738.113281 467.195312 738.359375 463.941406 736.617188 462.613281 C 734.875 461.285156 731.800781 462.382812 729.757812 465.070312 " fill-opacity="1" fill-rule="nonzero"/><path fill="#eaecff" d="M 631.042969 516.011719 L 660.214844 532.859375 C 661.921875 533.847656 662.609375 536.300781 662.96875 537.636719 C 665.734375 547.867188 673.765625 578.628906 673.765625 578.628906 C 674.589844 581.964844 669.890625 583.757812 667.933594 582.613281 L 640.167969 564.179688 C 638.472656 563.191406 637.429688 561.375 637.429688 559.414062 L 624.753906 519.644531 C 624.753906 517.382812 628.140625 514.4375 631.042969 516.011719 " fill-opacity="1" fill-rule="nonzero"/><path fill="#a0ace2" d="M 628.992188 517.195312 L 658.167969 534.042969 C 659.871094 535.027344 660.5625 537.484375 660.921875 538.816406 C 663.683594 549.050781 671.714844 579.8125 671.714844 579.8125 C 672.195312 582 669.257812 583.492188 667.296875 582.351562 L 638.988281 565.867188 C 636.734375 564.550781 635.742188 561.917969 635.382812 560.597656 C 632.625 550.398438 627.601562 531.421875 624.835938 520.976562 C 624.074219 518.074219 627.039062 516.058594 628.992188 517.195312 " fill-opacity="1" fill-rule="nonzero"/><path fill="#fcbac0" d="M 630.253906 541.503906 L 635.207031 544.5 C 636.164062 545.113281 636.957031 545.953125 637.515625 546.949219 L 638.351562 548.429688 C 639.460938 550.40625 638.78125 552.914062 636.820312 554.054688 L 634.058594 555.667969 L 629.21875 549.441406 L 630.253906 541.503906 " fill-opacity="1" fill-rule="nonzero"/><path fill="#8c95cc" d="M 403.347656 719.507812 L 615.988281 596.972656 L 704.230469 649.105469 L 491.597656 770.476562 L 403.347656 719.507812 " fill-opacity="1" fill-rule="nonzero"/><path fill="#a0ace2" d="M 403.347656 719.507812 L 403.347656 891.46875 L 491.597656 942.4375 L 491.597656 770.476562 L 403.347656 719.507812 " fill-opacity="1" fill-rule="nonzero"/><path fill="#c5cef6" d="M 491.597656 770.476562 L 491.597656 942.4375 L 704.230469 821.066406 L 704.230469 649.105469 L 491.597656 770.476562 " fill-opacity="1" fill-rule="nonzero"/><path fill="#ff4a59" d="M 394.808594 714.433594 L 609.421875 590.4375 L 712.773438 651.492188 L 498.160156 774.125 L 394.808594 714.433594 " fill-opacity="1" fill-rule="nonzero"/><path fill="#ea1d3d" d="M 394.808594 714.433594 L 394.808594 727.820312 L 498.160156 787.515625 L 498.160156 774.125 L 394.808594 714.433594 " fill-opacity="1" fill-rule="nonzero"/><path fill="#ea1d3d" d="M 498.160156 774.125 L 498.160156 787.515625 L 712.773438 664.886719 L 712.773438 651.492188 L 498.160156 774.125 " fill-opacity="1" fill-rule="nonzero"/><g fill="#ffffff" fill-opacity="1"><g transform="translate(40.180666, 119.582289)"><g><path d="M 26.71875 -48.453125 C 31.007812 -48.453125 34.734375 -47.734375 37.890625 -46.296875 C 41.054688 -44.867188 43.492188 -42.835938 45.203125 -40.203125 C 46.910156 -37.578125 47.765625 -34.46875 47.765625 -30.875 C 47.765625 -27.320312 46.910156 -24.21875 45.203125 -21.5625 C 43.492188 -18.90625 41.054688 -16.875 37.890625 -15.46875 C 34.734375 -14.0625 31.007812 -13.359375 26.71875 -13.359375 L 16.953125 -13.359375 L 16.953125 0 L 5.75 0 L 5.75 -48.453125 Z M 26.09375 -22.5 C 29.457031 -22.5 32.015625 -23.222656 33.765625 -24.671875 C 35.523438 -26.128906 36.40625 -28.195312 36.40625 -30.875 C 36.40625 -33.59375 35.523438 -35.675781 33.765625 -37.125 C 32.015625 -38.582031 29.457031 -39.3125 26.09375 -39.3125 L 16.953125 -39.3125 L 16.953125 -22.5 Z M 26.09375 -22.5 "/></g></g></g><g fill="#ffffff" fill-opacity="1"><g transform="translate(90.843119, 119.582289)"><g><path d="M 36.609375 0 L 27.265625 -13.5 L 16.953125 -13.5 L 16.953125 0 L 5.75 0 L 5.75 -48.453125 L 26.71875 -48.453125 C 31.007812 -48.453125 34.734375 -47.734375 37.890625 -46.296875 C 41.054688 -44.867188 43.492188 -42.835938 45.203125 -40.203125 C 46.910156 -37.578125 47.765625 -34.46875 47.765625 -30.875 C 47.765625 -27.269531 46.894531 -24.164062 45.15625 -21.5625 C 43.425781 -18.957031 40.972656 -16.960938 37.796875 -15.578125 L 48.65625 0 Z M 36.40625 -30.875 C 36.40625 -33.59375 35.523438 -35.675781 33.765625 -37.125 C 32.015625 -38.582031 29.457031 -39.3125 26.09375 -39.3125 L 16.953125 -39.3125 L 16.953125 -22.421875 L 26.09375 -22.421875 C 29.457031 -22.421875 32.015625 -23.160156 33.765625 -24.640625 C 35.523438 -26.117188 36.40625 -28.195312 36.40625 -30.875 Z M 36.40625 -30.875 "/></g></g></g><g fill="#ffffff" fill-opacity="1"><g transform="translate(141.713203, 119.582289)"><g><path d="M 29.203125 0.828125 C 24.179688 0.828125 19.648438 -0.253906 15.609375 -2.421875 C 11.566406 -4.585938 8.40625 -7.570312 6.125 -11.375 C 3.84375 -15.1875 2.703125 -19.46875 2.703125 -24.21875 C 2.703125 -28.976562 3.84375 -33.257812 6.125 -37.0625 C 8.40625 -40.875 11.566406 -43.863281 15.609375 -46.03125 C 19.648438 -48.195312 24.179688 -49.28125 29.203125 -49.28125 C 34.234375 -49.28125 38.753906 -48.195312 42.765625 -46.03125 C 46.785156 -43.863281 49.945312 -40.875 52.25 -37.0625 C 54.5625 -33.257812 55.71875 -28.976562 55.71875 -24.21875 C 55.71875 -19.46875 54.5625 -15.1875 52.25 -11.375 C 49.945312 -7.570312 46.785156 -4.585938 42.765625 -2.421875 C 38.753906 -0.253906 34.234375 0.828125 29.203125 0.828125 Z M 29.203125 -8.71875 C 32.066406 -8.71875 34.648438 -9.375 36.953125 -10.6875 C 39.265625 -12.007812 41.078125 -13.847656 42.390625 -16.203125 C 43.710938 -18.554688 44.375 -21.226562 44.375 -24.21875 C 44.375 -27.21875 43.710938 -29.894531 42.390625 -32.25 C 41.078125 -34.601562 39.265625 -36.4375 36.953125 -37.75 C 34.648438 -39.070312 32.066406 -39.734375 29.203125 -39.734375 C 26.347656 -39.734375 23.765625 -39.070312 21.453125 -37.75 C 19.148438 -36.4375 17.335938 -34.601562 16.015625 -32.25 C 14.703125 -29.894531 14.046875 -27.21875 14.046875 -24.21875 C 14.046875 -21.226562 14.703125 -18.554688 16.015625 -16.203125 C 17.335938 -13.847656 19.148438 -12.007812 21.453125 -10.6875 C 23.765625 -9.375 26.347656 -8.71875 29.203125 -8.71875 Z M 29.203125 -8.71875 "/></g></g></g><g fill="#ffffff" fill-opacity="1"><g transform="translate(200.127289, 119.582289)"><g><path d="M 14.671875 0.828125 C 11.398438 0.828125 8.390625 0.21875 5.640625 -1 C 2.890625 -2.226562 0.640625 -3.972656 -1.109375 -6.234375 L 5.125 -13.703125 C 7.75 -10.148438 10.75 -8.375 14.125 -8.375 C 18.6875 -8.375 20.96875 -11.050781 20.96875 -16.40625 L 20.96875 -39.453125 L 3.953125 -39.453125 L 3.953125 -48.453125 L 32.125 -48.453125 L 32.125 -17.03125 C 32.125 -11.070312 30.644531 -6.601562 27.6875 -3.625 C 24.726562 -0.65625 20.390625 0.828125 14.671875 0.828125 Z M 14.671875 0.828125 "/></g></g></g><g fill="#ffffff" fill-opacity="1"><g transform="translate(237.570456, 119.582289)"><g><path d="M 43.265625 -9 L 43.265625 0 L 5.75 0 L 5.75 -48.453125 L 42.359375 -48.453125 L 42.359375 -39.453125 L 16.890625 -39.453125 L 16.890625 -28.9375 L 39.390625 -28.9375 L 39.390625 -20.21875 L 16.890625 -20.21875 L 16.890625 -9 Z M 43.265625 -9 "/></g></g></g><g fill="#ffffff" fill-opacity="1"><g transform="translate(284.011036, 119.582289)"><g><path d="M 28.9375 0.828125 C 24 0.828125 19.53125 -0.242188 15.53125 -2.390625 C 11.539062 -4.535156 8.40625 -7.507812 6.125 -11.3125 C 3.84375 -15.125 2.703125 -19.425781 2.703125 -24.21875 C 2.703125 -29.019531 3.84375 -33.320312 6.125 -37.125 C 8.40625 -40.9375 11.539062 -43.914062 15.53125 -46.0625 C 19.53125 -48.207031 24.019531 -49.28125 29 -49.28125 C 33.195312 -49.28125 36.992188 -48.539062 40.390625 -47.0625 C 43.785156 -45.59375 46.632812 -43.472656 48.9375 -40.703125 L 41.734375 -34.0625 C 38.460938 -37.84375 34.40625 -39.734375 29.5625 -39.734375 C 26.5625 -39.734375 23.882812 -39.070312 21.53125 -37.75 C 19.175781 -36.4375 17.335938 -34.601562 16.015625 -32.25 C 14.703125 -29.894531 14.046875 -27.21875 14.046875 -24.21875 C 14.046875 -21.226562 14.703125 -18.554688 16.015625 -16.203125 C 17.335938 -13.847656 19.175781 -12.007812 21.53125 -10.6875 C 23.882812 -9.375 26.5625 -8.71875 29.5625 -8.71875 C 34.40625 -8.71875 38.460938 -10.632812 41.734375 -14.46875 L 48.9375 -7.828125 C 46.632812 -5.003906 43.773438 -2.851562 40.359375 -1.375 C 36.941406 0.09375 33.132812 0.828125 28.9375 0.828125 Z M 28.9375 0.828125 "/></g></g></g><g fill="#ffffff" fill-opacity="1"><g transform="translate(334.742692, 119.582289)"><g><path d="M 15.78125 -39.3125 L 0.28125 -39.3125 L 0.28125 -48.453125 L 42.5 -48.453125 L 42.5 -39.3125 L 27 -39.3125 L 27 0 L 15.78125 0 Z M 15.78125 -39.3125 "/></g></g></g><g fill="#ffffff" fill-opacity="1"><g transform="translate(377.515098, 119.582289)"><g><path d="M 20.5625 -58.28125 L 30.171875 -58.28125 L 7.34375 6.921875 L -2.28125 6.921875 Z M 20.5625 -58.28125 "/></g></g></g><g fill="#ffffff" fill-opacity="1"><g transform="translate(404.645811, 119.582289)"><g><path d="M 26.71875 -48.453125 C 31.007812 -48.453125 34.734375 -47.734375 37.890625 -46.296875 C 41.054688 -44.867188 43.492188 -42.835938 45.203125 -40.203125 C 46.910156 -37.578125 47.765625 -34.46875 47.765625 -30.875 C 47.765625 -27.320312 46.910156 -24.21875 45.203125 -21.5625 C 43.492188 -18.90625 41.054688 -16.875 37.890625 -15.46875 C 34.734375 -14.0625 31.007812 -13.359375 26.71875 -13.359375 L 16.953125 -13.359375 L 16.953125 0 L 5.75 0 L 5.75 -48.453125 Z M 26.09375 -22.5 C 29.457031 -22.5 32.015625 -23.222656 33.765625 -24.671875 C 35.523438 -26.128906 36.40625 -28.195312 36.40625 -30.875 C 36.40625 -33.59375 35.523438 -35.675781 33.765625 -37.125 C 32.015625 -38.582031 29.457031 -39.3125 26.09375 -39.3125 L 16.953125 -39.3125 L 16.953125 -22.5 Z M 26.09375 -22.5 "/></g></g></g><g fill="#ffffff" fill-opacity="1"><g transform="translate(455.308254, 119.582289)"><g><path d="M 36.609375 0 L 27.265625 -13.5 L 16.953125 -13.5 L 16.953125 0 L 5.75 0 L 5.75 -48.453125 L 26.71875 -48.453125 C 31.007812 -48.453125 34.734375 -47.734375 37.890625 -46.296875 C 41.054688 -44.867188 43.492188 -42.835938 45.203125 -40.203125 C 46.910156 -37.578125 47.765625 -34.46875 47.765625 -30.875 C 47.765625 -27.269531 46.894531 -24.164062 45.15625 -21.5625 C 43.425781 -18.957031 40.972656 -16.960938 37.796875 -15.578125 L 48.65625 0 Z M 36.40625 -30.875 C 36.40625 -33.59375 35.523438 -35.675781 33.765625 -37.125 C 32.015625 -38.582031 29.457031 -39.3125 26.09375 -39.3125 L 16.953125 -39.3125 L 16.953125 -22.421875 L 26.09375 -22.421875 C 29.457031 -22.421875 32.015625 -23.160156 33.765625 -24.640625 C 35.523438 -26.117188 36.40625 -28.195312 36.40625 -30.875 Z M 36.40625 -30.875 "/></g></g></g><g fill="#ffffff" fill-opacity="1"><g transform="translate(506.178338, 119.582289)"><g><path d="M 29.203125 0.828125 C 24.179688 0.828125 19.648438 -0.253906 15.609375 -2.421875 C 11.566406 -4.585938 8.40625 -7.570312 6.125 -11.375 C 3.84375 -15.1875 2.703125 -19.46875 2.703125 -24.21875 C 2.703125 -28.976562 3.84375 -33.257812 6.125 -37.0625 C 8.40625 -40.875 11.566406 -43.863281 15.609375 -46.03125 C 19.648438 -48.195312 24.179688 -49.28125 29.203125 -49.28125 C 34.234375 -49.28125 38.753906 -48.195312 42.765625 -46.03125 C 46.785156 -43.863281 49.945312 -40.875 52.25 -37.0625 C 54.5625 -33.257812 55.71875 -28.976562 55.71875 -24.21875 C 55.71875 -19.46875 54.5625 -15.1875 52.25 -11.375 C 49.945312 -7.570312 46.785156 -4.585938 42.765625 -2.421875 C 38.753906 -0.253906 34.234375 0.828125 29.203125 0.828125 Z M 29.203125 -8.71875 C 32.066406 -8.71875 34.648438 -9.375 36.953125 -10.6875 C 39.265625 -12.007812 41.078125 -13.847656 42.390625 -16.203125 C 43.710938 -18.554688 44.375 -21.226562 44.375 -24.21875 C 44.375 -27.21875 43.710938 -29.894531 42.390625 -32.25 C 41.078125 -34.601562 39.265625 -36.4375 36.953125 -37.75 C 34.648438 -39.070312 32.066406 -39.734375 29.203125 -39.734375 C 26.347656 -39.734375 23.765625 -39.070312 21.453125 -37.75 C 19.148438 -36.4375 17.335938 -34.601562 16.015625 -32.25 C 14.703125 -29.894531 14.046875 -27.21875 14.046875 -24.21875 C 14.046875 -21.226562 14.703125 -18.554688 16.015625 -16.203125 C 17.335938 -13.847656 19.148438 -12.007812 21.453125 -10.6875 C 23.765625 -9.375 26.347656 -8.71875 29.203125 -8.71875 Z M 29.203125 -8.71875 "/></g></g></g><g fill="#ffffff" fill-opacity="1"><g transform="translate(564.592413, 119.582289)"><g><path d="M 5.75 -48.453125 L 27.75 -48.453125 C 33.007812 -48.453125 37.660156 -47.445312 41.703125 -45.4375 C 45.742188 -43.4375 48.878906 -40.613281 51.109375 -36.96875 C 53.347656 -33.320312 54.46875 -29.070312 54.46875 -24.21875 C 54.46875 -19.375 53.347656 -15.128906 51.109375 -11.484375 C 48.878906 -7.835938 45.742188 -5.007812 41.703125 -3 C 37.660156 -1 33.007812 0 27.75 0 L 5.75 0 Z M 27.203125 -9.203125 C 32.046875 -9.203125 35.910156 -10.550781 38.796875 -13.25 C 41.679688 -15.945312 43.125 -19.601562 43.125 -24.21875 C 43.125 -28.832031 41.679688 -32.488281 38.796875 -35.1875 C 35.910156 -37.894531 32.046875 -39.25 27.203125 -39.25 L 16.953125 -39.25 L 16.953125 -9.203125 Z M 27.203125 -9.203125 "/></g></g></g><g fill="#ffffff" fill-opacity="1"><g transform="translate(621.760684, 119.582289)"><g><path d="M 27.265625 0.828125 C 20.347656 0.828125 14.960938 -1.082031 11.109375 -4.90625 C 7.253906 -8.738281 5.328125 -14.207031 5.328125 -21.3125 L 5.328125 -48.453125 L 16.546875 -48.453125 L 16.546875 -21.734375 C 16.546875 -13.054688 20.144531 -8.71875 27.34375 -8.71875 C 30.851562 -8.71875 33.53125 -9.765625 35.375 -11.859375 C 37.21875 -13.960938 38.140625 -17.253906 38.140625 -21.734375 L 38.140625 -48.453125 L 49.21875 -48.453125 L 49.21875 -21.3125 C 49.21875 -14.207031 47.289062 -8.738281 43.4375 -4.90625 C 39.582031 -1.082031 34.191406 0.828125 27.265625 0.828125 Z M 27.265625 0.828125 "/></g></g></g><g fill="#ffffff" fill-opacity="1"><g transform="translate(676.298965, 119.582289)"><g><path d="M 28.9375 0.828125 C 24 0.828125 19.53125 -0.242188 15.53125 -2.390625 C 11.539062 -4.535156 8.40625 -7.507812 6.125 -11.3125 C 3.84375 -15.125 2.703125 -19.425781 2.703125 -24.21875 C 2.703125 -29.019531 3.84375 -33.320312 6.125 -37.125 C 8.40625 -40.9375 11.539062 -43.914062 15.53125 -46.0625 C 19.53125 -48.207031 24.019531 -49.28125 29 -49.28125 C 33.195312 -49.28125 36.992188 -48.539062 40.390625 -47.0625 C 43.785156 -45.59375 46.632812 -43.472656 48.9375 -40.703125 L 41.734375 -34.0625 C 38.460938 -37.84375 34.40625 -39.734375 29.5625 -39.734375 C 26.5625 -39.734375 23.882812 -39.070312 21.53125 -37.75 C 19.175781 -36.4375 17.335938 -34.601562 16.015625 -32.25 C 14.703125 -29.894531 14.046875 -27.21875 14.046875 -24.21875 C 14.046875 -21.226562 14.703125 -18.554688 16.015625 -16.203125 C 17.335938 -13.847656 19.175781 -12.007812 21.53125 -10.6875 C 23.882812 -9.375 26.5625 -8.71875 29.5625 -8.71875 C 34.40625 -8.71875 38.460938 -10.632812 41.734375 -14.46875 L 48.9375 -7.828125 C 46.632812 -5.003906 43.773438 -2.851562 40.359375 -1.375 C 36.941406 0.09375 33.132812 0.828125 28.9375 0.828125 Z M 28.9375 0.828125 "/></g></g></g><g fill="#ffffff" fill-opacity="1"><g transform="translate(727.030621, 119.582289)"><g><path d="M 15.78125 -39.3125 L 0.28125 -39.3125 L 0.28125 -48.453125 L 42.5 -48.453125 L 42.5 -39.3125 L 27 -39.3125 L 27 0 L 15.78125 0 Z M 15.78125 -39.3125 "/></g></g></g><g fill="#ffffff" fill-opacity="1"><g transform="translate(302.528312, 216.332284)"><g><path d="M 43.265625 -9 L 43.265625 0 L 5.75 0 L 5.75 -48.453125 L 42.359375 -48.453125 L 42.359375 -39.453125 L 16.890625 -39.453125 L 16.890625 -28.9375 L 39.390625 -28.9375 L 39.390625 -20.21875 L 16.890625 -20.21875 L 16.890625 -9 Z M 43.265625 -9 "/></g></g></g><g fill="#ffffff" fill-opacity="1"><g transform="translate(348.968892, 216.332284)"><g><path d="M 36.265625 0 L 24.578125 -16.8125 L 13.078125 0 L 0.203125 0 L 18.140625 -24.640625 L 1.109375 -48.453125 L 13.84375 -48.453125 L 24.984375 -32.734375 L 35.921875 -48.453125 L 48.03125 -48.453125 L 31.140625 -25.0625 L 49.21875 0 Z M 36.265625 0 "/></g></g></g><g fill="#ffffff" fill-opacity="1"><g transform="translate(398.385553, 216.332284)"><g><path d="M 26.71875 -48.453125 C 31.007812 -48.453125 34.734375 -47.734375 37.890625 -46.296875 C 41.054688 -44.867188 43.492188 -42.835938 45.203125 -40.203125 C 46.910156 -37.578125 47.765625 -34.46875 47.765625 -30.875 C 47.765625 -27.320312 46.910156 -24.21875 45.203125 -21.5625 C 43.492188 -18.90625 41.054688 -16.875 37.890625 -15.46875 C 34.734375 -14.0625 31.007812 -13.359375 26.71875 -13.359375 L 16.953125 -13.359375 L 16.953125 0 L 5.75 0 L 5.75 -48.453125 Z M 26.09375 -22.5 C 29.457031 -22.5 32.015625 -23.222656 33.765625 -24.671875 C 35.523438 -26.128906 36.40625 -28.195312 36.40625 -30.875 C 36.40625 -33.59375 35.523438 -35.675781 33.765625 -37.125 C 32.015625 -38.582031 29.457031 -39.3125 26.09375 -39.3125 L 16.953125 -39.3125 L 16.953125 -22.5 Z M 26.09375 -22.5 "/></g></g></g><g fill="#ffffff" fill-opacity="1"><g transform="translate(449.048007, 216.332284)"><g><path d="M 29.203125 0.828125 C 24.179688 0.828125 19.648438 -0.253906 15.609375 -2.421875 C 11.566406 -4.585938 8.40625 -7.570312 6.125 -11.375 C 3.84375 -15.1875 2.703125 -19.46875 2.703125 -24.21875 C 2.703125 -28.976562 3.84375 -33.257812 6.125 -37.0625 C 8.40625 -40.875 11.566406 -43.863281 15.609375 -46.03125 C 19.648438 -48.195312 24.179688 -49.28125 29.203125 -49.28125 C 34.234375 -49.28125 38.753906 -48.195312 42.765625 -46.03125 C 46.785156 -43.863281 49.945312 -40.875 52.25 -37.0625 C 54.5625 -33.257812 55.71875 -28.976562 55.71875 -24.21875 C 55.71875 -19.46875 54.5625 -15.1875 52.25 -11.375 C 49.945312 -7.570312 46.785156 -4.585938 42.765625 -2.421875 C 38.753906 -0.253906 34.234375 0.828125 29.203125 0.828125 Z M 29.203125 -8.71875 C 32.066406 -8.71875 34.648438 -9.375 36.953125 -10.6875 C 39.265625 -12.007812 41.078125 -13.847656 42.390625 -16.203125 C 43.710938 -18.554688 44.375 -21.226562 44.375 -24.21875 C 44.375 -27.21875 43.710938 -29.894531 42.390625 -32.25 C 41.078125 -34.601562 39.265625 -36.4375 36.953125 -37.75 C 34.648438 -39.070312 32.066406 -39.734375 29.203125 -39.734375 C 26.347656 -39.734375 23.765625 -39.070312 21.453125 -37.75 C 19.148438 -36.4375 17.335938 -34.601562 16.015625 -32.25 C 14.703125 -29.894531 14.046875 -27.21875 14.046875 -24.21875 C 14.046875 -21.226562 14.703125 -18.554688 16.015625 -16.203125 C 17.335938 -13.847656 19.148438 -12.007812 21.453125 -10.6875 C 23.765625 -9.375 26.347656 -8.71875 29.203125 -8.71875 Z M 29.203125 -8.71875 "/></g></g></g></svg>